<svg xmlns="http://www.w3.org/2000/svg" xmlns:xlink="http://www.w3.org/1999/xlink" width="600" zoomAndPan="magnify" viewBox="0 0 450 337.499995" height="450" preserveAspectRatio="xMidYMid meet" version="1.0"><defs><g/><clipPath id="c36579a13c"><path d="M 0.332031 0 L 449.667969 0 L 449.667969 337 L 0.332031 337 Z M 0.332031 0 " clip-rule="nonzero"/></clipPath><clipPath id="42e87df6d8"><path d="M 51.734375 0 L 398.472656 0 L 398.472656 337 L 51.734375 337 Z M 51.734375 0 " clip-rule="nonzero"/></clipPath><clipPath id="460d59624a"><path d="M 359.601562 0 L 90.675781 0 C 69.3125 0 51.917969 17.382812 51.917969 38.734375 L 51.917969 265.375 C 51.917969 286.726562 69.3125 304.109375 90.675781 304.109375 L 102.65625 304.109375 C 102.730469 304.109375 102.875 304.109375 102.945312 304.109375 L 152.820312 304.109375 C 152.890625 304.109375 153.035156 304.109375 153.109375 304.109375 L 347.261719 304.109375 C 347.332031 304.109375 347.476562 304.109375 347.550781 304.109375 L 359.53125 304.109375 C 380.894531 304.109375 398.289062 286.726562 398.289062 265.375 L 398.289062 38.734375 C 398.359375 17.382812 380.964844 0 359.601562 0 Z M 376.132812 260.828125 C 376.132812 274.171875 365.230469 285.066406 351.878906 285.066406 L 109.585938 285.066406 C 96.160156 285.066406 85.335938 274.171875 85.335938 260.828125 L 85.335938 248.132812 C 78.984375 247.269531 74.148438 241.859375 74.148438 235.292969 L 74.148438 183.71875 C 74.148438 177.15625 79.054688 171.746094 85.335938 170.878906 L 85.335938 122.480469 C 78.984375 121.613281 74.148438 116.203125 74.148438 109.640625 L 74.148438 58.066406 C 74.148438 51.503906 79.054688 46.09375 85.335938 45.226562 L 85.335938 43.0625 C 85.335938 29.71875 96.234375 18.828125 109.585938 18.828125 L 351.878906 18.828125 C 365.230469 18.828125 376.132812 29.71875 376.132812 43.0625 Z M 351.878906 27.480469 L 109.585938 27.480469 C 100.925781 27.480469 93.851562 34.550781 93.851562 43.207031 L 93.851562 45.371094 C 100.203125 46.238281 105.039062 51.648438 105.039062 58.210938 L 105.039062 109.785156 C 105.039062 116.347656 100.128906 121.757812 93.851562 122.625 L 93.851562 171.023438 C 100.203125 171.890625 105.039062 177.300781 105.039062 183.863281 L 105.039062 235.4375 C 105.039062 242.003906 100.128906 247.414062 93.851562 248.277344 L 93.851562 260.828125 C 93.851562 269.484375 100.925781 276.554688 109.585938 276.554688 L 351.878906 276.554688 C 360.539062 276.554688 367.613281 269.484375 367.613281 260.828125 L 367.613281 43.277344 C 367.613281 34.550781 360.613281 27.480469 351.878906 27.480469 Z M 322.578125 175.28125 C 322.578125 221.375 285.046875 258.808594 238.996094 258.808594 C 192.949219 258.808594 155.417969 221.300781 155.417969 175.28125 L 155.417969 128.828125 C 155.417969 82.734375 192.949219 45.300781 238.996094 45.300781 C 285.046875 45.300781 322.578125 82.734375 322.578125 128.828125 Z M 87.066406 114.183594 C 84.613281 114.183594 82.664062 112.238281 82.664062 109.785156 L 82.664062 58.210938 C 82.664062 55.757812 84.683594 53.808594 87.066406 53.808594 L 92.117188 53.808594 C 94.574219 53.738281 96.523438 55.757812 96.523438 58.210938 L 96.523438 109.785156 C 96.523438 112.238281 94.5 114.183594 92.117188 114.183594 Z M 92.117188 239.765625 L 87.066406 239.765625 C 84.613281 239.765625 82.664062 237.746094 82.664062 235.367188 L 82.664062 183.792969 C 82.664062 181.339844 84.683594 179.390625 87.066406 179.390625 L 92.117188 179.390625 C 94.574219 179.390625 96.523438 181.339844 96.523438 183.792969 L 96.523438 235.367188 C 96.523438 237.820312 94.5 239.765625 92.117188 239.765625 Z M 337.082031 328.488281 L 307.636719 328.488281 L 302.945312 312.546875 L 341.773438 312.546875 Z M 142.640625 328.488281 L 113.195312 328.488281 L 108.503906 312.546875 L 147.332031 312.546875 Z M 375.84375 332.746094 C 375.84375 335.125 373.964844 337 371.582031 337 L 78.695312 337 C 76.3125 337 74.4375 335.125 74.4375 332.746094 C 74.4375 330.363281 76.3125 328.488281 78.695312 328.488281 L 371.65625 328.488281 C 373.964844 328.488281 375.84375 330.363281 375.84375 332.746094 Z M 238.996094 53.738281 C 197.566406 53.738281 163.933594 87.425781 163.933594 128.753906 L 163.933594 175.207031 C 163.933594 216.613281 197.640625 250.226562 238.996094 250.226562 C 280.355469 250.226562 314.058594 216.539062 314.058594 175.207031 L 314.058594 128.828125 C 314.058594 87.425781 280.425781 53.738281 238.996094 53.738281 Z M 240.730469 68.238281 C 250.402344 68.238281 259.640625 70.402344 268.300781 74.65625 C 270.394531 75.667969 271.257812 78.261719 270.25 80.355469 C 269.238281 82.445312 266.640625 83.3125 264.546875 82.300781 C 257.113281 78.625 249.101562 76.75 240.800781 76.75 C 211.570312 76.75 187.753906 100.191406 187.753906 129.042969 L 187.753906 144.769531 C 187.753906 147.148438 185.875 149.023438 183.492188 149.023438 C 181.113281 149.023438 179.234375 147.148438 179.234375 144.769531 L 179.234375 129.042969 L 179.164062 129.042969 C 179.164062 95.503906 206.804688 68.238281 240.730469 68.238281 Z M 175.699219 170.664062 C 175.699219 168.285156 177.574219 166.410156 179.957031 166.410156 C 192.011719 166.410156 201.828125 156.742188 201.828125 144.914062 L 201.828125 129.980469 C 201.828125 119.882812 205.652344 110.21875 212.652344 102.789062 C 219.726562 95.285156 229.179688 90.957031 239.359375 90.597656 C 250.113281 90.164062 260.289062 94.058594 268.011719 101.488281 C 275.589844 108.847656 279.777344 118.585938 279.777344 129.117188 L 279.777344 174.125 C 279.777344 195.332031 262.742188 213.003906 241.882812 213.511719 C 241.523438 213.511719 241.164062 213.511719 240.800781 213.511719 C 223.261719 213.511719 207.890625 201.96875 203.199219 185.234375 C 202.546875 183 203.917969 180.617188 206.15625 179.96875 C 208.394531 179.320312 210.777344 180.691406 211.425781 182.925781 C 215.105469 196.269531 227.519531 205.359375 241.59375 205 C 257.90625 204.566406 271.1875 190.71875 271.1875 174.125 L 271.1875 129.117188 C 271.1875 120.964844 267.9375 113.390625 262.019531 107.621094 C 255.957031 101.777344 248.019531 98.75 239.574219 99.109375 C 223.40625 99.6875 210.269531 113.535156 210.269531 129.910156 L 210.269531 144.839844 C 210.269531 161.429688 196.628906 174.847656 179.886719 174.847656 C 177.574219 174.921875 175.699219 172.972656 175.699219 170.664062 Z M 240.730469 121.398438 C 236.398438 121.398438 232.863281 124.859375 232.863281 129.117188 L 232.863281 157.96875 C 232.863281 160.347656 230.984375 162.226562 228.605469 162.226562 C 226.222656 162.226562 224.34375 160.347656 224.34375 157.96875 L 224.34375 129.117188 C 224.34375 120.171875 231.707031 112.886719 240.730469 112.886719 C 249.75 112.886719 257.113281 120.171875 257.113281 129.117188 L 257.113281 174.992188 C 257.113281 183.9375 249.75 191.222656 240.730469 191.222656 C 232.285156 191.222656 225.140625 184.730469 224.417969 176.433594 C 224.199219 174.054688 225.933594 172.035156 228.316406 171.820312 C 230.695312 171.601562 232.71875 173.332031 232.933594 175.714844 C 233.296875 179.679688 236.6875 182.710938 240.730469 182.710938 C 245.058594 182.710938 248.597656 179.246094 248.597656 174.992188 L 248.597656 129.042969 C 248.597656 124.859375 245.058594 121.398438 240.730469 121.398438 Z M 302.296875 174.992188 C 302.296875 208.535156 274.652344 235.800781 240.730469 235.800781 C 214.386719 235.800781 191 219.28125 182.410156 194.613281 C 181.617188 192.375 182.84375 189.996094 185.007812 189.203125 C 187.246094 188.410156 189.628906 189.636719 190.421875 191.800781 C 197.785156 213.003906 217.921875 227.289062 240.65625 227.289062 C 269.886719 227.289062 293.707031 203.84375 293.707031 174.992188 L 293.707031 129.042969 C 293.707031 115.339844 288.363281 102.355469 278.550781 92.472656 C 276.890625 90.8125 276.890625 88.144531 278.550781 86.414062 C 280.210938 84.753906 282.953125 84.753906 284.613281 86.414062 C 295.945312 97.882812 302.222656 112.957031 302.222656 128.972656 L 302.222656 174.992188 Z M 302.296875 174.992188 " clip-rule="nonzero"/></clipPath><linearGradient x1="274.95001" gradientTransform="matrix(0.721758, 0, 0, 0.72132, 26.655505, -34.190557)" y1="47.399985" x2="274.95001" gradientUnits="userSpaceOnUse" y2="514.60001" id="bbd418dcd4"><stop stop-opacity="1" stop-color="rgb(7.058716%, 41.958618%, 100%)" offset="0"/><stop stop-opacity="1" stop-color="rgb(7.3349%, 41.836548%, 100%)" offset="0.00390625"/><stop stop-opacity="1" stop-color="rgb(7.611084%, 41.714478%, 100%)" offset="0.0078125"/><stop stop-opacity="1" stop-color="rgb(7.885742%, 41.590881%, 100%)" offset="0.0117188"/><stop stop-opacity="1" stop-color="rgb(8.161926%, 41.468811%, 100%)" offset="0.015625"/><stop stop-opacity="1" stop-color="rgb(8.43811%, 41.346741%, 100%)" offset="0.0195312"/><stop stop-opacity="1" stop-color="rgb(8.714294%, 41.22467%, 100%)" offset="0.0234375"/><stop stop-opacity="1" stop-color="rgb(8.988953%, 41.101074%, 100%)" offset="0.0273438"/><stop stop-opacity="1" stop-color="rgb(9.265137%, 40.979004%, 100%)" offset="0.03125"/><stop stop-opacity="1" stop-color="rgb(9.539795%, 40.855408%, 100%)" offset="0.0351562"/><stop stop-opacity="1" stop-color="rgb(9.815979%, 40.733337%, 100%)" offset="0.0390625"/><stop stop-opacity="1" stop-color="rgb(10.092163%, 40.611267%, 100%)" offset="0.0429688"/><stop stop-opacity="1" stop-color="rgb(10.368347%, 40.489197%, 100%)" offset="0.046875"/><stop stop-opacity="1" stop-color="rgb(10.643005%, 40.365601%, 100%)" offset="0.0507812"/><stop stop-opacity="1" stop-color="rgb(10.919189%, 40.24353%, 100%)" offset="0.0546875"/><stop stop-opacity="1" stop-color="rgb(11.195374%, 40.119934%, 100%)" offset="0.0585937"/><stop stop-opacity="1" stop-color="rgb(11.471558%, 39.997864%, 100%)" offset="0.0625"/><stop stop-opacity="1" stop-color="rgb(11.746216%, 39.875793%, 100%)" offset="0.0664062"/><stop stop-opacity="1" stop-color="rgb(12.0224%, 39.753723%, 100%)" offset="0.0703125"/><stop stop-opacity="1" stop-color="rgb(12.298584%, 39.630127%, 100%)" offset="0.0742187"/><stop stop-opacity="1" stop-color="rgb(12.574768%, 39.508057%, 100%)" offset="0.078125"/><stop stop-opacity="1" stop-color="rgb(12.849426%, 39.385986%, 100%)" offset="0.0820312"/><stop stop-opacity="1" stop-color="rgb(13.12561%, 39.263916%, 100%)" offset="0.0859375"/><stop stop-opacity="1" stop-color="rgb(13.400269%, 39.14032%, 100%)" offset="0.0898438"/><stop stop-opacity="1" stop-color="rgb(13.676453%, 39.01825%, 100%)" offset="0.09375"/><stop stop-opacity="1" stop-color="rgb(13.952637%, 38.894653%, 100%)" offset="0.0976562"/><stop stop-opacity="1" stop-color="rgb(14.228821%, 38.772583%, 100%)" offset="0.101562"/><stop stop-opacity="1" stop-color="rgb(14.503479%, 38.650513%, 100%)" offset="0.105469"/><stop stop-opacity="1" stop-color="rgb(14.779663%, 38.528442%, 100%)" offset="0.109375"/><stop stop-opacity="1" stop-color="rgb(15.055847%, 38.404846%, 100%)" offset="0.113281"/><stop stop-opacity="1" stop-color="rgb(15.332031%, 38.282776%, 100%)" offset="0.117188"/><stop stop-opacity="1" stop-color="rgb(15.606689%, 38.160706%, 100%)" offset="0.121094"/><stop stop-opacity="1" stop-color="rgb(15.882874%, 38.038635%, 100%)" offset="0.125"/><stop stop-opacity="1" stop-color="rgb(16.157532%, 37.915039%, 100%)" offset="0.128906"/><stop stop-opacity="1" stop-color="rgb(16.433716%, 37.792969%, 100%)" offset="0.132812"/><stop stop-opacity="1" stop-color="rgb(16.7099%, 37.669373%, 100%)" offset="0.136719"/><stop stop-opacity="1" stop-color="rgb(16.986084%, 37.547302%, 100%)" offset="0.140625"/><stop stop-opacity="1" stop-color="rgb(17.260742%, 37.425232%, 100%)" offset="0.144531"/><stop stop-opacity="1" stop-color="rgb(17.536926%, 37.303162%, 100%)" offset="0.148437"/><stop stop-opacity="1" stop-color="rgb(17.81311%, 37.179565%, 100%)" offset="0.152344"/><stop stop-opacity="1" stop-color="rgb(18.089294%, 37.057495%, 100%)" offset="0.15625"/><stop stop-opacity="1" stop-color="rgb(18.363953%, 36.935425%, 100%)" offset="0.160156"/><stop stop-opacity="1" stop-color="rgb(18.640137%, 36.813354%, 100%)" offset="0.164062"/><stop stop-opacity="1" stop-color="rgb(18.916321%, 36.689758%, 100%)" offset="0.167969"/><stop stop-opacity="1" stop-color="rgb(19.192505%, 36.567688%, 100%)" offset="0.171875"/><stop stop-opacity="1" stop-color="rgb(19.467163%, 36.444092%, 100%)" offset="0.175781"/><stop stop-opacity="1" stop-color="rgb(19.743347%, 36.322021%, 100%)" offset="0.179688"/><stop stop-opacity="1" stop-color="rgb(20.018005%, 36.199951%, 100%)" offset="0.183594"/><stop stop-opacity="1" stop-color="rgb(20.294189%, 36.077881%, 100%)" offset="0.1875"/><stop stop-opacity="1" stop-color="rgb(20.570374%, 35.954285%, 100%)" offset="0.191406"/><stop stop-opacity="1" stop-color="rgb(20.846558%, 35.832214%, 100%)" offset="0.195312"/><stop stop-opacity="1" stop-color="rgb(21.121216%, 35.708618%, 100%)" offset="0.199219"/><stop stop-opacity="1" stop-color="rgb(21.3974%, 35.586548%, 100%)" offset="0.203125"/><stop stop-opacity="1" stop-color="rgb(21.673584%, 35.464478%, 100%)" offset="0.207031"/><stop stop-opacity="1" stop-color="rgb(21.949768%, 35.342407%, 100%)" offset="0.210937"/><stop stop-opacity="1" stop-color="rgb(22.224426%, 35.218811%, 100%)" offset="0.214844"/><stop stop-opacity="1" stop-color="rgb(22.50061%, 35.096741%, 100%)" offset="0.21875"/><stop stop-opacity="1" stop-color="rgb(22.776794%, 34.97467%, 100%)" offset="0.222656"/><stop stop-opacity="1" stop-color="rgb(23.052979%, 34.8526%, 100%)" offset="0.226562"/><stop stop-opacity="1" stop-color="rgb(23.327637%, 34.729004%, 100%)" offset="0.230469"/><stop stop-opacity="1" stop-color="rgb(23.603821%, 34.606934%, 100%)" offset="0.234375"/><stop stop-opacity="1" stop-color="rgb(23.878479%, 34.483337%, 100%)" offset="0.238281"/><stop stop-opacity="1" stop-color="rgb(24.154663%, 34.361267%, 100%)" offset="0.242187"/><stop stop-opacity="1" stop-color="rgb(24.430847%, 34.239197%, 100%)" offset="0.246094"/><stop stop-opacity="1" stop-color="rgb(24.707031%, 34.117126%, 100%)" offset="0.25"/><stop stop-opacity="1" stop-color="rgb(24.981689%, 33.99353%, 100%)" offset="0.253906"/><stop stop-opacity="1" stop-color="rgb(25.257874%, 33.87146%, 100%)" offset="0.257812"/><stop stop-opacity="1" stop-color="rgb(25.534058%, 33.74939%, 100%)" offset="0.261719"/><stop stop-opacity="1" stop-color="rgb(25.810242%, 33.627319%, 100%)" offset="0.265625"/><stop stop-opacity="1" stop-color="rgb(26.0849%, 33.503723%, 100%)" offset="0.269531"/><stop stop-opacity="1" stop-color="rgb(26.361084%, 33.381653%, 100%)" offset="0.273438"/><stop stop-opacity="1" stop-color="rgb(26.635742%, 33.258057%, 100%)" offset="0.277344"/><stop stop-opacity="1" stop-color="rgb(26.911926%, 33.135986%, 100%)" offset="0.28125"/><stop stop-opacity="1" stop-color="rgb(27.18811%, 33.013916%, 100%)" offset="0.285156"/><stop stop-opacity="1" stop-color="rgb(27.464294%, 32.891846%, 100%)" offset="0.289062"/><stop stop-opacity="1" stop-color="rgb(27.738953%, 32.76825%, 100%)" offset="0.292969"/><stop stop-opacity="1" stop-color="rgb(28.015137%, 32.646179%, 100%)" offset="0.296875"/><stop stop-opacity="1" stop-color="rgb(28.291321%, 32.522583%, 100%)" offset="0.300781"/><stop stop-opacity="1" stop-color="rgb(28.567505%, 32.400513%, 100%)" offset="0.304688"/><stop stop-opacity="1" stop-color="rgb(28.842163%, 32.278442%, 100%)" offset="0.308594"/><stop stop-opacity="1" stop-color="rgb(29.118347%, 32.156372%, 100%)" offset="0.3125"/><stop stop-opacity="1" stop-color="rgb(29.394531%, 32.032776%, 100%)" offset="0.316406"/><stop stop-opacity="1" stop-color="rgb(29.670715%, 31.910706%, 100%)" offset="0.320313"/><stop stop-opacity="1" stop-color="rgb(29.945374%, 31.788635%, 100%)" offset="0.324219"/><stop stop-opacity="1" stop-color="rgb(30.221558%, 31.666565%, 100%)" offset="0.328125"/><stop stop-opacity="1" stop-color="rgb(30.496216%, 31.542969%, 100%)" offset="0.332031"/><stop stop-opacity="1" stop-color="rgb(30.7724%, 31.420898%, 100%)" offset="0.335938"/><stop stop-opacity="1" stop-color="rgb(31.048584%, 31.297302%, 100%)" offset="0.339844"/><stop stop-opacity="1" stop-color="rgb(31.324768%, 31.175232%, 100%)" offset="0.34375"/><stop stop-opacity="1" stop-color="rgb(31.599426%, 31.053162%, 100%)" offset="0.347656"/><stop stop-opacity="1" stop-color="rgb(31.87561%, 30.931091%, 100%)" offset="0.351563"/><stop stop-opacity="1" stop-color="rgb(32.151794%, 30.807495%, 100%)" offset="0.355469"/><stop stop-opacity="1" stop-color="rgb(32.427979%, 30.685425%, 100%)" offset="0.359375"/><stop stop-opacity="1" stop-color="rgb(32.702637%, 30.563354%, 100%)" offset="0.363281"/><stop stop-opacity="1" stop-color="rgb(32.978821%, 30.441284%, 100%)" offset="0.367188"/><stop stop-opacity="1" stop-color="rgb(33.255005%, 30.317688%, 100%)" offset="0.371094"/><stop stop-opacity="1" stop-color="rgb(33.531189%, 30.195618%, 100%)" offset="0.375"/><stop stop-opacity="1" stop-color="rgb(33.805847%, 30.072021%, 100%)" offset="0.378906"/><stop stop-opacity="1" stop-color="rgb(34.082031%, 29.949951%, 100%)" offset="0.382812"/><stop stop-opacity="1" stop-color="rgb(34.356689%, 29.827881%, 100%)" offset="0.386719"/><stop stop-opacity="1" stop-color="rgb(34.632874%, 29.705811%, 100%)" offset="0.390625"/><stop stop-opacity="1" stop-color="rgb(34.909058%, 29.582214%, 100%)" offset="0.394531"/><stop stop-opacity="1" stop-color="rgb(35.185242%, 29.460144%, 100%)" offset="0.398437"/><stop stop-opacity="1" stop-color="rgb(35.4599%, 29.336548%, 100%)" offset="0.402344"/><stop stop-opacity="1" stop-color="rgb(35.736084%, 29.214478%, 100%)" offset="0.40625"/><stop stop-opacity="1" stop-color="rgb(36.012268%, 29.092407%, 100%)" offset="0.410156"/><stop stop-opacity="1" stop-color="rgb(36.288452%, 28.970337%, 100%)" offset="0.414062"/><stop stop-opacity="1" stop-color="rgb(36.56311%, 28.846741%, 100%)" offset="0.417969"/><stop stop-opacity="1" stop-color="rgb(36.839294%, 28.72467%, 100%)" offset="0.421875"/><stop stop-opacity="1" stop-color="rgb(37.113953%, 28.6026%, 100%)" offset="0.425781"/><stop stop-opacity="1" stop-color="rgb(37.390137%, 28.48053%, 100%)" offset="0.429687"/><stop stop-opacity="1" stop-color="rgb(37.666321%, 28.356934%, 100%)" offset="0.433594"/><stop stop-opacity="1" stop-color="rgb(37.942505%, 28.234863%, 100%)" offset="0.4375"/><stop stop-opacity="1" stop-color="rgb(38.217163%, 28.111267%, 100%)" offset="0.441406"/><stop stop-opacity="1" stop-color="rgb(38.493347%, 27.989197%, 100%)" offset="0.445312"/><stop stop-opacity="1" stop-color="rgb(38.769531%, 27.867126%, 100%)" offset="0.449219"/><stop stop-opacity="1" stop-color="rgb(39.045715%, 27.745056%, 100%)" offset="0.453125"/><stop stop-opacity="1" stop-color="rgb(39.320374%, 27.62146%, 100%)" offset="0.457031"/><stop stop-opacity="1" stop-color="rgb(39.596558%, 27.49939%, 100%)" offset="0.460938"/><stop stop-opacity="1" stop-color="rgb(39.872742%, 27.377319%, 100%)" offset="0.464844"/><stop stop-opacity="1" stop-color="rgb(40.148926%, 27.255249%, 100%)" offset="0.46875"/><stop stop-opacity="1" stop-color="rgb(40.423584%, 27.131653%, 100%)" offset="0.472656"/><stop stop-opacity="1" stop-color="rgb(40.699768%, 27.009583%, 100%)" offset="0.476562"/><stop stop-opacity="1" stop-color="rgb(40.974426%, 26.885986%, 100%)" offset="0.480469"/><stop stop-opacity="1" stop-color="rgb(41.25061%, 26.763916%, 100%)" offset="0.484375"/><stop stop-opacity="1" stop-color="rgb(41.526794%, 26.641846%, 100%)" offset="0.488281"/><stop stop-opacity="1" stop-color="rgb(41.802979%, 26.519775%, 100%)" offset="0.492188"/><stop stop-opacity="1" stop-color="rgb(42.077637%, 26.396179%, 100%)" offset="0.496094"/><stop stop-opacity="1" stop-color="rgb(42.353821%, 26.274109%, 100%)" offset="0.5"/><stop stop-opacity="1" stop-color="rgb(42.630005%, 26.150513%, 100%)" offset="0.503906"/><stop stop-opacity="1" stop-color="rgb(42.906189%, 26.028442%, 100%)" offset="0.507812"/><stop stop-opacity="1" stop-color="rgb(43.180847%, 25.906372%, 100%)" offset="0.511719"/><stop stop-opacity="1" stop-color="rgb(43.457031%, 25.784302%, 100%)" offset="0.515625"/><stop stop-opacity="1" stop-color="rgb(43.733215%, 25.660706%, 100%)" offset="0.519531"/><stop stop-opacity="1" stop-color="rgb(44.009399%, 25.538635%, 100%)" offset="0.523438"/><stop stop-opacity="1" stop-color="rgb(44.284058%, 25.416565%, 100%)" offset="0.527344"/><stop stop-opacity="1" stop-color="rgb(44.560242%, 25.294495%, 100%)" offset="0.53125"/><stop stop-opacity="1" stop-color="rgb(44.8349%, 25.170898%, 100%)" offset="0.535156"/><stop stop-opacity="1" stop-color="rgb(45.111084%, 25.048828%, 100%)" offset="0.539062"/><stop stop-opacity="1" stop-color="rgb(45.387268%, 24.925232%, 100%)" offset="0.542969"/><stop stop-opacity="1" stop-color="rgb(45.663452%, 24.803162%, 100%)" offset="0.546875"/><stop stop-opacity="1" stop-color="rgb(45.93811%, 24.681091%, 100%)" offset="0.550781"/><stop stop-opacity="1" stop-color="rgb(46.214294%, 24.559021%, 100%)" offset="0.554688"/><stop stop-opacity="1" stop-color="rgb(46.490479%, 24.435425%, 100%)" offset="0.558594"/><stop stop-opacity="1" stop-color="rgb(46.766663%, 24.313354%, 100%)" offset="0.5625"/><stop stop-opacity="1" stop-color="rgb(47.041321%, 24.191284%, 100%)" offset="0.566406"/><stop stop-opacity="1" stop-color="rgb(47.317505%, 24.069214%, 100%)" offset="0.570312"/><stop stop-opacity="1" stop-color="rgb(47.592163%, 23.945618%, 100%)" offset="0.574219"/><stop stop-opacity="1" stop-color="rgb(47.868347%, 23.823547%, 100%)" offset="0.578125"/><stop stop-opacity="1" stop-color="rgb(48.144531%, 23.699951%, 100%)" offset="0.582031"/><stop stop-opacity="1" stop-color="rgb(48.420715%, 23.577881%, 100%)" offset="0.585938"/><stop stop-opacity="1" stop-color="rgb(48.695374%, 23.455811%, 100%)" offset="0.589844"/><stop stop-opacity="1" stop-color="rgb(48.971558%, 23.33374%, 100%)" offset="0.59375"/><stop stop-opacity="1" stop-color="rgb(49.247742%, 23.210144%, 100%)" offset="0.597656"/><stop stop-opacity="1" stop-color="rgb(49.523926%, 23.088074%, 100%)" offset="0.601562"/><stop stop-opacity="1" stop-color="rgb(49.798584%, 22.964478%, 100%)" offset="0.605469"/><stop stop-opacity="1" stop-color="rgb(50.074768%, 22.842407%, 100%)" offset="0.609375"/><stop stop-opacity="1" stop-color="rgb(50.350952%, 22.720337%, 100%)" offset="0.613281"/><stop stop-opacity="1" stop-color="rgb(50.627136%, 22.598267%, 100%)" offset="0.617188"/><stop stop-opacity="1" stop-color="rgb(50.901794%, 22.47467%, 100%)" offset="0.621094"/><stop stop-opacity="1" stop-color="rgb(51.177979%, 22.3526%, 100%)" offset="0.625"/><stop stop-opacity="1" stop-color="rgb(51.452637%, 22.23053%, 100%)" offset="0.628906"/><stop stop-opacity="1" stop-color="rgb(51.728821%, 22.108459%, 100%)" offset="0.632813"/><stop stop-opacity="1" stop-color="rgb(52.005005%, 21.984863%, 100%)" offset="0.636719"/><stop stop-opacity="1" stop-color="rgb(52.281189%, 21.862793%, 100%)" offset="0.640625"/><stop stop-opacity="1" stop-color="rgb(52.555847%, 21.739197%, 100%)" offset="0.644531"/><stop stop-opacity="1" stop-color="rgb(52.832031%, 21.617126%, 100%)" offset="0.648438"/><stop stop-opacity="1" stop-color="rgb(53.108215%, 21.495056%, 100%)" offset="0.652344"/><stop stop-opacity="1" stop-color="rgb(53.384399%, 21.372986%, 100%)" offset="0.65625"/><stop stop-opacity="1" stop-color="rgb(53.659058%, 21.24939%, 100%)" offset="0.660156"/><stop stop-opacity="1" stop-color="rgb(53.935242%, 21.127319%, 100%)" offset="0.664063"/><stop stop-opacity="1" stop-color="rgb(54.211426%, 21.005249%, 100%)" offset="0.667969"/><stop stop-opacity="1" stop-color="rgb(54.48761%, 20.883179%, 100%)" offset="0.671875"/><stop stop-opacity="1" stop-color="rgb(54.762268%, 20.759583%, 100%)" offset="0.675781"/><stop stop-opacity="1" stop-color="rgb(55.038452%, 20.637512%, 100%)" offset="0.679688"/><stop stop-opacity="1" stop-color="rgb(55.31311%, 20.513916%, 100%)" offset="0.683594"/><stop stop-opacity="1" stop-color="rgb(55.589294%, 20.391846%, 100%)" offset="0.6875"/><stop stop-opacity="1" stop-color="rgb(55.865479%, 20.269775%, 100%)" offset="0.691406"/><stop stop-opacity="1" stop-color="rgb(56.141663%, 20.147705%, 100%)" offset="0.695313"/><stop stop-opacity="1" stop-color="rgb(56.416321%, 20.024109%, 100%)" offset="0.699219"/><stop stop-opacity="1" stop-color="rgb(56.692505%, 19.902039%, 100%)" offset="0.703125"/><stop stop-opacity="1" stop-color="rgb(56.968689%, 19.778442%, 100%)" offset="0.707031"/><stop stop-opacity="1" stop-color="rgb(57.244873%, 19.656372%, 100%)" offset="0.710938"/><stop stop-opacity="1" stop-color="rgb(57.519531%, 19.534302%, 100%)" offset="0.714844"/><stop stop-opacity="1" stop-color="rgb(57.795715%, 19.412231%, 100%)" offset="0.71875"/><stop stop-opacity="1" stop-color="rgb(58.070374%, 19.288635%, 100%)" offset="0.722656"/><stop stop-opacity="1" stop-color="rgb(58.346558%, 19.166565%, 100%)" offset="0.726563"/><stop stop-opacity="1" stop-color="rgb(58.622742%, 19.044495%, 100%)" offset="0.730469"/><stop stop-opacity="1" stop-color="rgb(58.898926%, 18.922424%, 100%)" offset="0.734375"/><stop stop-opacity="1" stop-color="rgb(59.173584%, 18.798828%, 100%)" offset="0.738281"/><stop stop-opacity="1" stop-color="rgb(59.449768%, 18.676758%, 100%)" offset="0.742188"/><stop stop-opacity="1" stop-color="rgb(59.725952%, 18.553162%, 100%)" offset="0.746094"/><stop stop-opacity="1" stop-color="rgb(60.002136%, 18.431091%, 100%)" offset="0.75"/><stop stop-opacity="1" stop-color="rgb(60.276794%, 18.309021%, 100%)" offset="0.753906"/><stop stop-opacity="1" stop-color="rgb(60.552979%, 18.186951%, 100%)" offset="0.757812"/><stop stop-opacity="1" stop-color="rgb(60.829163%, 18.063354%, 100%)" offset="0.761719"/><stop stop-opacity="1" stop-color="rgb(61.105347%, 17.941284%, 100%)" offset="0.765625"/><stop stop-opacity="1" stop-color="rgb(61.380005%, 17.819214%, 100%)" offset="0.769531"/><stop stop-opacity="1" stop-color="rgb(61.656189%, 17.697144%, 100%)" offset="0.773437"/><stop stop-opacity="1" stop-color="rgb(61.930847%, 17.573547%, 100%)" offset="0.777344"/><stop stop-opacity="1" stop-color="rgb(62.207031%, 17.451477%, 100%)" offset="0.78125"/><stop stop-opacity="1" stop-color="rgb(62.483215%, 17.327881%, 100%)" offset="0.785156"/><stop stop-opacity="1" stop-color="rgb(62.759399%, 17.205811%, 100%)" offset="0.789062"/><stop stop-opacity="1" stop-color="rgb(63.034058%, 17.08374%, 100%)" offset="0.792969"/><stop stop-opacity="1" stop-color="rgb(63.310242%, 16.96167%, 100%)" offset="0.796875"/><stop stop-opacity="1" stop-color="rgb(63.586426%, 16.838074%, 100%)" offset="0.800781"/><stop stop-opacity="1" stop-color="rgb(63.86261%, 16.716003%, 100%)" offset="0.804687"/><stop stop-opacity="1" stop-color="rgb(64.137268%, 16.593933%, 100%)" offset="0.808594"/><stop stop-opacity="1" stop-color="rgb(64.413452%, 16.471863%, 100%)" offset="0.8125"/><stop stop-opacity="1" stop-color="rgb(64.689636%, 16.348267%, 100%)" offset="0.816406"/><stop stop-opacity="1" stop-color="rgb(64.96582%, 16.226196%, 100%)" offset="0.820312"/><stop stop-opacity="1" stop-color="rgb(65.240479%, 16.1026%, 100%)" offset="0.824219"/><stop stop-opacity="1" stop-color="rgb(65.516663%, 15.98053%, 100%)" offset="0.828125"/><stop stop-opacity="1" stop-color="rgb(65.791321%, 15.858459%, 100%)" offset="0.832031"/><stop stop-opacity="1" stop-color="rgb(66.067505%, 15.736389%, 100%)" offset="0.835937"/><stop stop-opacity="1" stop-color="rgb(66.343689%, 15.612793%, 100%)" offset="0.839844"/><stop stop-opacity="1" stop-color="rgb(66.619873%, 15.490723%, 100%)" offset="0.84375"/><stop stop-opacity="1" stop-color="rgb(66.894531%, 15.367126%, 100%)" offset="0.847656"/><stop stop-opacity="1" stop-color="rgb(67.170715%, 15.245056%, 100%)" offset="0.851562"/><stop stop-opacity="1" stop-color="rgb(67.446899%, 15.122986%, 100%)" offset="0.855469"/><stop stop-opacity="1" stop-color="rgb(67.723083%, 15.000916%, 100%)" offset="0.859375"/><stop stop-opacity="1" stop-color="rgb(67.997742%, 14.877319%, 100%)" offset="0.863281"/><stop stop-opacity="1" stop-color="rgb(68.273926%, 14.755249%, 100%)" offset="0.867187"/><stop stop-opacity="1" stop-color="rgb(68.548584%, 14.633179%, 100%)" offset="0.871094"/><stop stop-opacity="1" stop-color="rgb(68.824768%, 14.511108%, 100%)" offset="0.875"/><stop stop-opacity="1" stop-color="rgb(69.100952%, 14.387512%, 100%)" offset="0.878906"/><stop stop-opacity="1" stop-color="rgb(69.377136%, 14.265442%, 100%)" offset="0.882812"/><stop stop-opacity="1" stop-color="rgb(69.651794%, 14.141846%, 100%)" offset="0.886719"/><stop stop-opacity="1" stop-color="rgb(69.927979%, 14.019775%, 100%)" offset="0.890625"/><stop stop-opacity="1" stop-color="rgb(70.204163%, 13.897705%, 100%)" offset="0.894531"/><stop stop-opacity="1" stop-color="rgb(70.480347%, 13.775635%, 100%)" offset="0.898438"/><stop stop-opacity="1" stop-color="rgb(70.755005%, 13.652039%, 100%)" offset="0.902344"/><stop stop-opacity="1" stop-color="rgb(71.031189%, 13.529968%, 100%)" offset="0.90625"/><stop stop-opacity="1" stop-color="rgb(71.307373%, 13.407898%, 100%)" offset="0.910156"/><stop stop-opacity="1" stop-color="rgb(71.583557%, 13.285828%, 100%)" offset="0.914062"/><stop stop-opacity="1" stop-color="rgb(71.858215%, 13.162231%, 100%)" offset="0.917969"/><stop stop-opacity="1" stop-color="rgb(72.134399%, 13.040161%, 100%)" offset="0.921875"/><stop stop-opacity="1" stop-color="rgb(72.409058%, 12.916565%, 100%)" offset="0.925781"/><stop stop-opacity="1" stop-color="rgb(72.685242%, 12.794495%, 100%)" offset="0.929688"/><stop stop-opacity="1" stop-color="rgb(72.961426%, 12.672424%, 100%)" offset="0.933594"/><stop stop-opacity="1" stop-color="rgb(73.23761%, 12.550354%, 100%)" offset="0.9375"/><stop stop-opacity="1" stop-color="rgb(73.512268%, 12.426758%, 100%)" offset="0.941406"/><stop stop-opacity="1" stop-color="rgb(73.788452%, 12.304688%, 100%)" offset="0.945312"/><stop stop-opacity="1" stop-color="rgb(74.064636%, 12.181091%, 100%)" offset="0.949219"/><stop stop-opacity="1" stop-color="rgb(74.34082%, 12.059021%, 100%)" offset="0.953125"/><stop stop-opacity="1" stop-color="rgb(74.615479%, 11.936951%, 100%)" offset="0.957031"/><stop stop-opacity="1" stop-color="rgb(74.891663%, 11.81488%, 100%)" offset="0.960938"/><stop stop-opacity="1" stop-color="rgb(75.167847%, 11.691284%, 100%)" offset="0.964844"/><stop stop-opacity="1" stop-color="rgb(75.444031%, 11.569214%, 100%)" offset="0.96875"/><stop stop-opacity="1" stop-color="rgb(75.718689%, 11.447144%, 100%)" offset="0.972656"/><stop stop-opacity="1" stop-color="rgb(75.994873%, 11.325073%, 100%)" offset="0.976562"/><stop stop-opacity="1" stop-color="rgb(76.269531%, 11.201477%, 100%)" offset="0.980469"/><stop stop-opacity="1" stop-color="rgb(76.545715%, 11.079407%, 100%)" offset="0.984375"/><stop stop-opacity="1" stop-color="rgb(76.821899%, 10.955811%, 100%)" offset="0.988281"/><stop stop-opacity="1" stop-color="rgb(77.098083%, 10.83374%, 100%)" offset="0.992188"/><stop stop-opacity="1" stop-color="rgb(77.372742%, 10.71167%, 100%)" offset="0.996094"/><stop stop-opacity="1" stop-color="rgb(77.648926%, 10.5896%, 100%)" offset="1"/></linearGradient></defs><g clip-path="url(#c36579a13c)"><path fill="#ffffff" d="M 0.332031 0 L 449.667969 0 L 449.667969 337 L 0.332031 337 Z M 0.332031 0 " fill-opacity="1" fill-rule="nonzero"/><path fill="#ffffff" d="M 0.332031 0 L 449.667969 0 L 449.667969 337 L 0.332031 337 Z M 0.332031 0 " fill-opacity="1" fill-rule="nonzero"/></g><g fill="#000000" fill-opacity="1"><g transform="translate(110.651777, 47.829142)"><g><path d="M 0.6875 -5.578125 C 0.6875 -6.660156 0.929688 -7.632812 1.421875 -8.5 C 1.910156 -9.375 2.578125 -10.054688 3.421875 -10.546875 C 4.265625 -11.035156 5.207031 -11.28125 6.25 -11.28125 C 7.457031 -11.28125 8.515625 -10.984375 9.421875 -10.390625 C 10.328125 -9.804688 10.988281 -8.976562 11.40625 -7.90625 L 9.65625 -7.90625 C 9.351562 -8.570312 8.910156 -9.085938 8.328125 -9.453125 C 7.742188 -9.816406 7.050781 -10 6.25 -10 C 5.46875 -10 4.765625 -9.816406 4.140625 -9.453125 C 3.523438 -9.085938 3.039062 -8.570312 2.6875 -7.90625 C 2.34375 -7.25 2.171875 -6.472656 2.171875 -5.578125 C 2.171875 -4.691406 2.34375 -3.914062 2.6875 -3.25 C 3.039062 -2.582031 3.523438 -2.066406 4.140625 -1.703125 C 4.765625 -1.347656 5.46875 -1.171875 6.25 -1.171875 C 7.050781 -1.171875 7.742188 -1.347656 8.328125 -1.703125 C 8.910156 -2.054688 9.351562 -2.566406 9.65625 -3.234375 L 11.40625 -3.234375 C 10.988281 -2.171875 10.328125 -1.347656 9.421875 -0.765625 C 8.515625 -0.191406 7.457031 0.09375 6.25 0.09375 C 5.207031 0.09375 4.265625 -0.144531 3.421875 -0.625 C 2.578125 -1.113281 1.910156 -1.785156 1.421875 -2.640625 C 0.929688 -3.503906 0.6875 -4.484375 0.6875 -5.578125 Z M 0.6875 -5.578125 "/></g></g></g><g fill="#000000" fill-opacity="1"><g transform="translate(122.982542, 47.829142)"><g><path d="M 5.046875 0.140625 C 4.222656 0.140625 3.476562 -0.0390625 2.8125 -0.40625 C 2.15625 -0.78125 1.632812 -1.3125 1.25 -2 C 0.875 -2.6875 0.6875 -3.484375 0.6875 -4.390625 C 0.6875 -5.285156 0.878906 -6.078125 1.265625 -6.765625 C 1.660156 -7.453125 2.191406 -7.976562 2.859375 -8.34375 C 3.523438 -8.707031 4.273438 -8.890625 5.109375 -8.890625 C 5.941406 -8.890625 6.691406 -8.707031 7.359375 -8.34375 C 8.035156 -7.976562 8.566406 -7.453125 8.953125 -6.765625 C 9.335938 -6.085938 9.53125 -5.296875 9.53125 -4.390625 C 9.53125 -3.484375 9.328125 -2.6875 8.921875 -2 C 8.523438 -1.3125 7.988281 -0.78125 7.3125 -0.40625 C 6.632812 -0.0390625 5.878906 0.140625 5.046875 0.140625 Z M 5.046875 -1.140625 C 5.566406 -1.140625 6.054688 -1.257812 6.515625 -1.5 C 6.972656 -1.75 7.34375 -2.117188 7.625 -2.609375 C 7.90625 -3.097656 8.046875 -3.691406 8.046875 -4.390625 C 8.046875 -5.097656 7.90625 -5.695312 7.625 -6.1875 C 7.351562 -6.675781 6.992188 -7.039062 6.546875 -7.28125 C 6.097656 -7.519531 5.613281 -7.640625 5.09375 -7.640625 C 4.5625 -7.640625 4.070312 -7.519531 3.625 -7.28125 C 3.1875 -7.039062 2.832031 -6.675781 2.5625 -6.1875 C 2.300781 -5.695312 2.171875 -5.097656 2.171875 -4.390625 C 2.171875 -3.679688 2.300781 -3.082031 2.5625 -2.59375 C 2.820312 -2.101562 3.171875 -1.738281 3.609375 -1.5 C 4.046875 -1.257812 4.523438 -1.140625 5.046875 -1.140625 Z M 5.046875 -1.140625 "/></g></g></g><g fill="#000000" fill-opacity="1"><g transform="translate(133.204938, 47.829142)"><g><path d="M 4.84375 -8.890625 C 5.59375 -8.890625 6.253906 -8.722656 6.828125 -8.390625 C 7.398438 -8.066406 7.820312 -7.65625 8.09375 -7.15625 L 8.09375 -8.75 L 9.5625 -8.75 L 9.5625 0.1875 C 9.5625 0.988281 9.390625 1.695312 9.046875 2.3125 C 8.710938 2.9375 8.226562 3.425781 7.59375 3.78125 C 6.957031 4.132812 6.21875 4.3125 5.375 4.3125 C 4.226562 4.3125 3.269531 4.039062 2.5 3.5 C 1.738281 2.957031 1.289062 2.21875 1.15625 1.28125 L 2.59375 1.28125 C 2.75 1.8125 3.078125 2.238281 3.578125 2.5625 C 4.078125 2.882812 4.675781 3.046875 5.375 3.046875 C 6.175781 3.046875 6.828125 2.796875 7.328125 2.296875 C 7.835938 1.796875 8.09375 1.09375 8.09375 0.1875 L 8.09375 -1.640625 C 7.8125 -1.128906 7.382812 -0.703125 6.8125 -0.359375 C 6.25 -0.0234375 5.59375 0.140625 4.84375 0.140625 C 4.0625 0.140625 3.351562 -0.046875 2.71875 -0.421875 C 2.082031 -0.804688 1.582031 -1.34375 1.21875 -2.03125 C 0.863281 -2.726562 0.6875 -3.519531 0.6875 -4.40625 C 0.6875 -5.300781 0.863281 -6.085938 1.21875 -6.765625 C 1.582031 -7.441406 2.082031 -7.960938 2.71875 -8.328125 C 3.351562 -8.703125 4.0625 -8.890625 4.84375 -8.890625 Z M 8.09375 -4.390625 C 8.09375 -5.046875 7.957031 -5.617188 7.6875 -6.109375 C 7.425781 -6.597656 7.066406 -6.972656 6.609375 -7.234375 C 6.160156 -7.503906 5.664062 -7.640625 5.125 -7.640625 C 4.582031 -7.640625 4.085938 -7.507812 3.640625 -7.25 C 3.191406 -6.988281 2.832031 -6.613281 2.5625 -6.125 C 2.300781 -5.632812 2.171875 -5.0625 2.171875 -4.40625 C 2.171875 -3.738281 2.300781 -3.15625 2.5625 -2.65625 C 2.832031 -2.164062 3.191406 -1.789062 3.640625 -1.53125 C 4.085938 -1.269531 4.582031 -1.140625 5.125 -1.140625 C 5.664062 -1.140625 6.160156 -1.269531 6.609375 -1.53125 C 7.066406 -1.789062 7.425781 -2.164062 7.6875 -2.65625 C 7.957031 -3.15625 8.09375 -3.734375 8.09375 -4.390625 Z M 8.09375 -4.390625 "/></g></g></g><g fill="#000000" fill-opacity="1"><g transform="translate(144.002349, 47.829142)"><g><path d="M 5.5 -8.90625 C 6.5625 -8.90625 7.421875 -8.582031 8.078125 -7.9375 C 8.734375 -7.300781 9.0625 -6.375 9.0625 -5.15625 L 9.0625 0 L 7.640625 0 L 7.640625 -4.953125 C 7.640625 -5.828125 7.421875 -6.492188 6.984375 -6.953125 C 6.546875 -7.421875 5.945312 -7.65625 5.1875 -7.65625 C 4.425781 -7.65625 3.816406 -7.414062 3.359375 -6.9375 C 2.910156 -6.457031 2.6875 -5.757812 2.6875 -4.84375 L 2.6875 0 L 1.234375 0 L 1.234375 -8.75 L 2.6875 -8.75 L 2.6875 -7.5 C 2.96875 -7.945312 3.351562 -8.289062 3.84375 -8.53125 C 4.34375 -8.78125 4.894531 -8.90625 5.5 -8.90625 Z M 5.5 -8.90625 "/></g></g></g><g fill="#000000" fill-opacity="1"><g transform="translate(154.224746, 47.829142)"><g><path d="M 1.984375 -10.171875 C 1.703125 -10.171875 1.460938 -10.265625 1.265625 -10.453125 C 1.078125 -10.648438 0.984375 -10.882812 0.984375 -11.15625 C 0.984375 -11.4375 1.078125 -11.671875 1.265625 -11.859375 C 1.460938 -12.054688 1.703125 -12.15625 1.984375 -12.15625 C 2.242188 -12.15625 2.46875 -12.054688 2.65625 -11.859375 C 2.84375 -11.671875 2.9375 -11.4375 2.9375 -11.15625 C 2.9375 -10.882812 2.84375 -10.648438 2.65625 -10.453125 C 2.46875 -10.265625 2.242188 -10.171875 1.984375 -10.171875 Z M 2.6875 -8.75 L 2.6875 0 L 1.234375 0 L 1.234375 -8.75 Z M 2.6875 -8.75 "/></g></g></g><g fill="#000000" fill-opacity="1"><g transform="translate(158.153975, 47.829142)"><g><path d="M 5.046875 0.140625 C 4.222656 0.140625 3.476562 -0.0390625 2.8125 -0.40625 C 2.15625 -0.78125 1.632812 -1.3125 1.25 -2 C 0.875 -2.6875 0.6875 -3.484375 0.6875 -4.390625 C 0.6875 -5.285156 0.878906 -6.078125 1.265625 -6.765625 C 1.660156 -7.453125 2.191406 -7.976562 2.859375 -8.34375 C 3.523438 -8.707031 4.273438 -8.890625 5.109375 -8.890625 C 5.941406 -8.890625 6.691406 -8.707031 7.359375 -8.34375 C 8.035156 -7.976562 8.566406 -7.453125 8.953125 -6.765625 C 9.335938 -6.085938 9.53125 -5.296875 9.53125 -4.390625 C 9.53125 -3.484375 9.328125 -2.6875 8.921875 -2 C 8.523438 -1.3125 7.988281 -0.78125 7.3125 -0.40625 C 6.632812 -0.0390625 5.878906 0.140625 5.046875 0.140625 Z M 5.046875 -1.140625 C 5.566406 -1.140625 6.054688 -1.257812 6.515625 -1.5 C 6.972656 -1.75 7.34375 -2.117188 7.625 -2.609375 C 7.90625 -3.097656 8.046875 -3.691406 8.046875 -4.390625 C 8.046875 -5.097656 7.90625 -5.695312 7.625 -6.1875 C 7.351562 -6.675781 6.992188 -7.039062 6.546875 -7.28125 C 6.097656 -7.519531 5.613281 -7.640625 5.09375 -7.640625 C 4.5625 -7.640625 4.070312 -7.519531 3.625 -7.28125 C 3.1875 -7.039062 2.832031 -6.675781 2.5625 -6.1875 C 2.300781 -5.695312 2.171875 -5.097656 2.171875 -4.390625 C 2.171875 -3.679688 2.300781 -3.082031 2.5625 -2.59375 C 2.820312 -2.101562 3.171875 -1.738281 3.609375 -1.5 C 4.046875 -1.257812 4.523438 -1.140625 5.046875 -1.140625 Z M 5.046875 -1.140625 "/></g></g></g><g fill="#000000" fill-opacity="1"><g transform="translate(168.376372, 47.829142)"><g><path d="M 5.5 -8.90625 C 6.5625 -8.90625 7.421875 -8.582031 8.078125 -7.9375 C 8.734375 -7.300781 9.0625 -6.375 9.0625 -5.15625 L 9.0625 0 L 7.640625 0 L 7.640625 -4.953125 C 7.640625 -5.828125 7.421875 -6.492188 6.984375 -6.953125 C 6.546875 -7.421875 5.945312 -7.65625 5.1875 -7.65625 C 4.425781 -7.65625 3.816406 -7.414062 3.359375 -6.9375 C 2.910156 -6.457031 2.6875 -5.757812 2.6875 -4.84375 L 2.6875 0 L 1.234375 0 L 1.234375 -8.75 L 2.6875 -8.75 L 2.6875 -7.5 C 2.96875 -7.945312 3.351562 -8.289062 3.84375 -8.53125 C 4.34375 -8.78125 4.894531 -8.90625 5.5 -8.90625 Z M 5.5 -8.90625 "/></g></g></g><g fill="#000000" fill-opacity="1"><g transform="translate(178.598768, 47.829142)"><g><path d="M 1.984375 -10.171875 C 1.703125 -10.171875 1.460938 -10.265625 1.265625 -10.453125 C 1.078125 -10.648438 0.984375 -10.882812 0.984375 -11.15625 C 0.984375 -11.4375 1.078125 -11.671875 1.265625 -11.859375 C 1.460938 -12.054688 1.703125 -12.15625 1.984375 -12.15625 C 2.242188 -12.15625 2.46875 -12.054688 2.65625 -11.859375 C 2.84375 -11.671875 2.9375 -11.4375 2.9375 -11.15625 C 2.9375 -10.882812 2.84375 -10.648438 2.65625 -10.453125 C 2.46875 -10.265625 2.242188 -10.171875 1.984375 -10.171875 Z M 2.6875 -8.75 L 2.6875 0 L 1.234375 0 L 1.234375 -8.75 Z M 2.6875 -8.75 "/></g></g></g><g fill="#000000" fill-opacity="1"><g transform="translate(182.527998, 47.829142)"><g><path d="M 5.796875 0 L 3.71875 -3.25 L 1.71875 0 L 0.203125 0 L 3.03125 -4.34375 L 0.203125 -8.75 L 1.859375 -8.75 L 3.921875 -5.515625 L 5.90625 -8.75 L 7.421875 -8.75 L 4.609375 -4.421875 L 7.4375 0 Z M 5.796875 0 "/></g></g></g><g clip-path="url(#42e87df6d8)"><g clip-path="url(#460d59624a)"><path fill="url(#bbd418dcd4)" d="M 51.917969 0 L 51.917969 337 L 398.359375 337 L 398.359375 0 Z M 51.917969 0 " fill-rule="nonzero"/></g></g></svg>