<svg xmlns="http://www.w3.org/2000/svg" xmlns:xlink="http://www.w3.org/1999/xlink" width="600" zoomAndPan="magnify" viewBox="0 0 450 337.499995" height="450" preserveAspectRatio="xMidYMid meet" version="1.0"><defs><g/><clipPath id="b2debcfddb"><path d="M 0.332031 0 L 449.667969 0 L 449.667969 337 L 0.332031 337 Z M 0.332031 0 " clip-rule="nonzero"/></clipPath><clipPath id="83c2a89ab1"><path d="M 53.804688 2.015625 L 396 2.015625 L 396 335.269531 L 53.804688 335.269531 Z M 53.804688 2.015625 " clip-rule="nonzero"/></clipPath><clipPath id="bdf66ebe02"><path d="M 357.679688 2.015625 L 92.246094 2.015625 C 71.160156 2.015625 53.992188 19.203125 53.992188 40.320312 L 53.992188 264.4375 C 53.992188 285.554688 71.160156 302.742188 92.246094 302.742188 L 104.070312 302.742188 C 104.140625 302.742188 104.285156 302.742188 104.355469 302.742188 L 153.582031 302.742188 C 153.652344 302.742188 153.796875 302.742188 153.867188 302.742188 L 345.5 302.742188 C 345.570312 302.742188 345.710938 302.742188 345.785156 302.742188 L 357.609375 302.742188 C 378.695312 302.742188 395.863281 285.554688 395.863281 264.4375 L 395.863281 40.320312 C 395.9375 19.203125 378.765625 2.015625 357.679688 2.015625 Z M 373.996094 259.945312 C 373.996094 273.140625 363.238281 283.914062 350.058594 283.914062 L 110.910156 283.914062 C 97.660156 283.914062 86.972656 273.140625 86.972656 259.945312 L 86.972656 247.390625 C 80.703125 246.535156 75.933594 241.1875 75.933594 234.695312 L 75.933594 183.691406 C 75.933594 177.203125 80.777344 171.851562 86.972656 170.996094 L 86.972656 123.132812 C 80.703125 122.277344 75.933594 116.929688 75.933594 110.4375 L 75.933594 59.433594 C 75.933594 52.945312 80.777344 47.59375 86.972656 46.738281 L 86.972656 44.597656 C 86.972656 31.402344 97.730469 20.632812 110.910156 20.632812 L 350.058594 20.632812 C 363.238281 20.632812 373.996094 31.402344 373.996094 44.597656 Z M 350.058594 29.191406 L 110.910156 29.191406 C 102.363281 29.191406 95.378906 36.179688 95.378906 44.742188 L 95.378906 46.882812 C 101.648438 47.738281 106.421875 53.085938 106.421875 59.578125 L 106.421875 110.578125 C 106.421875 117.070312 101.578125 122.421875 95.378906 123.277344 L 95.378906 171.140625 C 101.648438 171.996094 106.421875 177.34375 106.421875 183.835938 L 106.421875 234.835938 C 106.421875 241.328125 101.578125 246.679688 95.378906 247.535156 L 95.378906 259.945312 C 95.378906 268.503906 102.363281 275.496094 110.910156 275.496094 L 350.058594 275.496094 C 358.605469 275.496094 365.589844 268.503906 365.589844 259.945312 L 365.589844 44.8125 C 365.589844 36.179688 358.679688 29.191406 350.058594 29.191406 Z M 321.136719 175.347656 C 321.136719 220.925781 284.089844 257.949219 238.640625 257.949219 C 193.191406 257.949219 156.148438 220.855469 156.148438 175.347656 L 156.148438 129.410156 C 156.148438 83.832031 193.191406 46.808594 238.640625 46.808594 C 284.089844 46.808594 321.136719 83.832031 321.136719 129.410156 Z M 88.683594 114.929688 C 86.261719 114.929688 84.339844 113.003906 84.339844 110.578125 L 84.339844 59.578125 C 84.339844 57.152344 86.332031 55.226562 88.683594 55.226562 L 93.671875 55.226562 C 96.09375 55.15625 98.015625 57.152344 98.015625 59.578125 L 98.015625 110.578125 C 98.015625 113.003906 96.019531 114.929688 93.671875 114.929688 Z M 93.671875 239.117188 L 88.683594 239.117188 C 86.261719 239.117188 84.339844 237.121094 84.339844 234.765625 L 84.339844 183.765625 C 84.339844 181.339844 86.332031 179.414062 88.683594 179.414062 L 93.671875 179.414062 C 96.09375 179.414062 98.015625 181.339844 98.015625 183.765625 L 98.015625 234.765625 C 98.015625 237.191406 96.019531 239.117188 93.671875 239.117188 Z M 335.453125 326.855469 L 306.390625 326.855469 L 301.757812 311.089844 L 340.085938 311.089844 Z M 143.539062 326.855469 L 114.472656 326.855469 L 109.839844 311.089844 L 148.167969 311.089844 Z M 373.710938 331.0625 C 373.710938 333.414062 371.855469 335.269531 369.507812 335.269531 L 80.417969 335.269531 C 78.070312 335.269531 76.214844 333.414062 76.214844 331.0625 C 76.214844 328.707031 78.070312 326.855469 80.417969 326.855469 L 369.578125 326.855469 C 371.855469 326.855469 373.710938 328.707031 373.710938 331.0625 Z M 238.640625 55.15625 C 197.75 55.15625 164.554688 88.46875 164.554688 129.339844 L 164.554688 175.277344 C 164.554688 216.21875 197.820312 249.460938 238.640625 249.460938 C 279.460938 249.460938 312.730469 216.148438 312.730469 175.277344 L 312.730469 129.410156 C 312.730469 88.46875 279.53125 55.15625 238.640625 55.15625 Z M 240.351562 69.492188 C 249.898438 69.492188 259.015625 71.632812 267.5625 75.839844 C 269.628906 76.839844 270.484375 79.40625 269.488281 81.476562 C 268.488281 83.546875 265.925781 84.402344 263.859375 83.402344 C 256.523438 79.765625 248.613281 77.910156 240.421875 77.910156 C 211.570312 77.910156 188.0625 101.09375 188.0625 129.625 L 188.0625 145.175781 C 188.0625 147.527344 186.210938 149.382812 183.859375 149.382812 C 181.507812 149.382812 179.65625 147.527344 179.65625 145.175781 L 179.65625 129.625 L 179.585938 129.625 C 179.585938 96.457031 206.867188 69.492188 240.351562 69.492188 Z M 176.164062 170.78125 C 176.164062 168.429688 178.015625 166.574219 180.367188 166.574219 C 192.265625 166.574219 201.953125 157.015625 201.953125 145.316406 L 201.953125 130.550781 C 201.953125 120.566406 205.730469 111.007812 212.640625 103.660156 C 219.621094 96.242188 228.953125 91.960938 238.996094 91.605469 C 249.613281 91.175781 259.65625 95.03125 267.277344 102.375 C 274.757812 109.652344 278.890625 119.28125 278.890625 129.695312 L 278.890625 174.207031 C 278.890625 195.175781 262.078125 212.652344 241.492188 213.152344 C 241.132812 213.152344 240.777344 213.152344 240.421875 213.152344 C 223.109375 213.152344 207.9375 201.738281 203.304688 185.191406 C 202.664062 182.980469 204.019531 180.625 206.226562 179.984375 C 208.4375 179.34375 210.785156 180.699219 211.429688 182.910156 C 215.0625 196.105469 227.3125 205.09375 241.207031 204.734375 C 257.304688 204.308594 270.414062 190.613281 270.414062 174.207031 L 270.414062 129.695312 C 270.414062 121.636719 267.207031 114.144531 261.367188 108.441406 C 255.382812 102.660156 247.546875 99.664062 239.210938 100.023438 C 223.253906 100.59375 210.289062 114.289062 210.289062 130.480469 L 210.289062 145.246094 C 210.289062 161.652344 196.824219 174.917969 180.296875 174.917969 C 178.015625 174.992188 176.164062 173.066406 176.164062 170.78125 Z M 240.351562 122.0625 C 236.078125 122.0625 232.585938 125.488281 232.585938 129.695312 L 232.585938 158.226562 C 232.585938 160.582031 230.734375 162.4375 228.382812 162.4375 C 226.03125 162.4375 224.179688 160.582031 224.179688 158.226562 L 224.179688 129.695312 C 224.179688 120.851562 231.445312 113.648438 240.351562 113.648438 C 249.253906 113.648438 256.523438 120.851562 256.523438 129.695312 L 256.523438 175.0625 C 256.523438 183.90625 249.253906 191.113281 240.351562 191.113281 C 232.015625 191.113281 224.964844 184.691406 224.25 176.488281 C 224.039062 174.136719 225.746094 172.136719 228.097656 171.921875 C 230.449219 171.710938 232.441406 173.421875 232.65625 175.777344 C 233.011719 179.699219 236.363281 182.695312 240.351562 182.695312 C 244.625 182.695312 248.117188 179.269531 248.117188 175.0625 L 248.117188 129.625 C 248.117188 125.488281 244.625 122.0625 240.351562 122.0625 Z M 301.117188 175.0625 C 301.117188 208.230469 273.832031 235.195312 240.351562 235.195312 C 214.347656 235.195312 191.265625 218.859375 182.789062 194.464844 C 182.007812 192.253906 183.21875 189.898438 185.355469 189.113281 C 187.5625 188.328125 189.914062 189.542969 190.699219 191.683594 C 197.964844 212.652344 217.839844 226.777344 240.28125 226.777344 C 269.132812 226.777344 292.640625 203.59375 292.640625 175.0625 L 292.640625 129.625 C 292.640625 116.070312 287.367188 103.230469 277.679688 93.460938 C 276.042969 91.820312 276.042969 89.179688 277.679688 87.46875 C 279.316406 85.828125 282.023438 85.828125 283.664062 87.46875 C 294.847656 98.808594 301.046875 113.71875 301.046875 129.554688 L 301.046875 175.0625 Z M 301.117188 175.0625 " clip-rule="nonzero"/></clipPath><linearGradient x1="274.95001" gradientTransform="matrix(0.712387, 0, 0, 0.713305, 29.056778, -31.796394)" y1="47.400008" x2="274.95001" gradientUnits="userSpaceOnUse" y2="514.600039" id="038d06939f"><stop stop-opacity="1" stop-color="rgb(7.058716%, 41.958618%, 100%)" offset="0"/><stop stop-opacity="1" stop-color="rgb(7.3349%, 41.836548%, 100%)" offset="0.00390625"/><stop stop-opacity="1" stop-color="rgb(7.611084%, 41.714478%, 100%)" offset="0.0078125"/><stop stop-opacity="1" stop-color="rgb(7.885742%, 41.590881%, 100%)" offset="0.0117188"/><stop stop-opacity="1" stop-color="rgb(8.161926%, 41.468811%, 100%)" offset="0.015625"/><stop stop-opacity="1" stop-color="rgb(8.43811%, 41.346741%, 100%)" offset="0.0195312"/><stop stop-opacity="1" stop-color="rgb(8.714294%, 41.22467%, 100%)" offset="0.0234375"/><stop stop-opacity="1" stop-color="rgb(8.988953%, 41.101074%, 100%)" offset="0.0273438"/><stop stop-opacity="1" stop-color="rgb(9.265137%, 40.979004%, 100%)" offset="0.03125"/><stop stop-opacity="1" stop-color="rgb(9.539795%, 40.855408%, 100%)" offset="0.0351563"/><stop stop-opacity="1" stop-color="rgb(9.815979%, 40.733337%, 100%)" offset="0.0390625"/><stop stop-opacity="1" stop-color="rgb(10.092163%, 40.611267%, 100%)" offset="0.0429688"/><stop stop-opacity="1" stop-color="rgb(10.368347%, 40.489197%, 100%)" offset="0.046875"/><stop stop-opacity="1" stop-color="rgb(10.643005%, 40.365601%, 100%)" offset="0.0507813"/><stop stop-opacity="1" stop-color="rgb(10.919189%, 40.24353%, 100%)" offset="0.0546875"/><stop stop-opacity="1" stop-color="rgb(11.195374%, 40.119934%, 100%)" offset="0.0585938"/><stop stop-opacity="1" stop-color="rgb(11.471558%, 39.997864%, 100%)" offset="0.0625"/><stop stop-opacity="1" stop-color="rgb(11.746216%, 39.875793%, 100%)" offset="0.0664062"/><stop stop-opacity="1" stop-color="rgb(12.0224%, 39.753723%, 100%)" offset="0.0703125"/><stop stop-opacity="1" stop-color="rgb(12.298584%, 39.630127%, 100%)" offset="0.0742188"/><stop stop-opacity="1" stop-color="rgb(12.574768%, 39.508057%, 100%)" offset="0.078125"/><stop stop-opacity="1" stop-color="rgb(12.849426%, 39.385986%, 100%)" offset="0.0820313"/><stop stop-opacity="1" stop-color="rgb(13.12561%, 39.263916%, 100%)" offset="0.0859375"/><stop stop-opacity="1" stop-color="rgb(13.400269%, 39.14032%, 100%)" offset="0.0898438"/><stop stop-opacity="1" stop-color="rgb(13.676453%, 39.01825%, 100%)" offset="0.09375"/><stop stop-opacity="1" stop-color="rgb(13.952637%, 38.894653%, 100%)" offset="0.0976562"/><stop stop-opacity="1" stop-color="rgb(14.228821%, 38.772583%, 100%)" offset="0.101562"/><stop stop-opacity="1" stop-color="rgb(14.503479%, 38.650513%, 100%)" offset="0.105469"/><stop stop-opacity="1" stop-color="rgb(14.779663%, 38.528442%, 100%)" offset="0.109375"/><stop stop-opacity="1" stop-color="rgb(15.055847%, 38.404846%, 100%)" offset="0.113281"/><stop stop-opacity="1" stop-color="rgb(15.332031%, 38.282776%, 100%)" offset="0.117188"/><stop stop-opacity="1" stop-color="rgb(15.606689%, 38.160706%, 100%)" offset="0.121094"/><stop stop-opacity="1" stop-color="rgb(15.882874%, 38.038635%, 100%)" offset="0.125"/><stop stop-opacity="1" stop-color="rgb(16.157532%, 37.915039%, 100%)" offset="0.128906"/><stop stop-opacity="1" stop-color="rgb(16.433716%, 37.792969%, 100%)" offset="0.132812"/><stop stop-opacity="1" stop-color="rgb(16.7099%, 37.669373%, 100%)" offset="0.136719"/><stop stop-opacity="1" stop-color="rgb(16.986084%, 37.547302%, 100%)" offset="0.140625"/><stop stop-opacity="1" stop-color="rgb(17.260742%, 37.425232%, 100%)" offset="0.144531"/><stop stop-opacity="1" stop-color="rgb(17.536926%, 37.303162%, 100%)" offset="0.148438"/><stop stop-opacity="1" stop-color="rgb(17.81311%, 37.179565%, 100%)" offset="0.152344"/><stop stop-opacity="1" stop-color="rgb(18.089294%, 37.057495%, 100%)" offset="0.15625"/><stop stop-opacity="1" stop-color="rgb(18.363953%, 36.935425%, 100%)" offset="0.160156"/><stop stop-opacity="1" stop-color="rgb(18.640137%, 36.813354%, 100%)" offset="0.164062"/><stop stop-opacity="1" stop-color="rgb(18.916321%, 36.689758%, 100%)" offset="0.167969"/><stop stop-opacity="1" stop-color="rgb(19.192505%, 36.567688%, 100%)" offset="0.171875"/><stop stop-opacity="1" stop-color="rgb(19.467163%, 36.444092%, 100%)" offset="0.175781"/><stop stop-opacity="1" stop-color="rgb(19.743347%, 36.322021%, 100%)" offset="0.179688"/><stop stop-opacity="1" stop-color="rgb(20.018005%, 36.199951%, 100%)" offset="0.183594"/><stop stop-opacity="1" stop-color="rgb(20.294189%, 36.077881%, 100%)" offset="0.1875"/><stop stop-opacity="1" stop-color="rgb(20.570374%, 35.954285%, 100%)" offset="0.191406"/><stop stop-opacity="1" stop-color="rgb(20.846558%, 35.832214%, 100%)" offset="0.195312"/><stop stop-opacity="1" stop-color="rgb(21.121216%, 35.708618%, 100%)" offset="0.199219"/><stop stop-opacity="1" stop-color="rgb(21.3974%, 35.586548%, 100%)" offset="0.203125"/><stop stop-opacity="1" stop-color="rgb(21.673584%, 35.464478%, 100%)" offset="0.207031"/><stop stop-opacity="1" stop-color="rgb(21.949768%, 35.342407%, 100%)" offset="0.210938"/><stop stop-opacity="1" stop-color="rgb(22.224426%, 35.218811%, 100%)" offset="0.214844"/><stop stop-opacity="1" stop-color="rgb(22.50061%, 35.096741%, 100%)" offset="0.21875"/><stop stop-opacity="1" stop-color="rgb(22.776794%, 34.97467%, 100%)" offset="0.222656"/><stop stop-opacity="1" stop-color="rgb(23.052979%, 34.8526%, 100%)" offset="0.226563"/><stop stop-opacity="1" stop-color="rgb(23.327637%, 34.729004%, 100%)" offset="0.230469"/><stop stop-opacity="1" stop-color="rgb(23.603821%, 34.606934%, 100%)" offset="0.234375"/><stop stop-opacity="1" stop-color="rgb(23.878479%, 34.483337%, 100%)" offset="0.238281"/><stop stop-opacity="1" stop-color="rgb(24.154663%, 34.361267%, 100%)" offset="0.242188"/><stop stop-opacity="1" stop-color="rgb(24.430847%, 34.239197%, 100%)" offset="0.246094"/><stop stop-opacity="1" stop-color="rgb(24.707031%, 34.117126%, 100%)" offset="0.25"/><stop stop-opacity="1" stop-color="rgb(24.981689%, 33.99353%, 100%)" offset="0.253906"/><stop stop-opacity="1" stop-color="rgb(25.257874%, 33.87146%, 100%)" offset="0.257813"/><stop stop-opacity="1" stop-color="rgb(25.534058%, 33.74939%, 100%)" offset="0.261719"/><stop stop-opacity="1" stop-color="rgb(25.810242%, 33.627319%, 100%)" offset="0.265625"/><stop stop-opacity="1" stop-color="rgb(26.0849%, 33.503723%, 100%)" offset="0.269531"/><stop stop-opacity="1" stop-color="rgb(26.361084%, 33.381653%, 100%)" offset="0.273438"/><stop stop-opacity="1" stop-color="rgb(26.635742%, 33.258057%, 100%)" offset="0.277344"/><stop stop-opacity="1" stop-color="rgb(26.911926%, 33.135986%, 100%)" offset="0.28125"/><stop stop-opacity="1" stop-color="rgb(27.18811%, 33.013916%, 100%)" offset="0.285156"/><stop stop-opacity="1" stop-color="rgb(27.464294%, 32.891846%, 100%)" offset="0.289063"/><stop stop-opacity="1" stop-color="rgb(27.738953%, 32.76825%, 100%)" offset="0.292969"/><stop stop-opacity="1" stop-color="rgb(28.015137%, 32.646179%, 100%)" offset="0.296875"/><stop stop-opacity="1" stop-color="rgb(28.291321%, 32.522583%, 100%)" offset="0.300781"/><stop stop-opacity="1" stop-color="rgb(28.567505%, 32.400513%, 100%)" offset="0.304688"/><stop stop-opacity="1" stop-color="rgb(28.842163%, 32.278442%, 100%)" offset="0.308594"/><stop stop-opacity="1" stop-color="rgb(29.118347%, 32.156372%, 100%)" offset="0.3125"/><stop stop-opacity="1" stop-color="rgb(29.394531%, 32.032776%, 100%)" offset="0.316406"/><stop stop-opacity="1" stop-color="rgb(29.670715%, 31.910706%, 100%)" offset="0.320313"/><stop stop-opacity="1" stop-color="rgb(29.945374%, 31.788635%, 100%)" offset="0.324219"/><stop stop-opacity="1" stop-color="rgb(30.221558%, 31.666565%, 100%)" offset="0.328125"/><stop stop-opacity="1" stop-color="rgb(30.496216%, 31.542969%, 100%)" offset="0.332031"/><stop stop-opacity="1" stop-color="rgb(30.7724%, 31.420898%, 100%)" offset="0.335938"/><stop stop-opacity="1" stop-color="rgb(31.048584%, 31.297302%, 100%)" offset="0.339844"/><stop stop-opacity="1" stop-color="rgb(31.324768%, 31.175232%, 100%)" offset="0.34375"/><stop stop-opacity="1" stop-color="rgb(31.599426%, 31.053162%, 100%)" offset="0.347656"/><stop stop-opacity="1" stop-color="rgb(31.87561%, 30.931091%, 100%)" offset="0.351563"/><stop stop-opacity="1" stop-color="rgb(32.151794%, 30.807495%, 100%)" offset="0.355469"/><stop stop-opacity="1" stop-color="rgb(32.427979%, 30.685425%, 100%)" offset="0.359375"/><stop stop-opacity="1" stop-color="rgb(32.702637%, 30.563354%, 100%)" offset="0.363281"/><stop stop-opacity="1" stop-color="rgb(32.978821%, 30.441284%, 100%)" offset="0.367188"/><stop stop-opacity="1" stop-color="rgb(33.255005%, 30.317688%, 100%)" offset="0.371094"/><stop stop-opacity="1" stop-color="rgb(33.531189%, 30.195618%, 100%)" offset="0.375"/><stop stop-opacity="1" stop-color="rgb(33.805847%, 30.072021%, 100%)" offset="0.378906"/><stop stop-opacity="1" stop-color="rgb(34.082031%, 29.949951%, 100%)" offset="0.382813"/><stop stop-opacity="1" stop-color="rgb(34.356689%, 29.827881%, 100%)" offset="0.386719"/><stop stop-opacity="1" stop-color="rgb(34.632874%, 29.705811%, 100%)" offset="0.390625"/><stop stop-opacity="1" stop-color="rgb(34.909058%, 29.582214%, 100%)" offset="0.394531"/><stop stop-opacity="1" stop-color="rgb(35.185242%, 29.460144%, 100%)" offset="0.398438"/><stop stop-opacity="1" stop-color="rgb(35.4599%, 29.336548%, 100%)" offset="0.402344"/><stop stop-opacity="1" stop-color="rgb(35.736084%, 29.214478%, 100%)" offset="0.40625"/><stop stop-opacity="1" stop-color="rgb(36.012268%, 29.092407%, 100%)" offset="0.410156"/><stop stop-opacity="1" stop-color="rgb(36.288452%, 28.970337%, 100%)" offset="0.414063"/><stop stop-opacity="1" stop-color="rgb(36.56311%, 28.846741%, 100%)" offset="0.417969"/><stop stop-opacity="1" stop-color="rgb(36.839294%, 28.72467%, 100%)" offset="0.421875"/><stop stop-opacity="1" stop-color="rgb(37.113953%, 28.6026%, 100%)" offset="0.425781"/><stop stop-opacity="1" stop-color="rgb(37.390137%, 28.48053%, 100%)" offset="0.429688"/><stop stop-opacity="1" stop-color="rgb(37.666321%, 28.356934%, 100%)" offset="0.433594"/><stop stop-opacity="1" stop-color="rgb(37.942505%, 28.234863%, 100%)" offset="0.4375"/><stop stop-opacity="1" stop-color="rgb(38.217163%, 28.111267%, 100%)" offset="0.441406"/><stop stop-opacity="1" stop-color="rgb(38.493347%, 27.989197%, 100%)" offset="0.445313"/><stop stop-opacity="1" stop-color="rgb(38.769531%, 27.867126%, 100%)" offset="0.449219"/><stop stop-opacity="1" stop-color="rgb(39.045715%, 27.745056%, 100%)" offset="0.453125"/><stop stop-opacity="1" stop-color="rgb(39.320374%, 27.62146%, 100%)" offset="0.457031"/><stop stop-opacity="1" stop-color="rgb(39.596558%, 27.49939%, 100%)" offset="0.460938"/><stop stop-opacity="1" stop-color="rgb(39.872742%, 27.377319%, 100%)" offset="0.464844"/><stop stop-opacity="1" stop-color="rgb(40.148926%, 27.255249%, 100%)" offset="0.46875"/><stop stop-opacity="1" stop-color="rgb(40.423584%, 27.131653%, 100%)" offset="0.472656"/><stop stop-opacity="1" stop-color="rgb(40.699768%, 27.009583%, 100%)" offset="0.476563"/><stop stop-opacity="1" stop-color="rgb(40.974426%, 26.885986%, 100%)" offset="0.480469"/><stop stop-opacity="1" stop-color="rgb(41.25061%, 26.763916%, 100%)" offset="0.484375"/><stop stop-opacity="1" stop-color="rgb(41.526794%, 26.641846%, 100%)" offset="0.488281"/><stop stop-opacity="1" stop-color="rgb(41.802979%, 26.519775%, 100%)" offset="0.492188"/><stop stop-opacity="1" stop-color="rgb(42.077637%, 26.396179%, 100%)" offset="0.496094"/><stop stop-opacity="1" stop-color="rgb(42.353821%, 26.274109%, 100%)" offset="0.5"/><stop stop-opacity="1" stop-color="rgb(42.630005%, 26.150513%, 100%)" offset="0.503906"/><stop stop-opacity="1" stop-color="rgb(42.906189%, 26.028442%, 100%)" offset="0.507812"/><stop stop-opacity="1" stop-color="rgb(43.180847%, 25.906372%, 100%)" offset="0.511719"/><stop stop-opacity="1" stop-color="rgb(43.457031%, 25.784302%, 100%)" offset="0.515625"/><stop stop-opacity="1" stop-color="rgb(43.733215%, 25.660706%, 100%)" offset="0.519531"/><stop stop-opacity="1" stop-color="rgb(44.009399%, 25.538635%, 100%)" offset="0.523438"/><stop stop-opacity="1" stop-color="rgb(44.284058%, 25.416565%, 100%)" offset="0.527344"/><stop stop-opacity="1" stop-color="rgb(44.560242%, 25.294495%, 100%)" offset="0.53125"/><stop stop-opacity="1" stop-color="rgb(44.8349%, 25.170898%, 100%)" offset="0.535156"/><stop stop-opacity="1" stop-color="rgb(45.111084%, 25.048828%, 100%)" offset="0.539063"/><stop stop-opacity="1" stop-color="rgb(45.387268%, 24.925232%, 100%)" offset="0.542969"/><stop stop-opacity="1" stop-color="rgb(45.663452%, 24.803162%, 100%)" offset="0.546875"/><stop stop-opacity="1" stop-color="rgb(45.93811%, 24.681091%, 100%)" offset="0.550781"/><stop stop-opacity="1" stop-color="rgb(46.214294%, 24.559021%, 100%)" offset="0.554688"/><stop stop-opacity="1" stop-color="rgb(46.490479%, 24.435425%, 100%)" offset="0.558594"/><stop stop-opacity="1" stop-color="rgb(46.766663%, 24.313354%, 100%)" offset="0.5625"/><stop stop-opacity="1" stop-color="rgb(47.041321%, 24.191284%, 100%)" offset="0.566406"/><stop stop-opacity="1" stop-color="rgb(47.317505%, 24.069214%, 100%)" offset="0.570313"/><stop stop-opacity="1" stop-color="rgb(47.592163%, 23.945618%, 100%)" offset="0.574219"/><stop stop-opacity="1" stop-color="rgb(47.868347%, 23.823547%, 100%)" offset="0.578125"/><stop stop-opacity="1" stop-color="rgb(48.144531%, 23.699951%, 100%)" offset="0.582031"/><stop stop-opacity="1" stop-color="rgb(48.420715%, 23.577881%, 100%)" offset="0.585938"/><stop stop-opacity="1" stop-color="rgb(48.695374%, 23.455811%, 100%)" offset="0.589844"/><stop stop-opacity="1" stop-color="rgb(48.971558%, 23.33374%, 100%)" offset="0.59375"/><stop stop-opacity="1" stop-color="rgb(49.247742%, 23.210144%, 100%)" offset="0.597656"/><stop stop-opacity="1" stop-color="rgb(49.523926%, 23.088074%, 100%)" offset="0.601563"/><stop stop-opacity="1" stop-color="rgb(49.798584%, 22.964478%, 100%)" offset="0.605469"/><stop stop-opacity="1" stop-color="rgb(50.074768%, 22.842407%, 100%)" offset="0.609375"/><stop stop-opacity="1" stop-color="rgb(50.350952%, 22.720337%, 100%)" offset="0.613281"/><stop stop-opacity="1" stop-color="rgb(50.627136%, 22.598267%, 100%)" offset="0.617188"/><stop stop-opacity="1" stop-color="rgb(50.901794%, 22.47467%, 100%)" offset="0.621094"/><stop stop-opacity="1" stop-color="rgb(51.177979%, 22.3526%, 100%)" offset="0.625"/><stop stop-opacity="1" stop-color="rgb(51.452637%, 22.23053%, 100%)" offset="0.628906"/><stop stop-opacity="1" stop-color="rgb(51.728821%, 22.108459%, 100%)" offset="0.632813"/><stop stop-opacity="1" stop-color="rgb(52.005005%, 21.984863%, 100%)" offset="0.636719"/><stop stop-opacity="1" stop-color="rgb(52.281189%, 21.862793%, 100%)" offset="0.640625"/><stop stop-opacity="1" stop-color="rgb(52.555847%, 21.739197%, 100%)" offset="0.644531"/><stop stop-opacity="1" stop-color="rgb(52.832031%, 21.617126%, 100%)" offset="0.648438"/><stop stop-opacity="1" stop-color="rgb(53.108215%, 21.495056%, 100%)" offset="0.652344"/><stop stop-opacity="1" stop-color="rgb(53.384399%, 21.372986%, 100%)" offset="0.65625"/><stop stop-opacity="1" stop-color="rgb(53.659058%, 21.24939%, 100%)" offset="0.660156"/><stop stop-opacity="1" stop-color="rgb(53.935242%, 21.127319%, 100%)" offset="0.664063"/><stop stop-opacity="1" stop-color="rgb(54.211426%, 21.005249%, 100%)" offset="0.667969"/><stop stop-opacity="1" stop-color="rgb(54.48761%, 20.883179%, 100%)" offset="0.671875"/><stop stop-opacity="1" stop-color="rgb(54.762268%, 20.759583%, 100%)" offset="0.675781"/><stop stop-opacity="1" stop-color="rgb(55.038452%, 20.637512%, 100%)" offset="0.679688"/><stop stop-opacity="1" stop-color="rgb(55.31311%, 20.513916%, 100%)" offset="0.683594"/><stop stop-opacity="1" stop-color="rgb(55.589294%, 20.391846%, 100%)" offset="0.6875"/><stop stop-opacity="1" stop-color="rgb(55.865479%, 20.269775%, 100%)" offset="0.691406"/><stop stop-opacity="1" stop-color="rgb(56.141663%, 20.147705%, 100%)" offset="0.695313"/><stop stop-opacity="1" stop-color="rgb(56.416321%, 20.024109%, 100%)" offset="0.699219"/><stop stop-opacity="1" stop-color="rgb(56.692505%, 19.902039%, 100%)" offset="0.703125"/><stop stop-opacity="1" stop-color="rgb(56.968689%, 19.778442%, 100%)" offset="0.707031"/><stop stop-opacity="1" stop-color="rgb(57.244873%, 19.656372%, 100%)" offset="0.710938"/><stop stop-opacity="1" stop-color="rgb(57.519531%, 19.534302%, 100%)" offset="0.714844"/><stop stop-opacity="1" stop-color="rgb(57.795715%, 19.412231%, 100%)" offset="0.71875"/><stop stop-opacity="1" stop-color="rgb(58.070374%, 19.288635%, 100%)" offset="0.722656"/><stop stop-opacity="1" stop-color="rgb(58.346558%, 19.166565%, 100%)" offset="0.726563"/><stop stop-opacity="1" stop-color="rgb(58.622742%, 19.044495%, 100%)" offset="0.730469"/><stop stop-opacity="1" stop-color="rgb(58.898926%, 18.922424%, 100%)" offset="0.734375"/><stop stop-opacity="1" stop-color="rgb(59.173584%, 18.798828%, 100%)" offset="0.738281"/><stop stop-opacity="1" stop-color="rgb(59.449768%, 18.676758%, 100%)" offset="0.742188"/><stop stop-opacity="1" stop-color="rgb(59.725952%, 18.553162%, 100%)" offset="0.746094"/><stop stop-opacity="1" stop-color="rgb(60.002136%, 18.431091%, 100%)" offset="0.75"/><stop stop-opacity="1" stop-color="rgb(60.276794%, 18.309021%, 100%)" offset="0.753906"/><stop stop-opacity="1" stop-color="rgb(60.552979%, 18.186951%, 100%)" offset="0.757813"/><stop stop-opacity="1" stop-color="rgb(60.829163%, 18.063354%, 100%)" offset="0.761719"/><stop stop-opacity="1" stop-color="rgb(61.105347%, 17.941284%, 100%)" offset="0.765625"/><stop stop-opacity="1" stop-color="rgb(61.380005%, 17.819214%, 100%)" offset="0.769531"/><stop stop-opacity="1" stop-color="rgb(61.656189%, 17.697144%, 100%)" offset="0.773438"/><stop stop-opacity="1" stop-color="rgb(61.930847%, 17.573547%, 100%)" offset="0.777344"/><stop stop-opacity="1" stop-color="rgb(62.207031%, 17.451477%, 100%)" offset="0.78125"/><stop stop-opacity="1" stop-color="rgb(62.483215%, 17.327881%, 100%)" offset="0.785156"/><stop stop-opacity="1" stop-color="rgb(62.759399%, 17.205811%, 100%)" offset="0.789063"/><stop stop-opacity="1" stop-color="rgb(63.034058%, 17.08374%, 100%)" offset="0.792969"/><stop stop-opacity="1" stop-color="rgb(63.310242%, 16.96167%, 100%)" offset="0.796875"/><stop stop-opacity="1" stop-color="rgb(63.586426%, 16.838074%, 100%)" offset="0.800781"/><stop stop-opacity="1" stop-color="rgb(63.86261%, 16.716003%, 100%)" offset="0.804688"/><stop stop-opacity="1" stop-color="rgb(64.137268%, 16.593933%, 100%)" offset="0.808594"/><stop stop-opacity="1" stop-color="rgb(64.413452%, 16.471863%, 100%)" offset="0.8125"/><stop stop-opacity="1" stop-color="rgb(64.689636%, 16.348267%, 100%)" offset="0.816406"/><stop stop-opacity="1" stop-color="rgb(64.96582%, 16.226196%, 100%)" offset="0.820313"/><stop stop-opacity="1" stop-color="rgb(65.240479%, 16.1026%, 100%)" offset="0.824219"/><stop stop-opacity="1" stop-color="rgb(65.516663%, 15.98053%, 100%)" offset="0.828125"/><stop stop-opacity="1" stop-color="rgb(65.791321%, 15.858459%, 100%)" offset="0.832031"/><stop stop-opacity="1" stop-color="rgb(66.067505%, 15.736389%, 100%)" offset="0.835938"/><stop stop-opacity="1" stop-color="rgb(66.343689%, 15.612793%, 100%)" offset="0.839844"/><stop stop-opacity="1" stop-color="rgb(66.619873%, 15.490723%, 100%)" offset="0.84375"/><stop stop-opacity="1" stop-color="rgb(66.894531%, 15.367126%, 100%)" offset="0.847656"/><stop stop-opacity="1" stop-color="rgb(67.170715%, 15.245056%, 100%)" offset="0.851563"/><stop stop-opacity="1" stop-color="rgb(67.446899%, 15.122986%, 100%)" offset="0.855469"/><stop stop-opacity="1" stop-color="rgb(67.723083%, 15.000916%, 100%)" offset="0.859375"/><stop stop-opacity="1" stop-color="rgb(67.997742%, 14.877319%, 100%)" offset="0.863281"/><stop stop-opacity="1" stop-color="rgb(68.273926%, 14.755249%, 100%)" offset="0.867188"/><stop stop-opacity="1" stop-color="rgb(68.548584%, 14.633179%, 100%)" offset="0.871094"/><stop stop-opacity="1" stop-color="rgb(68.824768%, 14.511108%, 100%)" offset="0.875"/><stop stop-opacity="1" stop-color="rgb(69.100952%, 14.387512%, 100%)" offset="0.878906"/><stop stop-opacity="1" stop-color="rgb(69.377136%, 14.265442%, 100%)" offset="0.882813"/><stop stop-opacity="1" stop-color="rgb(69.651794%, 14.141846%, 100%)" offset="0.886719"/><stop stop-opacity="1" stop-color="rgb(69.927979%, 14.019775%, 100%)" offset="0.890625"/><stop stop-opacity="1" stop-color="rgb(70.204163%, 13.897705%, 100%)" offset="0.894531"/><stop stop-opacity="1" stop-color="rgb(70.480347%, 13.775635%, 100%)" offset="0.898438"/><stop stop-opacity="1" stop-color="rgb(70.755005%, 13.652039%, 100%)" offset="0.902344"/><stop stop-opacity="1" stop-color="rgb(71.031189%, 13.529968%, 100%)" offset="0.90625"/><stop stop-opacity="1" stop-color="rgb(71.307373%, 13.407898%, 100%)" offset="0.910156"/><stop stop-opacity="1" stop-color="rgb(71.583557%, 13.285828%, 100%)" offset="0.914062"/><stop stop-opacity="1" stop-color="rgb(71.858215%, 13.162231%, 100%)" offset="0.917969"/><stop stop-opacity="1" stop-color="rgb(72.134399%, 13.040161%, 100%)" offset="0.921875"/><stop stop-opacity="1" stop-color="rgb(72.409058%, 12.916565%, 100%)" offset="0.925781"/><stop stop-opacity="1" stop-color="rgb(72.685242%, 12.794495%, 100%)" offset="0.929688"/><stop stop-opacity="1" stop-color="rgb(72.961426%, 12.672424%, 100%)" offset="0.933594"/><stop stop-opacity="1" stop-color="rgb(73.23761%, 12.550354%, 100%)" offset="0.9375"/><stop stop-opacity="1" stop-color="rgb(73.512268%, 12.426758%, 100%)" offset="0.941406"/><stop stop-opacity="1" stop-color="rgb(73.788452%, 12.304688%, 100%)" offset="0.945313"/><stop stop-opacity="1" stop-color="rgb(74.064636%, 12.181091%, 100%)" offset="0.949219"/><stop stop-opacity="1" stop-color="rgb(74.34082%, 12.059021%, 100%)" offset="0.953125"/><stop stop-opacity="1" stop-color="rgb(74.615479%, 11.936951%, 100%)" offset="0.957031"/><stop stop-opacity="1" stop-color="rgb(74.891663%, 11.81488%, 100%)" offset="0.960938"/><stop stop-opacity="1" stop-color="rgb(75.167847%, 11.691284%, 100%)" offset="0.964844"/><stop stop-opacity="1" stop-color="rgb(75.444031%, 11.569214%, 100%)" offset="0.96875"/><stop stop-opacity="1" stop-color="rgb(75.718689%, 11.447144%, 100%)" offset="0.972656"/><stop stop-opacity="1" stop-color="rgb(75.994873%, 11.325073%, 100%)" offset="0.976562"/><stop stop-opacity="1" stop-color="rgb(76.269531%, 11.201477%, 100%)" offset="0.980469"/><stop stop-opacity="1" stop-color="rgb(76.545715%, 11.079407%, 100%)" offset="0.984375"/><stop stop-opacity="1" stop-color="rgb(76.821899%, 10.955811%, 100%)" offset="0.988281"/><stop stop-opacity="1" stop-color="rgb(77.098083%, 10.83374%, 100%)" offset="0.992188"/><stop stop-opacity="1" stop-color="rgb(77.372742%, 10.71167%, 100%)" offset="0.996094"/><stop stop-opacity="1" stop-color="rgb(77.648926%, 10.5896%, 100%)" offset="1"/></linearGradient></defs><g clip-path="url(#b2debcfddb)"><path fill="#ffffff" d="M 0.332031 0 L 449.667969 0 L 449.667969 337 L 0.332031 337 Z M 0.332031 0 " fill-opacity="1" fill-rule="nonzero"/><path fill="#ffffff" d="M 0.332031 0 L 449.667969 0 L 449.667969 337 L 0.332031 337 Z M 0.332031 0 " fill-opacity="1" fill-rule="nonzero"/></g><g fill="#000000" fill-opacity="1"><g transform="translate(185.233906, 173.368148)"><g><path d="M 0.6875 -5.578125 C 0.6875 -6.660156 0.929688 -7.632812 1.421875 -8.5 C 1.910156 -9.375 2.578125 -10.054688 3.421875 -10.546875 C 4.265625 -11.035156 5.207031 -11.28125 6.25 -11.28125 C 7.457031 -11.28125 8.515625 -10.984375 9.421875 -10.390625 C 10.328125 -9.804688 10.988281 -8.976562 11.40625 -7.90625 L 9.65625 -7.90625 C 9.351562 -8.570312 8.910156 -9.085938 8.328125 -9.453125 C 7.742188 -9.816406 7.050781 -10 6.25 -10 C 5.46875 -10 4.765625 -9.816406 4.140625 -9.453125 C 3.523438 -9.085938 3.039062 -8.570312 2.6875 -7.90625 C 2.34375 -7.25 2.171875 -6.472656 2.171875 -5.578125 C 2.171875 -4.691406 2.34375 -3.914062 2.6875 -3.25 C 3.039062 -2.582031 3.523438 -2.066406 4.140625 -1.703125 C 4.765625 -1.347656 5.46875 -1.171875 6.25 -1.171875 C 7.050781 -1.171875 7.742188 -1.347656 8.328125 -1.703125 C 8.910156 -2.054688 9.351562 -2.566406 9.65625 -3.234375 L 11.40625 -3.234375 C 10.988281 -2.171875 10.328125 -1.347656 9.421875 -0.765625 C 8.515625 -0.191406 7.457031 0.09375 6.25 0.09375 C 5.207031 0.09375 4.265625 -0.144531 3.421875 -0.625 C 2.578125 -1.113281 1.910156 -1.785156 1.421875 -2.640625 C 0.929688 -3.503906 0.6875 -4.484375 0.6875 -5.578125 Z M 0.6875 -5.578125 "/></g></g></g><g fill="#000000" fill-opacity="1"><g transform="translate(197.56467, 173.368148)"><g><path d="M 5.046875 0.140625 C 4.222656 0.140625 3.476562 -0.0390625 2.8125 -0.40625 C 2.15625 -0.78125 1.632812 -1.3125 1.25 -2 C 0.875 -2.6875 0.6875 -3.484375 0.6875 -4.390625 C 0.6875 -5.285156 0.878906 -6.078125 1.265625 -6.765625 C 1.660156 -7.453125 2.191406 -7.976562 2.859375 -8.34375 C 3.523438 -8.707031 4.273438 -8.890625 5.109375 -8.890625 C 5.941406 -8.890625 6.691406 -8.707031 7.359375 -8.34375 C 8.035156 -7.976562 8.566406 -7.453125 8.953125 -6.765625 C 9.335938 -6.085938 9.53125 -5.296875 9.53125 -4.390625 C 9.53125 -3.484375 9.328125 -2.6875 8.921875 -2 C 8.523438 -1.3125 7.988281 -0.78125 7.3125 -0.40625 C 6.632812 -0.0390625 5.878906 0.140625 5.046875 0.140625 Z M 5.046875 -1.140625 C 5.566406 -1.140625 6.054688 -1.257812 6.515625 -1.5 C 6.972656 -1.75 7.34375 -2.117188 7.625 -2.609375 C 7.90625 -3.097656 8.046875 -3.691406 8.046875 -4.390625 C 8.046875 -5.097656 7.90625 -5.695312 7.625 -6.1875 C 7.351562 -6.675781 6.992188 -7.039062 6.546875 -7.28125 C 6.097656 -7.519531 5.613281 -7.640625 5.09375 -7.640625 C 4.5625 -7.640625 4.070312 -7.519531 3.625 -7.28125 C 3.1875 -7.039062 2.832031 -6.675781 2.5625 -6.1875 C 2.300781 -5.695312 2.171875 -5.097656 2.171875 -4.390625 C 2.171875 -3.679688 2.300781 -3.082031 2.5625 -2.59375 C 2.820312 -2.101562 3.171875 -1.738281 3.609375 -1.5 C 4.046875 -1.257812 4.523438 -1.140625 5.046875 -1.140625 Z M 5.046875 -1.140625 "/></g></g></g><g fill="#000000" fill-opacity="1"><g transform="translate(207.787067, 173.368148)"><g><path d="M 4.84375 -8.890625 C 5.59375 -8.890625 6.253906 -8.722656 6.828125 -8.390625 C 7.398438 -8.066406 7.820312 -7.65625 8.09375 -7.15625 L 8.09375 -8.75 L 9.5625 -8.75 L 9.5625 0.1875 C 9.5625 0.988281 9.390625 1.695312 9.046875 2.3125 C 8.710938 2.9375 8.226562 3.425781 7.59375 3.78125 C 6.957031 4.132812 6.21875 4.3125 5.375 4.3125 C 4.226562 4.3125 3.269531 4.039062 2.5 3.5 C 1.738281 2.957031 1.289062 2.21875 1.15625 1.28125 L 2.59375 1.28125 C 2.75 1.8125 3.078125 2.238281 3.578125 2.5625 C 4.078125 2.882812 4.675781 3.046875 5.375 3.046875 C 6.175781 3.046875 6.828125 2.796875 7.328125 2.296875 C 7.835938 1.796875 8.09375 1.09375 8.09375 0.1875 L 8.09375 -1.640625 C 7.8125 -1.128906 7.382812 -0.703125 6.8125 -0.359375 C 6.25 -0.0234375 5.59375 0.140625 4.84375 0.140625 C 4.0625 0.140625 3.351562 -0.046875 2.71875 -0.421875 C 2.082031 -0.804688 1.582031 -1.34375 1.21875 -2.03125 C 0.863281 -2.726562 0.6875 -3.519531 0.6875 -4.40625 C 0.6875 -5.300781 0.863281 -6.085938 1.21875 -6.765625 C 1.582031 -7.441406 2.082031 -7.960938 2.71875 -8.328125 C 3.351562 -8.703125 4.0625 -8.890625 4.84375 -8.890625 Z M 8.09375 -4.390625 C 8.09375 -5.046875 7.957031 -5.617188 7.6875 -6.109375 C 7.425781 -6.597656 7.066406 -6.972656 6.609375 -7.234375 C 6.160156 -7.503906 5.664062 -7.640625 5.125 -7.640625 C 4.582031 -7.640625 4.085938 -7.507812 3.640625 -7.25 C 3.191406 -6.988281 2.832031 -6.613281 2.5625 -6.125 C 2.300781 -5.632812 2.171875 -5.0625 2.171875 -4.40625 C 2.171875 -3.738281 2.300781 -3.15625 2.5625 -2.65625 C 2.832031 -2.164062 3.191406 -1.789062 3.640625 -1.53125 C 4.085938 -1.269531 4.582031 -1.140625 5.125 -1.140625 C 5.664062 -1.140625 6.160156 -1.269531 6.609375 -1.53125 C 7.066406 -1.789062 7.425781 -2.164062 7.6875 -2.65625 C 7.957031 -3.15625 8.09375 -3.734375 8.09375 -4.390625 Z M 8.09375 -4.390625 "/></g></g></g><g fill="#000000" fill-opacity="1"><g transform="translate(218.584478, 173.368148)"><g><path d="M 5.5 -8.90625 C 6.5625 -8.90625 7.421875 -8.582031 8.078125 -7.9375 C 8.734375 -7.300781 9.0625 -6.375 9.0625 -5.15625 L 9.0625 0 L 7.640625 0 L 7.640625 -4.953125 C 7.640625 -5.828125 7.421875 -6.492188 6.984375 -6.953125 C 6.546875 -7.421875 5.945312 -7.65625 5.1875 -7.65625 C 4.425781 -7.65625 3.816406 -7.414062 3.359375 -6.9375 C 2.910156 -6.457031 2.6875 -5.757812 2.6875 -4.84375 L 2.6875 0 L 1.234375 0 L 1.234375 -8.75 L 2.6875 -8.75 L 2.6875 -7.5 C 2.96875 -7.945312 3.351562 -8.289062 3.84375 -8.53125 C 4.34375 -8.78125 4.894531 -8.90625 5.5 -8.90625 Z M 5.5 -8.90625 "/></g></g></g><g fill="#000000" fill-opacity="1"><g transform="translate(228.806874, 173.368148)"><g><path d="M 1.984375 -10.171875 C 1.703125 -10.171875 1.460938 -10.265625 1.265625 -10.453125 C 1.078125 -10.648438 0.984375 -10.882812 0.984375 -11.15625 C 0.984375 -11.4375 1.078125 -11.671875 1.265625 -11.859375 C 1.460938 -12.054688 1.703125 -12.15625 1.984375 -12.15625 C 2.242188 -12.15625 2.46875 -12.054688 2.65625 -11.859375 C 2.84375 -11.671875 2.9375 -11.4375 2.9375 -11.15625 C 2.9375 -10.882812 2.84375 -10.648438 2.65625 -10.453125 C 2.46875 -10.265625 2.242188 -10.171875 1.984375 -10.171875 Z M 2.6875 -8.75 L 2.6875 0 L 1.234375 0 L 1.234375 -8.75 Z M 2.6875 -8.75 "/></g></g></g><g fill="#000000" fill-opacity="1"><g transform="translate(232.736104, 173.368148)"><g><path d="M 5.046875 0.140625 C 4.222656 0.140625 3.476562 -0.0390625 2.8125 -0.40625 C 2.15625 -0.78125 1.632812 -1.3125 1.25 -2 C 0.875 -2.6875 0.6875 -3.484375 0.6875 -4.390625 C 0.6875 -5.285156 0.878906 -6.078125 1.265625 -6.765625 C 1.660156 -7.453125 2.191406 -7.976562 2.859375 -8.34375 C 3.523438 -8.707031 4.273438 -8.890625 5.109375 -8.890625 C 5.941406 -8.890625 6.691406 -8.707031 7.359375 -8.34375 C 8.035156 -7.976562 8.566406 -7.453125 8.953125 -6.765625 C 9.335938 -6.085938 9.53125 -5.296875 9.53125 -4.390625 C 9.53125 -3.484375 9.328125 -2.6875 8.921875 -2 C 8.523438 -1.3125 7.988281 -0.78125 7.3125 -0.40625 C 6.632812 -0.0390625 5.878906 0.140625 5.046875 0.140625 Z M 5.046875 -1.140625 C 5.566406 -1.140625 6.054688 -1.257812 6.515625 -1.5 C 6.972656 -1.75 7.34375 -2.117188 7.625 -2.609375 C 7.90625 -3.097656 8.046875 -3.691406 8.046875 -4.390625 C 8.046875 -5.097656 7.90625 -5.695312 7.625 -6.1875 C 7.351562 -6.675781 6.992188 -7.039062 6.546875 -7.28125 C 6.097656 -7.519531 5.613281 -7.640625 5.09375 -7.640625 C 4.5625 -7.640625 4.070312 -7.519531 3.625 -7.28125 C 3.1875 -7.039062 2.832031 -6.675781 2.5625 -6.1875 C 2.300781 -5.695312 2.171875 -5.097656 2.171875 -4.390625 C 2.171875 -3.679688 2.300781 -3.082031 2.5625 -2.59375 C 2.820312 -2.101562 3.171875 -1.738281 3.609375 -1.5 C 4.046875 -1.257812 4.523438 -1.140625 5.046875 -1.140625 Z M 5.046875 -1.140625 "/></g></g></g><g fill="#000000" fill-opacity="1"><g transform="translate(242.9585, 173.368148)"><g><path d="M 5.5 -8.90625 C 6.5625 -8.90625 7.421875 -8.582031 8.078125 -7.9375 C 8.734375 -7.300781 9.0625 -6.375 9.0625 -5.15625 L 9.0625 0 L 7.640625 0 L 7.640625 -4.953125 C 7.640625 -5.828125 7.421875 -6.492188 6.984375 -6.953125 C 6.546875 -7.421875 5.945312 -7.65625 5.1875 -7.65625 C 4.425781 -7.65625 3.816406 -7.414062 3.359375 -6.9375 C 2.910156 -6.457031 2.6875 -5.757812 2.6875 -4.84375 L 2.6875 0 L 1.234375 0 L 1.234375 -8.75 L 2.6875 -8.75 L 2.6875 -7.5 C 2.96875 -7.945312 3.351562 -8.289062 3.84375 -8.53125 C 4.34375 -8.78125 4.894531 -8.90625 5.5 -8.90625 Z M 5.5 -8.90625 "/></g></g></g><g fill="#000000" fill-opacity="1"><g transform="translate(253.180896, 173.368148)"><g><path d="M 1.984375 -10.171875 C 1.703125 -10.171875 1.460938 -10.265625 1.265625 -10.453125 C 1.078125 -10.648438 0.984375 -10.882812 0.984375 -11.15625 C 0.984375 -11.4375 1.078125 -11.671875 1.265625 -11.859375 C 1.460938 -12.054688 1.703125 -12.15625 1.984375 -12.15625 C 2.242188 -12.15625 2.46875 -12.054688 2.65625 -11.859375 C 2.84375 -11.671875 2.9375 -11.4375 2.9375 -11.15625 C 2.9375 -10.882812 2.84375 -10.648438 2.65625 -10.453125 C 2.46875 -10.265625 2.242188 -10.171875 1.984375 -10.171875 Z M 2.6875 -8.75 L 2.6875 0 L 1.234375 0 L 1.234375 -8.75 Z M 2.6875 -8.75 "/></g></g></g><g fill="#000000" fill-opacity="1"><g transform="translate(257.110126, 173.368148)"><g><path d="M 5.796875 0 L 3.71875 -3.25 L 1.71875 0 L 0.203125 0 L 3.03125 -4.34375 L 0.203125 -8.75 L 1.859375 -8.75 L 3.921875 -5.515625 L 5.90625 -8.75 L 7.421875 -8.75 L 4.609375 -4.421875 L 7.4375 0 Z M 5.796875 0 "/></g></g></g><g clip-path="url(#83c2a89ab1)"><g clip-path="url(#bdf66ebe02)"><path fill="url(#038d06939f)" d="M 53.992188 2.015625 L 53.992188 335.269531 L 395.9375 335.269531 L 395.9375 2.015625 Z M 53.992188 2.015625 " fill-rule="nonzero"/></g></g></svg>