<svg xmlns="http://www.w3.org/2000/svg" xmlns:xlink="http://www.w3.org/1999/xlink" width="600" zoomAndPan="magnify" viewBox="0 0 450 337.499995" height="450" preserveAspectRatio="xMidYMid meet" version="1.0"><defs><g/><clipPath id="5cbab1f49d"><path d="M 0.332031 0 L 449.667969 0 L 449.667969 337 L 0.332031 337 Z M 0.332031 0 " clip-rule="nonzero"/></clipPath><clipPath id="ad0350c1ea"><path d="M 56.5 0 L 393.5 0 L 393.5 337 L 56.5 337 Z M 56.5 0 " clip-rule="nonzero"/></clipPath><clipPath id="ad5fff3eeb"><path d="M 320.0625 337 L 130.007812 337 C 89.566406 337 56.5 303.933594 56.5 263.492188 L 56.5 73.507812 C 56.5 33.066406 89.566406 0 130.007812 0 L 319.992188 0 C 360.433594 0 393.5 33.066406 393.5 73.507812 L 393.5 263.492188 C 393.570312 303.933594 360.503906 337 320.0625 337 Z M 320.0625 337 " clip-rule="nonzero"/></clipPath><linearGradient x1="246" gradientTransform="matrix(0.702085, 0, 0, -0.702085, 52.287123, -878.841669)" y1="-1251.759886" x2="246" gradientUnits="userSpaceOnUse" y2="-1731.759866" id="db1451e7cd"><stop stop-opacity="1" stop-color="rgb(36.468506%, 56.858826%, 97.648621%)" offset="0"/><stop stop-opacity="1" stop-color="rgb(36.631775%, 56.689453%, 97.657776%)" offset="0.0078125"/><stop stop-opacity="1" stop-color="rgb(36.959839%, 56.35376%, 97.676086%)" offset="0.015625"/><stop stop-opacity="1" stop-color="rgb(37.287903%, 56.016541%, 97.694397%)" offset="0.0234375"/><stop stop-opacity="1" stop-color="rgb(37.615967%, 55.679321%, 97.712708%)" offset="0.03125"/><stop stop-opacity="1" stop-color="rgb(37.944031%, 55.342102%, 97.732544%)" offset="0.0390625"/><stop stop-opacity="1" stop-color="rgb(38.272095%, 55.004883%, 97.750854%)" offset="0.046875"/><stop stop-opacity="1" stop-color="rgb(38.598633%, 54.667664%, 97.769165%)" offset="0.0546875"/><stop stop-opacity="1" stop-color="rgb(38.926697%, 54.33197%, 97.787476%)" offset="0.0625"/><stop stop-opacity="1" stop-color="rgb(39.254761%, 53.994751%, 97.805786%)" offset="0.0703125"/><stop stop-opacity="1" stop-color="rgb(39.582825%, 53.657532%, 97.824097%)" offset="0.078125"/><stop stop-opacity="1" stop-color="rgb(39.910889%, 53.320312%, 97.842407%)" offset="0.0859375"/><stop stop-opacity="1" stop-color="rgb(40.238953%, 52.983093%, 97.860718%)" offset="0.09375"/><stop stop-opacity="1" stop-color="rgb(40.565491%, 52.6474%, 97.879028%)" offset="0.101562"/><stop stop-opacity="1" stop-color="rgb(40.893555%, 52.310181%, 97.897339%)" offset="0.109375"/><stop stop-opacity="1" stop-color="rgb(41.221619%, 51.972961%, 97.915649%)" offset="0.117188"/><stop stop-opacity="1" stop-color="rgb(41.549683%, 51.635742%, 97.93396%)" offset="0.125"/><stop stop-opacity="1" stop-color="rgb(41.877747%, 51.298523%, 97.952271%)" offset="0.132812"/><stop stop-opacity="1" stop-color="rgb(42.205811%, 50.961304%, 97.970581%)" offset="0.140625"/><stop stop-opacity="1" stop-color="rgb(42.533875%, 50.62561%, 97.988892%)" offset="0.148438"/><stop stop-opacity="1" stop-color="rgb(42.860413%, 50.288391%, 98.007202%)" offset="0.15625"/><stop stop-opacity="1" stop-color="rgb(43.188477%, 49.951172%, 98.025513%)" offset="0.164062"/><stop stop-opacity="1" stop-color="rgb(43.516541%, 49.613953%, 98.043823%)" offset="0.171875"/><stop stop-opacity="1" stop-color="rgb(43.844604%, 49.276733%, 98.062134%)" offset="0.179688"/><stop stop-opacity="1" stop-color="rgb(44.172668%, 48.939514%, 98.080444%)" offset="0.1875"/><stop stop-opacity="1" stop-color="rgb(44.500732%, 48.603821%, 98.098755%)" offset="0.195313"/><stop stop-opacity="1" stop-color="rgb(44.827271%, 48.266602%, 98.117065%)" offset="0.203125"/><stop stop-opacity="1" stop-color="rgb(45.155334%, 47.929382%, 98.135376%)" offset="0.210938"/><stop stop-opacity="1" stop-color="rgb(45.483398%, 47.592163%, 98.153687%)" offset="0.21875"/><stop stop-opacity="1" stop-color="rgb(45.811462%, 47.254944%, 98.171997%)" offset="0.226563"/><stop stop-opacity="1" stop-color="rgb(46.139526%, 46.91925%, 98.190308%)" offset="0.234375"/><stop stop-opacity="1" stop-color="rgb(46.46759%, 46.582031%, 98.208618%)" offset="0.242188"/><stop stop-opacity="1" stop-color="rgb(46.794128%, 46.244812%, 98.226929%)" offset="0.25"/><stop stop-opacity="1" stop-color="rgb(47.122192%, 45.907593%, 98.245239%)" offset="0.257812"/><stop stop-opacity="1" stop-color="rgb(47.450256%, 45.570374%, 98.26355%)" offset="0.265625"/><stop stop-opacity="1" stop-color="rgb(47.77832%, 45.233154%, 98.28186%)" offset="0.273438"/><stop stop-opacity="1" stop-color="rgb(48.106384%, 44.897461%, 98.301697%)" offset="0.28125"/><stop stop-opacity="1" stop-color="rgb(48.434448%, 44.560242%, 98.320007%)" offset="0.289062"/><stop stop-opacity="1" stop-color="rgb(48.760986%, 44.223022%, 98.338318%)" offset="0.296875"/><stop stop-opacity="1" stop-color="rgb(49.08905%, 43.885803%, 98.356628%)" offset="0.304688"/><stop stop-opacity="1" stop-color="rgb(49.417114%, 43.548584%, 98.374939%)" offset="0.3125"/><stop stop-opacity="1" stop-color="rgb(49.745178%, 43.211365%, 98.39325%)" offset="0.320312"/><stop stop-opacity="1" stop-color="rgb(50.073242%, 42.875671%, 98.41156%)" offset="0.328125"/><stop stop-opacity="1" stop-color="rgb(50.401306%, 42.538452%, 98.429871%)" offset="0.335937"/><stop stop-opacity="1" stop-color="rgb(50.727844%, 42.201233%, 98.448181%)" offset="0.34375"/><stop stop-opacity="1" stop-color="rgb(51.055908%, 41.864014%, 98.466492%)" offset="0.351562"/><stop stop-opacity="1" stop-color="rgb(51.383972%, 41.526794%, 98.484802%)" offset="0.359375"/><stop stop-opacity="1" stop-color="rgb(51.712036%, 41.189575%, 98.503113%)" offset="0.367188"/><stop stop-opacity="1" stop-color="rgb(52.0401%, 40.853882%, 98.521423%)" offset="0.375"/><stop stop-opacity="1" stop-color="rgb(52.368164%, 40.516663%, 98.539734%)" offset="0.382812"/><stop stop-opacity="1" stop-color="rgb(52.694702%, 40.179443%, 98.558044%)" offset="0.390625"/><stop stop-opacity="1" stop-color="rgb(53.022766%, 39.842224%, 98.576355%)" offset="0.398438"/><stop stop-opacity="1" stop-color="rgb(53.35083%, 39.505005%, 98.594666%)" offset="0.40625"/><stop stop-opacity="1" stop-color="rgb(53.678894%, 39.169312%, 98.612976%)" offset="0.414062"/><stop stop-opacity="1" stop-color="rgb(54.006958%, 38.832092%, 98.631287%)" offset="0.421875"/><stop stop-opacity="1" stop-color="rgb(54.335022%, 38.494873%, 98.649597%)" offset="0.429688"/><stop stop-opacity="1" stop-color="rgb(54.66156%, 38.157654%, 98.667908%)" offset="0.4375"/><stop stop-opacity="1" stop-color="rgb(54.989624%, 37.820435%, 98.686218%)" offset="0.445312"/><stop stop-opacity="1" stop-color="rgb(55.317688%, 37.483215%, 98.704529%)" offset="0.453125"/><stop stop-opacity="1" stop-color="rgb(55.645752%, 37.147522%, 98.722839%)" offset="0.460938"/><stop stop-opacity="1" stop-color="rgb(55.973816%, 36.810303%, 98.74115%)" offset="0.46875"/><stop stop-opacity="1" stop-color="rgb(56.30188%, 36.473083%, 98.75946%)" offset="0.476563"/><stop stop-opacity="1" stop-color="rgb(56.628418%, 36.135864%, 98.777771%)" offset="0.484375"/><stop stop-opacity="1" stop-color="rgb(56.956482%, 35.798645%, 98.796082%)" offset="0.492188"/><stop stop-opacity="1" stop-color="rgb(57.284546%, 35.461426%, 98.814392%)" offset="0.5"/><stop stop-opacity="1" stop-color="rgb(57.61261%, 35.125732%, 98.832703%)" offset="0.507812"/><stop stop-opacity="1" stop-color="rgb(57.940674%, 34.788513%, 98.851013%)" offset="0.515625"/><stop stop-opacity="1" stop-color="rgb(58.268738%, 34.451294%, 98.87085%)" offset="0.523438"/><stop stop-opacity="1" stop-color="rgb(58.595276%, 34.114075%, 98.88916%)" offset="0.53125"/><stop stop-opacity="1" stop-color="rgb(58.92334%, 33.776855%, 98.907471%)" offset="0.539062"/><stop stop-opacity="1" stop-color="rgb(59.251404%, 33.439636%, 98.925781%)" offset="0.546875"/><stop stop-opacity="1" stop-color="rgb(59.579468%, 33.103943%, 98.944092%)" offset="0.554688"/><stop stop-opacity="1" stop-color="rgb(59.907532%, 32.766724%, 98.962402%)" offset="0.5625"/><stop stop-opacity="1" stop-color="rgb(60.235596%, 32.429504%, 98.980713%)" offset="0.570312"/><stop stop-opacity="1" stop-color="rgb(60.562134%, 32.092285%, 98.999023%)" offset="0.578125"/><stop stop-opacity="1" stop-color="rgb(60.890198%, 31.755066%, 99.017334%)" offset="0.585938"/><stop stop-opacity="1" stop-color="rgb(61.218262%, 31.419373%, 99.035645%)" offset="0.59375"/><stop stop-opacity="1" stop-color="rgb(61.546326%, 31.082153%, 99.053955%)" offset="0.601562"/><stop stop-opacity="1" stop-color="rgb(61.87439%, 30.744934%, 99.072266%)" offset="0.609375"/><stop stop-opacity="1" stop-color="rgb(62.202454%, 30.407715%, 99.090576%)" offset="0.617188"/><stop stop-opacity="1" stop-color="rgb(62.528992%, 30.070496%, 99.108887%)" offset="0.625"/><stop stop-opacity="1" stop-color="rgb(62.857056%, 29.733276%, 99.127197%)" offset="0.632812"/><stop stop-opacity="1" stop-color="rgb(63.18512%, 29.397583%, 99.145508%)" offset="0.640625"/><stop stop-opacity="1" stop-color="rgb(63.513184%, 29.060364%, 99.163818%)" offset="0.648438"/><stop stop-opacity="1" stop-color="rgb(63.841248%, 28.723145%, 99.182129%)" offset="0.65625"/><stop stop-opacity="1" stop-color="rgb(64.169312%, 28.385925%, 99.200439%)" offset="0.664062"/><stop stop-opacity="1" stop-color="rgb(64.49585%, 28.048706%, 99.21875%)" offset="0.671875"/><stop stop-opacity="1" stop-color="rgb(64.823914%, 27.711487%, 99.237061%)" offset="0.679688"/><stop stop-opacity="1" stop-color="rgb(65.151978%, 27.375793%, 99.255371%)" offset="0.6875"/><stop stop-opacity="1" stop-color="rgb(65.480042%, 27.038574%, 99.273682%)" offset="0.695312"/><stop stop-opacity="1" stop-color="rgb(65.808105%, 26.701355%, 99.291992%)" offset="0.703125"/><stop stop-opacity="1" stop-color="rgb(66.136169%, 26.364136%, 99.310303%)" offset="0.710938"/><stop stop-opacity="1" stop-color="rgb(66.462708%, 26.026917%, 99.328613%)" offset="0.71875"/><stop stop-opacity="1" stop-color="rgb(66.790771%, 25.689697%, 99.346924%)" offset="0.726562"/><stop stop-opacity="1" stop-color="rgb(67.118835%, 25.354004%, 99.365234%)" offset="0.734375"/><stop stop-opacity="1" stop-color="rgb(67.446899%, 25.016785%, 99.383545%)" offset="0.742187"/><stop stop-opacity="1" stop-color="rgb(67.774963%, 24.679565%, 99.401855%)" offset="0.75"/><stop stop-opacity="1" stop-color="rgb(68.103027%, 24.342346%, 99.420166%)" offset="0.757812"/><stop stop-opacity="1" stop-color="rgb(68.429565%, 24.005127%, 99.440002%)" offset="0.765625"/><stop stop-opacity="1" stop-color="rgb(68.757629%, 23.669434%, 99.458313%)" offset="0.773437"/><stop stop-opacity="1" stop-color="rgb(69.085693%, 23.332214%, 99.476624%)" offset="0.78125"/><stop stop-opacity="1" stop-color="rgb(69.413757%, 22.994995%, 99.494934%)" offset="0.789062"/><stop stop-opacity="1" stop-color="rgb(69.741821%, 22.657776%, 99.513245%)" offset="0.796875"/><stop stop-opacity="1" stop-color="rgb(70.069885%, 22.320557%, 99.531555%)" offset="0.804688"/><stop stop-opacity="1" stop-color="rgb(70.396423%, 21.983337%, 99.549866%)" offset="0.8125"/><stop stop-opacity="1" stop-color="rgb(70.724487%, 21.647644%, 99.568176%)" offset="0.820312"/><stop stop-opacity="1" stop-color="rgb(71.052551%, 21.310425%, 99.586487%)" offset="0.828125"/><stop stop-opacity="1" stop-color="rgb(71.380615%, 20.973206%, 99.604797%)" offset="0.835938"/><stop stop-opacity="1" stop-color="rgb(71.708679%, 20.635986%, 99.623108%)" offset="0.84375"/><stop stop-opacity="1" stop-color="rgb(72.036743%, 20.298767%, 99.641418%)" offset="0.851562"/><stop stop-opacity="1" stop-color="rgb(72.364807%, 19.961548%, 99.659729%)" offset="0.859375"/><stop stop-opacity="1" stop-color="rgb(72.691345%, 19.625854%, 99.67804%)" offset="0.867188"/><stop stop-opacity="1" stop-color="rgb(73.019409%, 19.288635%, 99.69635%)" offset="0.875"/><stop stop-opacity="1" stop-color="rgb(73.347473%, 18.951416%, 99.714661%)" offset="0.882812"/><stop stop-opacity="1" stop-color="rgb(73.675537%, 18.614197%, 99.732971%)" offset="0.890625"/><stop stop-opacity="1" stop-color="rgb(74.003601%, 18.276978%, 99.751282%)" offset="0.898438"/><stop stop-opacity="1" stop-color="rgb(74.331665%, 17.941284%, 99.769592%)" offset="0.90625"/><stop stop-opacity="1" stop-color="rgb(74.658203%, 17.604065%, 99.787903%)" offset="0.914062"/><stop stop-opacity="1" stop-color="rgb(74.986267%, 17.266846%, 99.806213%)" offset="0.921875"/><stop stop-opacity="1" stop-color="rgb(75.314331%, 16.929626%, 99.824524%)" offset="0.929688"/><stop stop-opacity="1" stop-color="rgb(75.642395%, 16.592407%, 99.842834%)" offset="0.9375"/><stop stop-opacity="1" stop-color="rgb(75.970459%, 16.255188%, 99.861145%)" offset="0.945312"/><stop stop-opacity="1" stop-color="rgb(76.298523%, 15.919495%, 99.879456%)" offset="0.953125"/><stop stop-opacity="1" stop-color="rgb(76.625061%, 15.582275%, 99.897766%)" offset="0.960938"/><stop stop-opacity="1" stop-color="rgb(76.953125%, 15.245056%, 99.916077%)" offset="0.96875"/><stop stop-opacity="1" stop-color="rgb(77.281189%, 14.907837%, 99.934387%)" offset="0.976562"/><stop stop-opacity="1" stop-color="rgb(77.609253%, 14.570618%, 99.952698%)" offset="0.984375"/><stop stop-opacity="1" stop-color="rgb(77.937317%, 14.233398%, 99.971008%)" offset="0.992188"/><stop stop-opacity="1" stop-color="rgb(78.265381%, 13.897705%, 99.989319%)" offset="1"/></linearGradient></defs><g clip-path="url(#5cbab1f49d)"><path fill="#ffffff" d="M 0.332031 0 L 449.667969 0 L 449.667969 337 L 0.332031 337 Z M 0.332031 0 " fill-opacity="1" fill-rule="nonzero"/><path fill="#ffffff" d="M 0.332031 0 L 449.667969 0 L 449.667969 337 L 0.332031 337 Z M 0.332031 0 " fill-opacity="1" fill-rule="nonzero"/></g><g fill="#000000" fill-opacity="1"><g transform="translate(185.233906, 173.368148)"><g><path d="M 0.6875 -5.578125 C 0.6875 -6.660156 0.929688 -7.632812 1.421875 -8.5 C 1.910156 -9.375 2.578125 -10.054688 3.421875 -10.546875 C 4.265625 -11.035156 5.207031 -11.28125 6.25 -11.28125 C 7.457031 -11.28125 8.515625 -10.984375 9.421875 -10.390625 C 10.328125 -9.804688 10.988281 -8.976562 11.40625 -7.90625 L 9.65625 -7.90625 C 9.351562 -8.570312 8.910156 -9.085938 8.328125 -9.453125 C 7.742188 -9.816406 7.050781 -10 6.25 -10 C 5.46875 -10 4.765625 -9.816406 4.140625 -9.453125 C 3.523438 -9.085938 3.039062 -8.570312 2.6875 -7.90625 C 2.34375 -7.25 2.171875 -6.472656 2.171875 -5.578125 C 2.171875 -4.691406 2.34375 -3.914062 2.6875 -3.25 C 3.039062 -2.582031 3.523438 -2.066406 4.140625 -1.703125 C 4.765625 -1.347656 5.46875 -1.171875 6.25 -1.171875 C 7.050781 -1.171875 7.742188 -1.347656 8.328125 -1.703125 C 8.910156 -2.054688 9.351562 -2.566406 9.65625 -3.234375 L 11.40625 -3.234375 C 10.988281 -2.171875 10.328125 -1.347656 9.421875 -0.765625 C 8.515625 -0.191406 7.457031 0.09375 6.25 0.09375 C 5.207031 0.09375 4.265625 -0.144531 3.421875 -0.625 C 2.578125 -1.113281 1.910156 -1.785156 1.421875 -2.640625 C 0.929688 -3.503906 0.6875 -4.484375 0.6875 -5.578125 Z M 0.6875 -5.578125 "/></g></g></g><g fill="#000000" fill-opacity="1"><g transform="translate(197.56467, 173.368148)"><g><path d="M 5.046875 0.140625 C 4.222656 0.140625 3.476562 -0.0390625 2.8125 -0.40625 C 2.15625 -0.78125 1.632812 -1.3125 1.25 -2 C 0.875 -2.6875 0.6875 -3.484375 0.6875 -4.390625 C 0.6875 -5.285156 0.878906 -6.078125 1.265625 -6.765625 C 1.660156 -7.453125 2.191406 -7.976562 2.859375 -8.34375 C 3.523438 -8.707031 4.273438 -8.890625 5.109375 -8.890625 C 5.941406 -8.890625 6.691406 -8.707031 7.359375 -8.34375 C 8.035156 -7.976562 8.566406 -7.453125 8.953125 -6.765625 C 9.335938 -6.085938 9.53125 -5.296875 9.53125 -4.390625 C 9.53125 -3.484375 9.328125 -2.6875 8.921875 -2 C 8.523438 -1.3125 7.988281 -0.78125 7.3125 -0.40625 C 6.632812 -0.0390625 5.878906 0.140625 5.046875 0.140625 Z M 5.046875 -1.140625 C 5.566406 -1.140625 6.054688 -1.257812 6.515625 -1.5 C 6.972656 -1.75 7.34375 -2.117188 7.625 -2.609375 C 7.90625 -3.097656 8.046875 -3.691406 8.046875 -4.390625 C 8.046875 -5.097656 7.90625 -5.695312 7.625 -6.1875 C 7.351562 -6.675781 6.992188 -7.039062 6.546875 -7.28125 C 6.097656 -7.519531 5.613281 -7.640625 5.09375 -7.640625 C 4.5625 -7.640625 4.070312 -7.519531 3.625 -7.28125 C 3.1875 -7.039062 2.832031 -6.675781 2.5625 -6.1875 C 2.300781 -5.695312 2.171875 -5.097656 2.171875 -4.390625 C 2.171875 -3.679688 2.300781 -3.082031 2.5625 -2.59375 C 2.820312 -2.101562 3.171875 -1.738281 3.609375 -1.5 C 4.046875 -1.257812 4.523438 -1.140625 5.046875 -1.140625 Z M 5.046875 -1.140625 "/></g></g></g><g fill="#000000" fill-opacity="1"><g transform="translate(207.787067, 173.368148)"><g><path d="M 4.84375 -8.890625 C 5.59375 -8.890625 6.253906 -8.722656 6.828125 -8.390625 C 7.398438 -8.066406 7.820312 -7.65625 8.09375 -7.15625 L 8.09375 -8.75 L 9.5625 -8.75 L 9.5625 0.1875 C 9.5625 0.988281 9.390625 1.695312 9.046875 2.3125 C 8.710938 2.9375 8.226562 3.425781 7.59375 3.78125 C 6.957031 4.132812 6.21875 4.3125 5.375 4.3125 C 4.226562 4.3125 3.269531 4.039062 2.5 3.5 C 1.738281 2.957031 1.289062 2.21875 1.15625 1.28125 L 2.59375 1.28125 C 2.75 1.8125 3.078125 2.238281 3.578125 2.5625 C 4.078125 2.882812 4.675781 3.046875 5.375 3.046875 C 6.175781 3.046875 6.828125 2.796875 7.328125 2.296875 C 7.835938 1.796875 8.09375 1.09375 8.09375 0.1875 L 8.09375 -1.640625 C 7.8125 -1.128906 7.382812 -0.703125 6.8125 -0.359375 C 6.25 -0.0234375 5.59375 0.140625 4.84375 0.140625 C 4.0625 0.140625 3.351562 -0.046875 2.71875 -0.421875 C 2.082031 -0.804688 1.582031 -1.34375 1.21875 -2.03125 C 0.863281 -2.726562 0.6875 -3.519531 0.6875 -4.40625 C 0.6875 -5.300781 0.863281 -6.085938 1.21875 -6.765625 C 1.582031 -7.441406 2.082031 -7.960938 2.71875 -8.328125 C 3.351562 -8.703125 4.0625 -8.890625 4.84375 -8.890625 Z M 8.09375 -4.390625 C 8.09375 -5.046875 7.957031 -5.617188 7.6875 -6.109375 C 7.425781 -6.597656 7.066406 -6.972656 6.609375 -7.234375 C 6.160156 -7.503906 5.664062 -7.640625 5.125 -7.640625 C 4.582031 -7.640625 4.085938 -7.507812 3.640625 -7.25 C 3.191406 -6.988281 2.832031 -6.613281 2.5625 -6.125 C 2.300781 -5.632812 2.171875 -5.0625 2.171875 -4.40625 C 2.171875 -3.738281 2.300781 -3.15625 2.5625 -2.65625 C 2.832031 -2.164062 3.191406 -1.789062 3.640625 -1.53125 C 4.085938 -1.269531 4.582031 -1.140625 5.125 -1.140625 C 5.664062 -1.140625 6.160156 -1.269531 6.609375 -1.53125 C 7.066406 -1.789062 7.425781 -2.164062 7.6875 -2.65625 C 7.957031 -3.15625 8.09375 -3.734375 8.09375 -4.390625 Z M 8.09375 -4.390625 "/></g></g></g><g fill="#000000" fill-opacity="1"><g transform="translate(218.584478, 173.368148)"><g><path d="M 5.5 -8.90625 C 6.5625 -8.90625 7.421875 -8.582031 8.078125 -7.9375 C 8.734375 -7.300781 9.0625 -6.375 9.0625 -5.15625 L 9.0625 0 L 7.640625 0 L 7.640625 -4.953125 C 7.640625 -5.828125 7.421875 -6.492188 6.984375 -6.953125 C 6.546875 -7.421875 5.945312 -7.65625 5.1875 -7.65625 C 4.425781 -7.65625 3.816406 -7.414062 3.359375 -6.9375 C 2.910156 -6.457031 2.6875 -5.757812 2.6875 -4.84375 L 2.6875 0 L 1.234375 0 L 1.234375 -8.75 L 2.6875 -8.75 L 2.6875 -7.5 C 2.96875 -7.945312 3.351562 -8.289062 3.84375 -8.53125 C 4.34375 -8.78125 4.894531 -8.90625 5.5 -8.90625 Z M 5.5 -8.90625 "/></g></g></g><g fill="#000000" fill-opacity="1"><g transform="translate(228.806874, 173.368148)"><g><path d="M 1.984375 -10.171875 C 1.703125 -10.171875 1.460938 -10.265625 1.265625 -10.453125 C 1.078125 -10.648438 0.984375 -10.882812 0.984375 -11.15625 C 0.984375 -11.4375 1.078125 -11.671875 1.265625 -11.859375 C 1.460938 -12.054688 1.703125 -12.15625 1.984375 -12.15625 C 2.242188 -12.15625 2.46875 -12.054688 2.65625 -11.859375 C 2.84375 -11.671875 2.9375 -11.4375 2.9375 -11.15625 C 2.9375 -10.882812 2.84375 -10.648438 2.65625 -10.453125 C 2.46875 -10.265625 2.242188 -10.171875 1.984375 -10.171875 Z M 2.6875 -8.75 L 2.6875 0 L 1.234375 0 L 1.234375 -8.75 Z M 2.6875 -8.75 "/></g></g></g><g fill="#000000" fill-opacity="1"><g transform="translate(232.736104, 173.368148)"><g><path d="M 5.046875 0.140625 C 4.222656 0.140625 3.476562 -0.0390625 2.8125 -0.40625 C 2.15625 -0.78125 1.632812 -1.3125 1.25 -2 C 0.875 -2.6875 0.6875 -3.484375 0.6875 -4.390625 C 0.6875 -5.285156 0.878906 -6.078125 1.265625 -6.765625 C 1.660156 -7.453125 2.191406 -7.976562 2.859375 -8.34375 C 3.523438 -8.707031 4.273438 -8.890625 5.109375 -8.890625 C 5.941406 -8.890625 6.691406 -8.707031 7.359375 -8.34375 C 8.035156 -7.976562 8.566406 -7.453125 8.953125 -6.765625 C 9.335938 -6.085938 9.53125 -5.296875 9.53125 -4.390625 C 9.53125 -3.484375 9.328125 -2.6875 8.921875 -2 C 8.523438 -1.3125 7.988281 -0.78125 7.3125 -0.40625 C 6.632812 -0.0390625 5.878906 0.140625 5.046875 0.140625 Z M 5.046875 -1.140625 C 5.566406 -1.140625 6.054688 -1.257812 6.515625 -1.5 C 6.972656 -1.75 7.34375 -2.117188 7.625 -2.609375 C 7.90625 -3.097656 8.046875 -3.691406 8.046875 -4.390625 C 8.046875 -5.097656 7.90625 -5.695312 7.625 -6.1875 C 7.351562 -6.675781 6.992188 -7.039062 6.546875 -7.28125 C 6.097656 -7.519531 5.613281 -7.640625 5.09375 -7.640625 C 4.5625 -7.640625 4.070312 -7.519531 3.625 -7.28125 C 3.1875 -7.039062 2.832031 -6.675781 2.5625 -6.1875 C 2.300781 -5.695312 2.171875 -5.097656 2.171875 -4.390625 C 2.171875 -3.679688 2.300781 -3.082031 2.5625 -2.59375 C 2.820312 -2.101562 3.171875 -1.738281 3.609375 -1.5 C 4.046875 -1.257812 4.523438 -1.140625 5.046875 -1.140625 Z M 5.046875 -1.140625 "/></g></g></g><g fill="#000000" fill-opacity="1"><g transform="translate(242.9585, 173.368148)"><g><path d="M 5.5 -8.90625 C 6.5625 -8.90625 7.421875 -8.582031 8.078125 -7.9375 C 8.734375 -7.300781 9.0625 -6.375 9.0625 -5.15625 L 9.0625 0 L 7.640625 0 L 7.640625 -4.953125 C 7.640625 -5.828125 7.421875 -6.492188 6.984375 -6.953125 C 6.546875 -7.421875 5.945312 -7.65625 5.1875 -7.65625 C 4.425781 -7.65625 3.816406 -7.414062 3.359375 -6.9375 C 2.910156 -6.457031 2.6875 -5.757812 2.6875 -4.84375 L 2.6875 0 L 1.234375 0 L 1.234375 -8.75 L 2.6875 -8.75 L 2.6875 -7.5 C 2.96875 -7.945312 3.351562 -8.289062 3.84375 -8.53125 C 4.34375 -8.78125 4.894531 -8.90625 5.5 -8.90625 Z M 5.5 -8.90625 "/></g></g></g><g fill="#000000" fill-opacity="1"><g transform="translate(253.180896, 173.368148)"><g><path d="M 1.984375 -10.171875 C 1.703125 -10.171875 1.460938 -10.265625 1.265625 -10.453125 C 1.078125 -10.648438 0.984375 -10.882812 0.984375 -11.15625 C 0.984375 -11.4375 1.078125 -11.671875 1.265625 -11.859375 C 1.460938 -12.054688 1.703125 -12.15625 1.984375 -12.15625 C 2.242188 -12.15625 2.46875 -12.054688 2.65625 -11.859375 C 2.84375 -11.671875 2.9375 -11.4375 2.9375 -11.15625 C 2.9375 -10.882812 2.84375 -10.648438 2.65625 -10.453125 C 2.46875 -10.265625 2.242188 -10.171875 1.984375 -10.171875 Z M 2.6875 -8.75 L 2.6875 0 L 1.234375 0 L 1.234375 -8.75 Z M 2.6875 -8.75 "/></g></g></g><g fill="#000000" fill-opacity="1"><g transform="translate(257.110126, 173.368148)"><g><path d="M 5.796875 0 L 3.71875 -3.25 L 1.71875 0 L 0.203125 0 L 3.03125 -4.34375 L 0.203125 -8.75 L 1.859375 -8.75 L 3.921875 -5.515625 L 5.90625 -8.75 L 7.421875 -8.75 L 4.609375 -4.421875 L 7.4375 0 Z M 5.796875 0 "/></g></g></g><g clip-path="url(#ad0350c1ea)"><g clip-path="url(#ad5fff3eeb)"><path fill="url(#db1451e7cd)" d="M 56.5 337 L 56.5 0 L 393.5 0 L 393.5 337 Z M 56.5 337 " fill-rule="nonzero"/></g></g><path fill="#ffffff" d="M 225.140625 205.429688 C 203.304688 205.429688 186.246094 195.179688 186.246094 182.191406 C 186.246094 169.132812 203.304688 158.953125 225.140625 158.953125 C 246.976562 158.953125 264.035156 169.203125 264.035156 182.191406 C 264.035156 195.179688 246.976562 205.429688 225.140625 205.429688 Z M 225.140625 165.339844 C 207.589844 165.339844 192.703125 173.0625 192.703125 182.121094 C 192.703125 191.246094 207.589844 198.902344 225.140625 198.902344 C 242.691406 198.902344 257.578125 191.175781 257.578125 182.121094 C 257.648438 173.0625 242.761719 165.339844 225.140625 165.339844 Z M 225.140625 165.339844 " fill-opacity="1" fill-rule="nonzero"/><path fill="#ffffff" d="M 225.140625 285.46875 C 215.242188 285.46875 206.042969 283.5 199.164062 279.921875 C 190.878906 275.566406 186.246094 269.039062 186.246094 261.457031 L 186.246094 182.121094 C 186.246094 180.296875 187.71875 178.890625 189.472656 178.890625 C 191.230469 178.890625 192.703125 180.367188 192.703125 182.121094 C 192.703125 191.246094 207.589844 198.902344 225.140625 198.902344 C 242.691406 198.902344 257.578125 191.175781 257.578125 182.121094 C 257.578125 180.296875 259.050781 178.890625 260.804688 178.890625 C 262.5625 178.890625 264.035156 180.367188 264.035156 182.121094 L 264.035156 261.386719 C 264.105469 277.886719 243.886719 285.46875 225.140625 285.46875 Z M 192.703125 195.179688 L 192.703125 261.386719 C 192.703125 272.898438 209.0625 278.9375 225.140625 278.9375 C 241.21875 278.9375 257.578125 272.898438 257.578125 261.386719 L 257.578125 195.179688 C 250.695312 201.429688 238.832031 205.429688 225.140625 205.429688 C 211.449219 205.429688 199.585938 201.359375 192.703125 195.179688 Z M 192.703125 195.179688 " fill-opacity="1" fill-rule="nonzero"/><path fill="#ffffff" d="M 225.140625 245.449219 C 203.304688 245.449219 186.246094 235.199219 186.246094 222.210938 C 186.246094 220.382812 187.71875 218.980469 189.472656 218.980469 C 191.230469 218.980469 192.703125 220.453125 192.703125 222.210938 C 192.703125 231.335938 207.589844 238.988281 225.140625 238.988281 C 242.691406 238.988281 257.578125 231.265625 257.578125 222.210938 C 257.578125 220.382812 259.050781 218.980469 260.804688 218.980469 C 262.632812 218.980469 264.035156 220.453125 264.035156 222.210938 C 264.105469 235.199219 246.976562 245.449219 225.140625 245.449219 Z M 225.140625 245.449219 " fill-opacity="1" fill-rule="nonzero"/><path fill="#ffffff" d="M 225.140625 225.300781 C 203.304688 225.300781 186.246094 215.046875 186.246094 202.058594 C 186.246094 200.234375 187.71875 198.832031 189.472656 198.832031 C 191.230469 198.832031 192.703125 200.304688 192.703125 202.058594 C 192.703125 211.1875 207.589844 218.839844 225.140625 218.839844 C 242.691406 218.839844 257.578125 211.117188 257.578125 202.058594 C 257.578125 200.234375 259.050781 198.832031 260.804688 198.832031 C 262.632812 198.832031 264.035156 200.304688 264.035156 202.058594 C 264.105469 215.046875 246.976562 225.300781 225.140625 225.300781 Z M 225.140625 225.300781 " fill-opacity="1" fill-rule="nonzero"/><path fill="#ffffff" d="M 225.140625 265.527344 C 203.304688 265.527344 186.246094 255.277344 186.246094 242.289062 C 186.246094 240.464844 187.71875 239.058594 189.472656 239.058594 C 191.230469 239.058594 192.703125 240.535156 192.703125 242.289062 C 192.703125 251.417969 207.589844 259.070312 225.140625 259.070312 C 242.691406 259.070312 257.578125 251.347656 257.578125 242.289062 C 257.578125 240.464844 259.050781 239.058594 260.804688 239.058594 C 262.632812 239.058594 264.035156 240.535156 264.035156 242.289062 C 264.105469 255.347656 246.976562 265.527344 225.140625 265.527344 Z M 225.140625 265.527344 " fill-opacity="1" fill-rule="nonzero"/><path fill="#ffffff" d="M 139.484375 205.429688 C 117.652344 205.429688 100.589844 195.179688 100.589844 182.191406 C 100.589844 169.132812 117.652344 158.953125 139.484375 158.953125 C 161.320312 158.953125 178.382812 169.203125 178.382812 182.191406 C 178.382812 195.179688 161.390625 205.429688 139.484375 205.429688 Z M 139.484375 165.339844 C 121.933594 165.339844 107.050781 173.0625 107.050781 182.121094 C 107.050781 191.246094 121.933594 198.902344 139.484375 198.902344 C 157.039062 198.902344 171.921875 191.175781 171.921875 182.121094 C 171.992188 173.0625 157.109375 165.339844 139.484375 165.339844 Z M 139.484375 165.339844 " fill-opacity="1" fill-rule="nonzero"/><path fill="#ffffff" d="M 139.484375 285.46875 C 129.585938 285.46875 120.390625 283.5 113.507812 279.921875 C 105.222656 275.566406 100.589844 269.039062 100.589844 261.457031 L 100.589844 182.121094 C 100.589844 180.296875 102.066406 178.890625 103.820312 178.890625 C 105.574219 178.890625 107.050781 180.367188 107.050781 182.121094 C 107.050781 191.246094 121.933594 198.902344 139.484375 198.902344 C 157.039062 198.902344 171.921875 191.175781 171.921875 182.121094 C 171.921875 180.296875 173.398438 178.890625 175.152344 178.890625 C 176.90625 178.890625 178.382812 180.367188 178.382812 182.121094 L 178.382812 261.386719 C 178.453125 277.886719 158.300781 285.46875 139.484375 285.46875 Z M 107.050781 195.179688 L 107.050781 261.386719 C 107.050781 272.898438 123.410156 278.9375 139.484375 278.9375 C 155.5625 278.9375 171.921875 272.898438 171.921875 261.386719 L 171.921875 195.179688 C 165.042969 201.429688 153.175781 205.429688 139.484375 205.429688 C 125.796875 205.429688 113.929688 201.359375 107.050781 195.179688 Z M 107.050781 195.179688 " fill-opacity="1" fill-rule="nonzero"/><path fill="#ffffff" d="M 139.484375 245.449219 C 117.652344 245.449219 100.589844 235.199219 100.589844 222.210938 C 100.589844 220.382812 102.066406 218.980469 103.820312 218.980469 C 105.644531 218.980469 107.050781 220.453125 107.050781 222.210938 C 107.050781 231.335938 121.933594 238.988281 139.484375 238.988281 C 157.039062 238.988281 171.921875 231.265625 171.921875 222.210938 C 171.921875 220.382812 173.398438 218.980469 175.152344 218.980469 C 176.90625 218.980469 178.382812 220.453125 178.382812 222.210938 C 178.453125 235.199219 161.390625 245.449219 139.484375 245.449219 Z M 139.484375 245.449219 " fill-opacity="1" fill-rule="nonzero"/><path fill="#ffffff" d="M 139.484375 225.300781 C 117.652344 225.300781 100.589844 215.046875 100.589844 202.058594 C 100.589844 200.234375 102.066406 198.832031 103.820312 198.832031 C 105.644531 198.832031 107.050781 200.304688 107.050781 202.058594 C 107.050781 211.1875 121.933594 218.839844 139.484375 218.839844 C 157.039062 218.839844 171.921875 211.117188 171.921875 202.058594 C 171.921875 200.234375 173.398438 198.832031 175.152344 198.832031 C 176.90625 198.832031 178.382812 200.304688 178.382812 202.058594 C 178.453125 215.046875 161.390625 225.300781 139.484375 225.300781 Z M 139.484375 225.300781 " fill-opacity="1" fill-rule="nonzero"/><path fill="#ffffff" d="M 139.484375 265.527344 C 117.652344 265.527344 100.589844 255.277344 100.589844 242.289062 C 100.589844 240.464844 102.066406 239.058594 103.820312 239.058594 C 105.644531 239.058594 107.050781 240.535156 107.050781 242.289062 C 107.050781 251.417969 121.933594 259.070312 139.484375 259.070312 C 157.039062 259.070312 171.921875 251.347656 171.921875 242.289062 C 171.921875 240.464844 173.398438 239.058594 175.152344 239.058594 C 176.90625 239.058594 178.382812 240.535156 178.382812 242.289062 C 178.453125 255.347656 161.390625 265.527344 139.484375 265.527344 Z M 139.484375 265.527344 " fill-opacity="1" fill-rule="nonzero"/><path fill="#ffffff" d="M 310.792969 205.429688 C 288.960938 205.429688 271.898438 195.179688 271.898438 182.191406 C 271.898438 169.132812 288.960938 158.953125 310.792969 158.953125 C 332.628906 158.953125 349.691406 169.132812 349.691406 182.191406 C 349.691406 195.25 332.628906 205.429688 310.792969 205.429688 Z M 310.792969 165.339844 C 293.242188 165.339844 278.359375 173.0625 278.359375 182.121094 C 278.359375 191.246094 293.242188 198.902344 310.792969 198.902344 C 328.347656 198.902344 343.230469 191.175781 343.230469 182.121094 C 343.230469 173.0625 328.347656 165.339844 310.792969 165.339844 Z M 310.792969 165.339844 " fill-opacity="1" fill-rule="nonzero"/><path fill="#ffffff" d="M 310.792969 285.46875 C 300.894531 285.46875 291.699219 283.5 284.816406 279.921875 C 276.53125 275.566406 271.898438 269.039062 271.898438 261.457031 L 271.898438 182.121094 C 271.898438 180.296875 273.375 178.890625 275.128906 178.890625 C 276.882812 178.890625 278.359375 180.367188 278.359375 182.121094 C 278.359375 191.246094 293.242188 198.902344 310.792969 198.902344 C 328.347656 198.902344 343.230469 191.175781 343.230469 182.121094 C 343.230469 180.296875 344.707031 178.890625 346.460938 178.890625 C 348.285156 178.890625 349.691406 180.367188 349.691406 182.121094 L 349.691406 261.386719 C 349.691406 277.886719 329.539062 285.46875 310.792969 285.46875 Z M 278.289062 195.179688 L 278.289062 261.386719 C 278.289062 272.898438 294.648438 278.9375 310.722656 278.9375 C 326.871094 278.9375 343.160156 272.898438 343.160156 261.386719 L 343.160156 195.179688 C 336.28125 201.429688 324.414062 205.429688 310.722656 205.429688 C 297.035156 205.429688 285.238281 201.359375 278.289062 195.179688 Z M 278.289062 195.179688 " fill-opacity="1" fill-rule="nonzero"/><path fill="#ffffff" d="M 310.792969 245.449219 C 288.960938 245.449219 271.898438 235.199219 271.898438 222.210938 C 271.898438 220.382812 273.375 218.980469 275.128906 218.980469 C 276.953125 218.980469 278.359375 220.453125 278.359375 222.210938 C 278.359375 231.335938 293.242188 238.988281 310.792969 238.988281 C 328.347656 238.988281 343.230469 231.265625 343.230469 222.210938 C 343.230469 220.382812 344.707031 218.980469 346.460938 218.980469 C 348.285156 218.980469 349.691406 220.453125 349.691406 222.210938 C 349.691406 235.199219 332.628906 245.449219 310.792969 245.449219 Z M 310.792969 245.449219 " fill-opacity="1" fill-rule="nonzero"/><path fill="#ffffff" d="M 310.792969 225.300781 C 288.960938 225.300781 271.898438 215.046875 271.898438 202.058594 C 271.898438 200.234375 273.375 198.832031 275.128906 198.832031 C 276.953125 198.832031 278.359375 200.304688 278.359375 202.058594 C 278.359375 211.1875 293.242188 218.839844 310.792969 218.839844 C 328.347656 218.839844 343.230469 211.117188 343.230469 202.058594 C 343.230469 200.234375 344.707031 198.832031 346.460938 198.832031 C 348.285156 198.832031 349.691406 200.304688 349.691406 202.058594 C 349.691406 215.046875 332.628906 225.300781 310.792969 225.300781 Z M 310.792969 225.300781 " fill-opacity="1" fill-rule="nonzero"/><path fill="#ffffff" d="M 310.792969 265.527344 C 288.960938 265.527344 271.898438 255.277344 271.898438 242.289062 C 271.898438 240.464844 273.375 239.058594 275.128906 239.058594 C 276.953125 239.058594 278.359375 240.535156 278.359375 242.289062 C 278.359375 251.417969 293.242188 259.070312 310.792969 259.070312 C 328.347656 259.070312 343.230469 251.347656 343.230469 242.289062 C 343.230469 240.464844 344.707031 239.058594 346.460938 239.058594 C 348.285156 239.058594 349.691406 240.535156 349.691406 242.289062 C 349.691406 255.347656 332.628906 265.527344 310.792969 265.527344 Z M 310.792969 265.527344 " fill-opacity="1" fill-rule="nonzero"/><path fill="#ffffff" d="M 160.40625 121.460938 L 118.632812 121.460938 C 114 121.460938 110.347656 117.738281 110.347656 113.175781 L 110.347656 60.730469 C 110.347656 56.097656 114.070312 52.445312 118.632812 52.445312 L 149.105469 52.445312 C 149.945312 52.445312 150.789062 52.796875 151.421875 53.429688 L 167.78125 69.925781 C 168.410156 70.558594 168.761719 71.332031 168.761719 72.246094 L 168.761719 113.316406 C 168.691406 117.808594 165.042969 121.460938 160.40625 121.460938 Z M 118.632812 58.835938 C 117.652344 58.835938 116.808594 59.675781 116.808594 60.660156 L 116.808594 113.175781 C 116.808594 114.160156 117.652344 115 118.632812 115 L 160.40625 115 C 161.390625 115 162.234375 114.160156 162.234375 113.175781 L 162.234375 73.4375 L 147.769531 58.835938 C 147.769531 58.835938 118.632812 58.835938 118.632812 58.835938 Z M 118.632812 58.835938 " fill-opacity="1" fill-rule="nonzero"/><path fill="#ffffff" d="M 165.324219 75.191406 L 156.265625 75.191406 C 150.507812 75.191406 145.875 70.558594 145.875 64.800781 L 145.875 55.605469 C 145.875 54.339844 146.648438 53.148438 147.910156 52.65625 C 149.175781 52.164062 150.507812 52.445312 151.421875 53.359375 L 167.640625 69.71875 C 168.550781 70.699219 168.832031 72.035156 168.339844 73.226562 C 167.851562 74.421875 166.65625 75.191406 165.324219 75.191406 Z M 152.40625 63.46875 L 152.40625 64.800781 C 152.40625 66.980469 154.230469 68.734375 156.335938 68.734375 L 157.601562 68.734375 Z M 152.40625 63.46875 " fill-opacity="1" fill-rule="nonzero"/><path fill="#ffffff" d="M 331.648438 121.460938 L 289.871094 121.460938 C 285.238281 121.460938 281.589844 117.738281 281.589844 113.175781 L 281.589844 60.730469 C 281.589844 56.097656 285.308594 52.445312 289.871094 52.445312 L 320.34375 52.445312 C 321.1875 52.445312 322.027344 52.796875 322.660156 53.429688 L 339.019531 69.925781 C 339.652344 70.558594 340 71.332031 340 72.246094 L 340 113.316406 C 340 117.808594 336.210938 121.460938 331.648438 121.460938 Z M 289.871094 58.835938 C 288.890625 58.835938 288.046875 59.675781 288.046875 60.660156 L 288.046875 113.175781 C 288.046875 114.160156 288.890625 115 289.871094 115 L 331.648438 115 C 332.628906 115 333.472656 114.160156 333.472656 113.175781 L 333.472656 73.4375 L 319.007812 58.835938 C 319.007812 58.835938 289.871094 58.835938 289.871094 58.835938 Z M 289.871094 58.835938 " fill-opacity="1" fill-rule="nonzero"/><path fill="#ffffff" d="M 336.632812 75.191406 L 327.574219 75.191406 C 321.816406 75.191406 317.183594 70.558594 317.183594 64.800781 L 317.183594 55.605469 C 317.183594 54.339844 317.957031 53.148438 319.21875 52.65625 C 320.484375 52.164062 321.816406 52.445312 322.730469 53.359375 L 338.949219 69.71875 C 339.859375 70.699219 340.140625 72.035156 339.652344 73.226562 C 339.089844 74.421875 337.894531 75.191406 336.632812 75.191406 Z M 323.574219 63.46875 L 323.574219 64.800781 C 323.574219 66.980469 325.398438 68.734375 327.503906 68.734375 L 328.769531 68.734375 Z M 323.574219 63.46875 " fill-opacity="1" fill-rule="nonzero"/><path fill="#ffffff" d="M 310.792969 145.191406 L 139.484375 145.191406 C 137.660156 145.191406 136.257812 143.714844 136.257812 141.960938 C 136.257812 140.207031 137.730469 138.730469 139.484375 138.730469 L 310.722656 138.730469 C 312.550781 138.730469 313.953125 140.207031 313.953125 141.960938 C 313.953125 143.714844 312.550781 145.191406 310.792969 145.191406 Z M 310.792969 145.191406 " fill-opacity="1" fill-rule="nonzero"/><path fill="#ffffff" d="M 225.140625 165.339844 C 223.316406 165.339844 221.910156 163.867188 221.910156 162.113281 L 221.910156 118.300781 C 221.910156 116.476562 223.386719 115.070312 225.140625 115.070312 C 226.894531 115.070312 228.371094 116.546875 228.371094 118.300781 L 228.371094 162.113281 C 228.371094 163.867188 226.894531 165.339844 225.140625 165.339844 Z M 225.140625 165.339844 " fill-opacity="1" fill-rule="nonzero"/><path fill="#ffffff" d="M 245.992188 121.460938 L 204.21875 121.460938 C 199.585938 121.460938 195.933594 117.738281 195.933594 113.175781 L 195.933594 60.730469 C 195.933594 56.097656 199.65625 52.445312 204.21875 52.445312 L 234.6875 52.445312 C 235.53125 52.445312 236.375 52.796875 237.003906 53.429688 L 253.363281 69.925781 C 253.996094 70.558594 254.347656 71.332031 254.347656 72.246094 L 254.347656 113.316406 C 254.347656 117.808594 250.625 121.460938 245.992188 121.460938 Z M 204.289062 58.835938 C 203.304688 58.835938 202.464844 59.675781 202.464844 60.660156 L 202.464844 113.175781 C 202.464844 114.160156 203.304688 115 204.289062 115 L 246.0625 115 C 247.046875 115 247.886719 114.160156 247.886719 113.175781 L 247.886719 73.4375 L 233.425781 58.835938 C 233.425781 58.835938 204.289062 58.835938 204.289062 58.835938 Z M 204.289062 58.835938 " fill-opacity="1" fill-rule="nonzero"/><path fill="#ffffff" d="M 250.976562 75.191406 L 241.921875 75.191406 C 236.164062 75.191406 231.53125 70.558594 231.53125 64.800781 L 231.53125 55.605469 C 231.53125 54.339844 232.300781 53.148438 233.566406 52.65625 C 234.828125 52.164062 236.164062 52.445312 237.074219 53.359375 L 253.292969 69.71875 C 254.207031 70.699219 254.488281 72.035156 253.996094 73.226562 C 253.503906 74.421875 252.3125 75.191406 250.976562 75.191406 Z M 237.988281 63.46875 L 237.988281 64.800781 C 237.988281 66.980469 239.8125 68.734375 241.921875 68.734375 L 243.183594 68.734375 Z M 237.988281 63.46875 " fill-opacity="1" fill-rule="nonzero"/><path fill="#ffffff" d="M 139.484375 165.339844 C 137.660156 165.339844 136.257812 163.867188 136.257812 162.113281 L 136.257812 118.300781 C 136.257812 116.476562 137.730469 115.070312 139.484375 115.070312 C 141.3125 115.070312 142.714844 116.546875 142.714844 118.300781 L 142.714844 162.113281 C 142.785156 163.867188 141.3125 165.339844 139.484375 165.339844 Z M 139.484375 165.339844 " fill-opacity="1" fill-rule="nonzero"/><path fill="#ffffff" d="M 310.792969 165.339844 C 308.96875 165.339844 307.566406 163.867188 307.566406 162.113281 L 307.566406 118.300781 C 307.566406 116.476562 309.039062 115.070312 310.792969 115.070312 C 312.621094 115.070312 314.023438 116.546875 314.023438 118.300781 L 314.023438 162.113281 C 314.023438 163.867188 312.550781 165.339844 310.792969 165.339844 Z M 310.792969 165.339844 " fill-opacity="1" fill-rule="nonzero"/><path fill="#ffffff" d="M 153.246094 107.347656 L 125.726562 107.347656 C 123.898438 107.347656 122.496094 105.875 122.496094 104.121094 C 122.496094 102.363281 123.96875 100.890625 125.726562 100.890625 L 153.246094 100.890625 C 155.074219 100.890625 156.476562 102.363281 156.476562 104.121094 C 156.476562 105.875 155.074219 107.347656 153.246094 107.347656 Z M 153.246094 107.347656 " fill-opacity="1" fill-rule="nonzero"/><path fill="#ffffff" d="M 153.246094 90.21875 L 125.726562 90.21875 C 123.898438 90.21875 122.496094 88.742188 122.496094 86.988281 C 122.496094 85.164062 123.96875 83.757812 125.726562 83.757812 L 153.246094 83.757812 C 155.074219 83.757812 156.476562 85.234375 156.476562 86.988281 C 156.546875 88.742188 155.074219 90.21875 153.246094 90.21875 Z M 153.246094 90.21875 " fill-opacity="1" fill-rule="nonzero"/><path fill="#ffffff" d="M 136.816406 73.085938 L 125.726562 73.085938 C 123.898438 73.085938 122.496094 71.613281 122.496094 69.859375 C 122.496094 68.101562 123.96875 66.628906 125.726562 66.628906 L 136.816406 66.628906 C 138.644531 66.628906 140.046875 68.101562 140.046875 69.859375 C 140.046875 71.613281 138.644531 73.085938 136.816406 73.085938 Z M 136.816406 73.085938 " fill-opacity="1" fill-rule="nonzero"/><path fill="#ffffff" d="M 238.902344 107.347656 L 211.378906 107.347656 C 209.554688 107.347656 208.148438 105.875 208.148438 104.121094 C 208.148438 102.363281 209.625 100.890625 211.378906 100.890625 L 238.902344 100.890625 C 240.726562 100.890625 242.128906 102.363281 242.128906 104.121094 C 242.128906 105.875 240.65625 107.347656 238.902344 107.347656 Z M 238.902344 107.347656 " fill-opacity="1" fill-rule="nonzero"/><path fill="#ffffff" d="M 238.902344 90.21875 L 211.378906 90.21875 C 209.554688 90.21875 208.148438 88.742188 208.148438 86.988281 C 208.148438 85.164062 209.625 83.757812 211.378906 83.757812 L 238.902344 83.757812 C 240.726562 83.757812 242.128906 85.234375 242.128906 86.988281 C 242.199219 88.742188 240.65625 90.21875 238.902344 90.21875 Z M 238.902344 90.21875 " fill-opacity="1" fill-rule="nonzero"/><path fill="#ffffff" d="M 222.402344 73.085938 L 211.308594 73.085938 C 209.484375 73.085938 208.078125 71.613281 208.078125 69.859375 C 208.078125 68.101562 209.554688 66.628906 211.308594 66.628906 L 222.402344 66.628906 C 224.226562 66.628906 225.632812 68.101562 225.632812 69.859375 C 225.632812 71.613281 224.226562 73.085938 222.402344 73.085938 Z M 222.402344 73.085938 " fill-opacity="1" fill-rule="nonzero"/><path fill="#ffffff" d="M 324.554688 107.347656 L 297.035156 107.347656 C 295.207031 107.347656 293.804688 105.875 293.804688 104.121094 C 293.804688 102.363281 295.277344 100.890625 297.035156 100.890625 L 324.554688 100.890625 C 326.382812 100.890625 327.785156 102.363281 327.785156 104.121094 C 327.785156 105.875 326.3125 107.347656 324.554688 107.347656 Z M 324.554688 107.347656 " fill-opacity="1" fill-rule="nonzero"/><path fill="#ffffff" d="M 324.554688 90.21875 L 297.035156 90.21875 C 295.207031 90.21875 293.804688 88.742188 293.804688 86.988281 C 293.804688 85.164062 295.277344 83.757812 297.035156 83.757812 L 324.554688 83.757812 C 326.382812 83.757812 327.785156 85.234375 327.785156 86.988281 C 327.785156 88.742188 326.3125 90.21875 324.554688 90.21875 Z M 324.554688 90.21875 " fill-opacity="1" fill-rule="nonzero"/><path fill="#ffffff" d="M 308.054688 73.085938 L 296.964844 73.085938 C 295.136719 73.085938 293.734375 71.613281 293.734375 69.859375 C 293.734375 68.101562 295.207031 66.628906 296.964844 66.628906 L 308.054688 66.628906 C 309.882812 66.628906 311.285156 68.101562 311.285156 69.859375 C 311.285156 71.613281 309.8125 73.085938 308.054688 73.085938 Z M 308.054688 73.085938 " fill-opacity="1" fill-rule="nonzero"/></svg>