<svg xmlns="http://www.w3.org/2000/svg" xmlns:xlink="http://www.w3.org/1999/xlink" width="600" zoomAndPan="magnify" viewBox="0 0 450 337.499995" height="450" preserveAspectRatio="xMidYMid meet" version="1.0"><defs><g/><clipPath id="e86456a40e"><path d="M 0.332031 0 L 449.667969 0 L 449.667969 337 L 0.332031 337 Z M 0.332031 0 " clip-rule="nonzero"/></clipPath><clipPath id="8c2c94fb3d"><path d="M 6 6.953125 L 256 6.953125 L 256 257 L 6 257 Z M 6 6.953125 " clip-rule="nonzero"/></clipPath><clipPath id="ab666e9eef"><path d="M 384 323 L 396 323 L 396 329.726562 L 384 329.726562 Z M 384 323 " clip-rule="nonzero"/></clipPath><clipPath id="8064727603"><path d="M 342 323 L 354 323 L 354 329.726562 L 342 329.726562 Z M 342 323 " clip-rule="nonzero"/></clipPath><clipPath id="2b330afd2f"><path d="M 127 247 L 190 247 L 190 329.726562 L 127 329.726562 Z M 127 247 " clip-rule="nonzero"/></clipPath><clipPath id="1910b0df95"><path d="M 127 247 L 174 247 L 174 329.726562 L 127 329.726562 Z M 127 247 " clip-rule="nonzero"/></clipPath><clipPath id="fb1de3b4db"><path d="M 173 324 L 190 324 L 190 329.726562 L 173 329.726562 Z M 173 324 " clip-rule="nonzero"/></clipPath><clipPath id="9d443cc40f"><path d="M 74 279 L 158 279 L 158 329.726562 L 74 329.726562 Z M 74 279 " clip-rule="nonzero"/></clipPath><clipPath id="b52ef10d1e"><path d="M 74 279 L 136 279 L 136 329.726562 L 74 329.726562 Z M 74 279 " clip-rule="nonzero"/></clipPath><clipPath id="86cbf3ee6f"><path d="M 135 327 L 158 327 L 158 329.726562 L 135 329.726562 Z M 135 327 " clip-rule="nonzero"/></clipPath><clipPath id="8b4a20b596"><path d="M 86 324 L 110 324 L 110 329.726562 L 86 329.726562 Z M 86 324 " clip-rule="nonzero"/></clipPath><clipPath id="55adeefc40"><path d="M 38 324 L 49 324 L 49 329.726562 L 38 329.726562 Z M 38 324 " clip-rule="nonzero"/></clipPath><clipPath id="207068c9f0"><path d="M 382 323 L 399 323 L 399 329.726562 L 382 329.726562 Z M 382 323 " clip-rule="nonzero"/></clipPath><clipPath id="8d3bc95c9a"><path d="M 384 327 L 402 327 L 402 329.726562 L 384 329.726562 Z M 384 327 " clip-rule="nonzero"/></clipPath><clipPath id="b4b38a2aa6"><path d="M 390 211 L 412 211 L 412 329.726562 L 390 329.726562 Z M 390 211 " clip-rule="nonzero"/></clipPath><clipPath id="c2f8df3417"><path d="M 414.289062 141.035156 L 443.953125 141.035156 L 443.953125 215.738281 L 414.289062 215.738281 Z M 414.289062 141.035156 " clip-rule="nonzero"/></clipPath><clipPath id="7bf77a12ed"><path d="M 283 285 L 340 285 L 340 329.726562 L 283 329.726562 Z M 283 285 " clip-rule="nonzero"/></clipPath><clipPath id="60b4db3a4a"><path d="M 303 285 L 320 285 L 320 329.726562 L 303 329.726562 Z M 303 285 " clip-rule="nonzero"/></clipPath></defs><g clip-path="url(#e86456a40e)"><path fill="#ffffff" d="M 0.332031 0 L 449.667969 0 L 449.667969 337 L 0.332031 337 Z M 0.332031 0 " fill-opacity="1" fill-rule="nonzero"/><path fill="#ffffff" d="M 0.332031 0 L 449.667969 0 L 449.667969 337 L 0.332031 337 Z M 0.332031 0 " fill-opacity="1" fill-rule="nonzero"/></g><g fill="#000000" fill-opacity="1"><g transform="translate(185.233906, 173.368148)"><g><path d="M 0.6875 -5.578125 C 0.6875 -6.660156 0.929688 -7.632812 1.421875 -8.5 C 1.910156 -9.375 2.578125 -10.054688 3.421875 -10.546875 C 4.265625 -11.035156 5.207031 -11.28125 6.25 -11.28125 C 7.457031 -11.28125 8.515625 -10.984375 9.421875 -10.390625 C 10.328125 -9.804688 10.988281 -8.976562 11.40625 -7.90625 L 9.65625 -7.90625 C 9.351562 -8.570312 8.910156 -9.085938 8.328125 -9.453125 C 7.742188 -9.816406 7.050781 -10 6.25 -10 C 5.46875 -10 4.765625 -9.816406 4.140625 -9.453125 C 3.523438 -9.085938 3.039062 -8.570312 2.6875 -7.90625 C 2.34375 -7.25 2.171875 -6.472656 2.171875 -5.578125 C 2.171875 -4.691406 2.34375 -3.914062 2.6875 -3.25 C 3.039062 -2.582031 3.523438 -2.066406 4.140625 -1.703125 C 4.765625 -1.347656 5.46875 -1.171875 6.25 -1.171875 C 7.050781 -1.171875 7.742188 -1.347656 8.328125 -1.703125 C 8.910156 -2.054688 9.351562 -2.566406 9.65625 -3.234375 L 11.40625 -3.234375 C 10.988281 -2.171875 10.328125 -1.347656 9.421875 -0.765625 C 8.515625 -0.191406 7.457031 0.09375 6.25 0.09375 C 5.207031 0.09375 4.265625 -0.144531 3.421875 -0.625 C 2.578125 -1.113281 1.910156 -1.785156 1.421875 -2.640625 C 0.929688 -3.503906 0.6875 -4.484375 0.6875 -5.578125 Z M 0.6875 -5.578125 "/></g></g></g><g fill="#000000" fill-opacity="1"><g transform="translate(197.56467, 173.368148)"><g><path d="M 5.046875 0.140625 C 4.222656 0.140625 3.476562 -0.0390625 2.8125 -0.40625 C 2.15625 -0.78125 1.632812 -1.3125 1.25 -2 C 0.875 -2.6875 0.6875 -3.484375 0.6875 -4.390625 C 0.6875 -5.285156 0.878906 -6.078125 1.265625 -6.765625 C 1.660156 -7.453125 2.191406 -7.976562 2.859375 -8.34375 C 3.523438 -8.707031 4.273438 -8.890625 5.109375 -8.890625 C 5.941406 -8.890625 6.691406 -8.707031 7.359375 -8.34375 C 8.035156 -7.976562 8.566406 -7.453125 8.953125 -6.765625 C 9.335938 -6.085938 9.53125 -5.296875 9.53125 -4.390625 C 9.53125 -3.484375 9.328125 -2.6875 8.921875 -2 C 8.523438 -1.3125 7.988281 -0.78125 7.3125 -0.40625 C 6.632812 -0.0390625 5.878906 0.140625 5.046875 0.140625 Z M 5.046875 -1.140625 C 5.566406 -1.140625 6.054688 -1.257812 6.515625 -1.5 C 6.972656 -1.75 7.34375 -2.117188 7.625 -2.609375 C 7.90625 -3.097656 8.046875 -3.691406 8.046875 -4.390625 C 8.046875 -5.097656 7.90625 -5.695312 7.625 -6.1875 C 7.351562 -6.675781 6.992188 -7.039062 6.546875 -7.28125 C 6.097656 -7.519531 5.613281 -7.640625 5.09375 -7.640625 C 4.5625 -7.640625 4.070312 -7.519531 3.625 -7.28125 C 3.1875 -7.039062 2.832031 -6.675781 2.5625 -6.1875 C 2.300781 -5.695312 2.171875 -5.097656 2.171875 -4.390625 C 2.171875 -3.679688 2.300781 -3.082031 2.5625 -2.59375 C 2.820312 -2.101562 3.171875 -1.738281 3.609375 -1.5 C 4.046875 -1.257812 4.523438 -1.140625 5.046875 -1.140625 Z M 5.046875 -1.140625 "/></g></g></g><g fill="#000000" fill-opacity="1"><g transform="translate(207.787067, 173.368148)"><g><path d="M 4.84375 -8.890625 C 5.59375 -8.890625 6.253906 -8.722656 6.828125 -8.390625 C 7.398438 -8.066406 7.820312 -7.65625 8.09375 -7.15625 L 8.09375 -8.75 L 9.5625 -8.75 L 9.5625 0.1875 C 9.5625 0.988281 9.390625 1.695312 9.046875 2.3125 C 8.710938 2.9375 8.226562 3.425781 7.59375 3.78125 C 6.957031 4.132812 6.21875 4.3125 5.375 4.3125 C 4.226562 4.3125 3.269531 4.039062 2.5 3.5 C 1.738281 2.957031 1.289062 2.21875 1.15625 1.28125 L 2.59375 1.28125 C 2.75 1.8125 3.078125 2.238281 3.578125 2.5625 C 4.078125 2.882812 4.675781 3.046875 5.375 3.046875 C 6.175781 3.046875 6.828125 2.796875 7.328125 2.296875 C 7.835938 1.796875 8.09375 1.09375 8.09375 0.1875 L 8.09375 -1.640625 C 7.8125 -1.128906 7.382812 -0.703125 6.8125 -0.359375 C 6.25 -0.0234375 5.59375 0.140625 4.84375 0.140625 C 4.0625 0.140625 3.351562 -0.046875 2.71875 -0.421875 C 2.082031 -0.804688 1.582031 -1.34375 1.21875 -2.03125 C 0.863281 -2.726562 0.6875 -3.519531 0.6875 -4.40625 C 0.6875 -5.300781 0.863281 -6.085938 1.21875 -6.765625 C 1.582031 -7.441406 2.082031 -7.960938 2.71875 -8.328125 C 3.351562 -8.703125 4.0625 -8.890625 4.84375 -8.890625 Z M 8.09375 -4.390625 C 8.09375 -5.046875 7.957031 -5.617188 7.6875 -6.109375 C 7.425781 -6.597656 7.066406 -6.972656 6.609375 -7.234375 C 6.160156 -7.503906 5.664062 -7.640625 5.125 -7.640625 C 4.582031 -7.640625 4.085938 -7.507812 3.640625 -7.25 C 3.191406 -6.988281 2.832031 -6.613281 2.5625 -6.125 C 2.300781 -5.632812 2.171875 -5.0625 2.171875 -4.40625 C 2.171875 -3.738281 2.300781 -3.15625 2.5625 -2.65625 C 2.832031 -2.164062 3.191406 -1.789062 3.640625 -1.53125 C 4.085938 -1.269531 4.582031 -1.140625 5.125 -1.140625 C 5.664062 -1.140625 6.160156 -1.269531 6.609375 -1.53125 C 7.066406 -1.789062 7.425781 -2.164062 7.6875 -2.65625 C 7.957031 -3.15625 8.09375 -3.734375 8.09375 -4.390625 Z M 8.09375 -4.390625 "/></g></g></g><g fill="#000000" fill-opacity="1"><g transform="translate(218.584478, 173.368148)"><g><path d="M 5.5 -8.90625 C 6.5625 -8.90625 7.421875 -8.582031 8.078125 -7.9375 C 8.734375 -7.300781 9.0625 -6.375 9.0625 -5.15625 L 9.0625 0 L 7.640625 0 L 7.640625 -4.953125 C 7.640625 -5.828125 7.421875 -6.492188 6.984375 -6.953125 C 6.546875 -7.421875 5.945312 -7.65625 5.1875 -7.65625 C 4.425781 -7.65625 3.816406 -7.414062 3.359375 -6.9375 C 2.910156 -6.457031 2.6875 -5.757812 2.6875 -4.84375 L 2.6875 0 L 1.234375 0 L 1.234375 -8.75 L 2.6875 -8.75 L 2.6875 -7.5 C 2.96875 -7.945312 3.351562 -8.289062 3.84375 -8.53125 C 4.34375 -8.78125 4.894531 -8.90625 5.5 -8.90625 Z M 5.5 -8.90625 "/></g></g></g><g fill="#000000" fill-opacity="1"><g transform="translate(228.806874, 173.368148)"><g><path d="M 1.984375 -10.171875 C 1.703125 -10.171875 1.460938 -10.265625 1.265625 -10.453125 C 1.078125 -10.648438 0.984375 -10.882812 0.984375 -11.15625 C 0.984375 -11.4375 1.078125 -11.671875 1.265625 -11.859375 C 1.460938 -12.054688 1.703125 -12.15625 1.984375 -12.15625 C 2.242188 -12.15625 2.46875 -12.054688 2.65625 -11.859375 C 2.84375 -11.671875 2.9375 -11.4375 2.9375 -11.15625 C 2.9375 -10.882812 2.84375 -10.648438 2.65625 -10.453125 C 2.46875 -10.265625 2.242188 -10.171875 1.984375 -10.171875 Z M 2.6875 -8.75 L 2.6875 0 L 1.234375 0 L 1.234375 -8.75 Z M 2.6875 -8.75 "/></g></g></g><g fill="#000000" fill-opacity="1"><g transform="translate(232.736104, 173.368148)"><g><path d="M 5.046875 0.140625 C 4.222656 0.140625 3.476562 -0.0390625 2.8125 -0.40625 C 2.15625 -0.78125 1.632812 -1.3125 1.25 -2 C 0.875 -2.6875 0.6875 -3.484375 0.6875 -4.390625 C 0.6875 -5.285156 0.878906 -6.078125 1.265625 -6.765625 C 1.660156 -7.453125 2.191406 -7.976562 2.859375 -8.34375 C 3.523438 -8.707031 4.273438 -8.890625 5.109375 -8.890625 C 5.941406 -8.890625 6.691406 -8.707031 7.359375 -8.34375 C 8.035156 -7.976562 8.566406 -7.453125 8.953125 -6.765625 C 9.335938 -6.085938 9.53125 -5.296875 9.53125 -4.390625 C 9.53125 -3.484375 9.328125 -2.6875 8.921875 -2 C 8.523438 -1.3125 7.988281 -0.78125 7.3125 -0.40625 C 6.632812 -0.0390625 5.878906 0.140625 5.046875 0.140625 Z M 5.046875 -1.140625 C 5.566406 -1.140625 6.054688 -1.257812 6.515625 -1.5 C 6.972656 -1.75 7.34375 -2.117188 7.625 -2.609375 C 7.90625 -3.097656 8.046875 -3.691406 8.046875 -4.390625 C 8.046875 -5.097656 7.90625 -5.695312 7.625 -6.1875 C 7.351562 -6.675781 6.992188 -7.039062 6.546875 -7.28125 C 6.097656 -7.519531 5.613281 -7.640625 5.09375 -7.640625 C 4.5625 -7.640625 4.070312 -7.519531 3.625 -7.28125 C 3.1875 -7.039062 2.832031 -6.675781 2.5625 -6.1875 C 2.300781 -5.695312 2.171875 -5.097656 2.171875 -4.390625 C 2.171875 -3.679688 2.300781 -3.082031 2.5625 -2.59375 C 2.820312 -2.101562 3.171875 -1.738281 3.609375 -1.5 C 4.046875 -1.257812 4.523438 -1.140625 5.046875 -1.140625 Z M 5.046875 -1.140625 "/></g></g></g><g fill="#000000" fill-opacity="1"><g transform="translate(242.9585, 173.368148)"><g><path d="M 5.5 -8.90625 C 6.5625 -8.90625 7.421875 -8.582031 8.078125 -7.9375 C 8.734375 -7.300781 9.0625 -6.375 9.0625 -5.15625 L 9.0625 0 L 7.640625 0 L 7.640625 -4.953125 C 7.640625 -5.828125 7.421875 -6.492188 6.984375 -6.953125 C 6.546875 -7.421875 5.945312 -7.65625 5.1875 -7.65625 C 4.425781 -7.65625 3.816406 -7.414062 3.359375 -6.9375 C 2.910156 -6.457031 2.6875 -5.757812 2.6875 -4.84375 L 2.6875 0 L 1.234375 0 L 1.234375 -8.75 L 2.6875 -8.75 L 2.6875 -7.5 C 2.96875 -7.945312 3.351562 -8.289062 3.84375 -8.53125 C 4.34375 -8.78125 4.894531 -8.90625 5.5 -8.90625 Z M 5.5 -8.90625 "/></g></g></g><g fill="#000000" fill-opacity="1"><g transform="translate(253.180896, 173.368148)"><g><path d="M 1.984375 -10.171875 C 1.703125 -10.171875 1.460938 -10.265625 1.265625 -10.453125 C 1.078125 -10.648438 0.984375 -10.882812 0.984375 -11.15625 C 0.984375 -11.4375 1.078125 -11.671875 1.265625 -11.859375 C 1.460938 -12.054688 1.703125 -12.15625 1.984375 -12.15625 C 2.242188 -12.15625 2.46875 -12.054688 2.65625 -11.859375 C 2.84375 -11.671875 2.9375 -11.4375 2.9375 -11.15625 C 2.9375 -10.882812 2.84375 -10.648438 2.65625 -10.453125 C 2.46875 -10.265625 2.242188 -10.171875 1.984375 -10.171875 Z M 2.6875 -8.75 L 2.6875 0 L 1.234375 0 L 1.234375 -8.75 Z M 2.6875 -8.75 "/></g></g></g><g fill="#000000" fill-opacity="1"><g transform="translate(257.110126, 173.368148)"><g><path d="M 5.796875 0 L 3.71875 -3.25 L 1.71875 0 L 0.203125 0 L 3.03125 -4.34375 L 0.203125 -8.75 L 1.859375 -8.75 L 3.921875 -5.515625 L 5.90625 -8.75 L 7.421875 -8.75 L 4.609375 -4.421875 L 7.4375 0 Z M 5.796875 0 "/></g></g></g><g clip-path="url(#8c2c94fb3d)"><path fill="#f4f4f4" d="M 166.449219 246.03125 C 181.472656 237.074219 194.378906 222.621094 203.867188 204.507812 C 221.976562 195.019531 236.433594 182.109375 245.386719 167.089844 C 233.707031 204.652344 204.011719 234.347656 166.449219 246.03125 Z M 16.453125 167.089844 C 25.40625 182.109375 39.867188 195.019531 57.972656 204.507812 C 67.460938 222.621094 80.367188 237.074219 95.386719 246.03125 C 57.828125 234.351562 28.132812 204.652344 16.453125 167.089844 Z M 95.390625 17.078125 C 80.367188 26.039062 67.460938 40.492188 57.972656 58.605469 C 39.867188 68.09375 25.40625 81.003906 16.453125 96.023438 C 28.132812 58.460938 57.832031 28.761719 95.390625 17.078125 Z M 219.667969 152.644531 C 220.519531 145.785156 220.988281 138.746094 220.988281 131.554688 C 220.988281 124.367188 220.519531 117.328125 219.667969 110.46875 C 239.449219 116.425781 250.765625 124.117188 250.765625 131.554688 C 250.765625 138.996094 239.449219 146.6875 219.667969 152.644531 Z M 218.988281 157.636719 C 232.640625 153.746094 243.4375 148.847656 249.648438 143.050781 C 245.53125 164.714844 229.980469 183.824219 207.441406 197.167969 C 212.832031 185.191406 216.789062 171.863281 218.988281 157.636719 Z M 158.351562 214.601562 C 161.917969 200.59375 164.507812 184.070312 165.996094 166.636719 C 183.433594 165.148438 199.953125 162.558594 213.960938 158.992188 C 211.390625 174.347656 206.714844 188.5625 200.382812 201.027344 C 187.925781 207.355469 173.707031 212.03125 158.351562 214.601562 Z M 157 219.628906 C 171.222656 217.429688 184.546875 213.472656 196.527344 208.082031 C 183.183594 230.621094 164.074219 246.175781 142.414062 250.292969 C 148.207031 244.082031 153.109375 233.285156 157 219.628906 Z M 109.832031 220.316406 C 116.691406 221.164062 123.730469 221.632812 130.917969 221.632812 C 138.109375 221.632812 145.148438 221.164062 152.003906 220.316406 C 146.050781 240.09375 138.359375 251.410156 130.917969 251.410156 C 123.480469 251.410156 115.789062 240.09375 109.832031 220.316406 Z M 104.839844 219.628906 C 108.730469 233.285156 113.632812 244.082031 119.425781 250.292969 C 97.765625 246.175781 78.660156 230.621094 65.3125 208.085938 C 77.292969 213.472656 90.617188 217.429688 104.839844 219.628906 Z M 47.882812 158.992188 C 61.886719 162.558594 78.40625 165.148438 95.84375 166.636719 C 97.332031 184.070312 99.917969 200.59375 103.488281 214.601562 C 88.132812 212.03125 73.914062 207.355469 61.457031 201.027344 C 55.125 188.5625 50.453125 174.347656 47.882812 158.992188 Z M 42.855469 157.640625 C 45.050781 171.863281 49.011719 185.191406 54.398438 197.167969 C 31.859375 183.824219 16.308594 164.714844 12.195312 143.050781 C 18.402344 148.847656 29.199219 153.75 42.855469 157.640625 Z M 42.171875 110.46875 C 41.320312 117.328125 40.855469 124.367188 40.855469 131.554688 C 40.855469 138.746094 41.320312 145.785156 42.171875 152.644531 C 22.390625 146.6875 11.078125 138.996094 11.078125 131.554688 C 11.078125 124.117188 22.390625 116.425781 42.171875 110.46875 Z M 42.855469 105.476562 C 29.199219 109.367188 18.402344 114.269531 12.195312 120.0625 C 16.308594 98.398438 31.859375 79.289062 54.398438 65.945312 C 49.011719 77.921875 45.050781 91.253906 42.855469 105.476562 Z M 103.488281 48.511719 C 99.917969 62.519531 97.332031 79.042969 95.84375 96.476562 C 78.40625 97.964844 61.886719 100.554688 47.878906 104.121094 C 50.453125 88.769531 55.125 74.550781 61.457031 62.089844 C 73.914062 55.757812 88.132812 51.082031 103.488281 48.511719 Z M 104.839844 43.484375 C 90.617188 45.683594 77.289062 49.640625 65.3125 55.03125 C 78.65625 32.492188 97.765625 16.933594 119.425781 12.820312 C 113.632812 19.027344 108.730469 29.828125 104.839844 43.484375 Z M 152.003906 42.800781 C 145.148438 41.949219 138.109375 41.484375 130.917969 41.484375 C 123.730469 41.484375 116.691406 41.949219 109.832031 42.800781 C 115.789062 23.019531 123.480469 11.703125 130.917969 11.703125 C 138.359375 11.703125 146.050781 23.019531 152.003906 42.800781 Z M 157 43.484375 C 153.109375 29.828125 148.207031 19.027344 142.414062 12.820312 C 164.074219 16.933594 183.183594 32.492188 196.527344 55.03125 C 184.550781 49.640625 171.222656 45.683594 157 43.484375 Z M 100.535156 96.109375 C 102.113281 77.242188 104.898438 60.902344 108.421875 47.757812 C 115.710938 46.765625 123.226562 46.230469 130.917969 46.230469 C 138.613281 46.230469 146.128906 46.765625 153.417969 47.757812 C 156.941406 60.902344 159.726562 77.242188 161.300781 96.109375 C 151.316406 95.371094 141.089844 94.988281 130.917969 94.988281 C 120.746094 94.988281 110.523438 95.371094 100.535156 96.109375 Z M 45.601562 131.554688 C 45.601562 123.863281 46.140625 116.347656 47.128906 109.058594 C 60.273438 105.53125 76.609375 102.75 95.472656 101.171875 C 94.742188 111.160156 94.355469 121.382812 94.355469 131.554688 C 94.355469 141.730469 94.742188 151.953125 95.472656 161.941406 C 76.609375 160.367188 60.273438 157.578125 47.128906 154.058594 C 46.140625 146.765625 45.601562 139.25 45.601562 131.554688 Z M 161.300781 167.007812 C 159.726562 185.871094 156.9375 202.210938 153.417969 215.355469 C 146.125 216.347656 138.613281 216.882812 130.917969 216.882812 C 123.226562 216.882812 115.710938 216.347656 108.421875 215.355469 C 104.898438 202.210938 102.113281 185.871094 100.535156 167.007812 C 110.523438 167.742188 120.746094 168.125 130.917969 168.125 C 141.089844 168.125 151.3125 167.742188 161.300781 167.007812 Z M 130.917969 163.378906 C 120.101562 163.378906 109.832031 163 100.167969 162.308594 C 99.480469 152.644531 99.097656 142.375 99.097656 131.554688 C 99.097656 120.738281 99.480469 110.464844 100.167969 100.804688 C 109.832031 100.117188 120.101562 99.734375 130.917969 99.734375 C 141.738281 99.734375 152.007812 100.117188 161.671875 100.804688 C 162.359375 110.464844 162.742188 120.738281 162.742188 131.554688 C 162.742188 142.375 162.359375 152.644531 161.671875 162.308594 C 152.007812 163 141.738281 163.378906 130.917969 163.378906 Z M 216.242188 131.554688 C 216.242188 139.25 215.703125 146.765625 214.714844 154.058594 C 201.566406 157.578125 185.230469 160.367188 166.367188 161.941406 C 167.097656 151.953125 167.484375 141.730469 167.484375 131.554688 C 167.484375 121.382812 167.097656 111.160156 166.367188 101.171875 C 185.230469 102.75 201.566406 105.53125 214.714844 109.058594 C 215.703125 116.347656 216.242188 123.863281 216.242188 131.554688 Z M 207.441406 65.945312 C 229.980469 79.289062 245.53125 98.398438 249.648438 120.0625 C 243.4375 114.269531 232.640625 109.367188 218.988281 105.476562 C 216.789062 91.253906 212.832031 77.921875 207.441406 65.945312 Z M 213.960938 104.121094 C 199.953125 100.554688 183.433594 97.964844 165.996094 96.476562 C 164.507812 79.042969 161.917969 62.519531 158.351562 48.511719 C 173.707031 51.082031 187.925781 55.757812 200.382812 62.089844 C 206.714844 74.550781 211.390625 88.769531 213.960938 104.121094 Z M 245.386719 96.027344 C 236.433594 81.003906 221.976562 68.09375 203.867188 58.605469 C 194.378906 40.492188 181.472656 26.039062 166.449219 17.078125 C 204.011719 28.761719 233.707031 58.460938 245.386719 96.027344 Z M 130.917969 6.953125 C 62.222656 6.953125 6.328125 62.851562 6.328125 131.554688 C 6.328125 200.261719 62.222656 256.15625 130.917969 256.15625 C 199.617188 256.15625 255.511719 200.261719 255.511719 131.554688 C 255.511719 62.851562 199.617188 6.953125 130.917969 6.953125 " fill-opacity="1" fill-rule="nonzero"/></g><path fill="#9dc7f9" d="M 366.085938 257.660156 L 135.46875 257.660156 C 132.960938 257.660156 130.933594 255.628906 130.933594 253.125 L 130.933594 91.28125 C 130.933594 88.777344 132.960938 86.75 135.46875 86.75 L 366.085938 86.75 C 368.589844 86.75 370.621094 88.777344 370.621094 91.28125 L 370.621094 253.125 C 370.621094 255.628906 368.589844 257.660156 366.085938 257.660156 " fill-opacity="1" fill-rule="nonzero"/><path fill="#9dc7f9" d="M 366.082031 86.75 L 135.289062 86.75 C 132.78125 86.75 130.75 88.738281 130.75 91.191406 L 130.75 103.207031 L 370.621094 103.207031 L 370.621094 91.191406 C 370.621094 88.738281 368.589844 86.75 366.082031 86.75 " fill-opacity="1" fill-rule="nonzero"/><path fill="#ffffff" d="M 143.425781 95.085938 C 143.425781 97.285156 141.652344 99.0625 139.453125 99.0625 C 137.261719 99.0625 135.484375 97.285156 135.484375 95.085938 C 135.484375 92.894531 137.261719 91.117188 139.453125 91.117188 C 141.652344 91.117188 143.425781 92.894531 143.425781 95.085938 " fill-opacity="1" fill-rule="nonzero"/><path fill="#ffcc4d" d="M 155.601562 95.085938 C 155.601562 97.285156 153.824219 99.0625 151.632812 99.0625 C 149.433594 99.0625 147.660156 97.285156 147.660156 95.085938 C 147.660156 92.894531 149.433594 91.117188 151.632812 91.117188 C 153.824219 91.117188 155.601562 92.894531 155.601562 95.085938 " fill-opacity="1" fill-rule="nonzero"/><path fill="#f54553" d="M 168.085938 95.085938 C 168.085938 97.285156 166.308594 99.0625 164.117188 99.0625 C 161.925781 99.0625 160.144531 97.285156 160.144531 95.085938 C 160.144531 92.894531 161.925781 91.117188 164.117188 91.117188 C 166.308594 91.117188 168.085938 92.894531 168.085938 95.085938 " fill-opacity="1" fill-rule="nonzero"/><path fill="#254799" d="M 370.621094 137.195312 L 130.933594 137.195312 L 130.933594 103.207031 L 370.621094 103.207031 L 370.621094 137.195312 " fill-opacity="1" fill-rule="nonzero"/><path fill="#ffcc4d" d="M 298.269531 126.15625 L 203.285156 126.15625 C 201.929688 126.15625 200.832031 125.054688 200.832031 123.699219 L 200.832031 116.699219 C 200.832031 115.347656 201.929688 114.246094 203.285156 114.246094 L 298.269531 114.246094 C 299.621094 114.246094 300.71875 115.347656 300.71875 116.699219 L 300.71875 123.699219 C 300.71875 125.054688 299.621094 126.15625 298.269531 126.15625 " fill-opacity="1" fill-rule="nonzero"/><path fill="#346ee3" d="M 282.113281 157.5 L 219.4375 157.5 C 218.082031 157.5 216.984375 156.40625 216.984375 155.046875 L 216.984375 148.046875 C 216.984375 146.691406 218.082031 145.59375 219.4375 145.59375 L 282.113281 145.59375 C 283.464844 145.59375 284.566406 146.691406 284.566406 148.046875 L 284.566406 155.046875 C 284.566406 156.40625 283.464844 157.5 282.113281 157.5 " fill-opacity="1" fill-rule="nonzero"/><path fill="#346ee3" d="M 360.808594 174.8125 L 298.066406 174.8125 C 296.726562 174.8125 295.644531 173.726562 295.644531 172.390625 L 295.644531 166.140625 C 295.644531 164.804688 296.726562 163.71875 298.066406 163.71875 L 360.808594 163.71875 C 362.144531 163.71875 363.226562 164.804688 363.226562 166.140625 L 363.226562 172.390625 C 363.226562 173.726562 362.144531 174.8125 360.808594 174.8125 " fill-opacity="1" fill-rule="nonzero"/><path fill="#346ee3" d="M 282.523438 225.695312 L 219.027344 225.695312 C 217.898438 225.695312 216.984375 224.777344 216.984375 223.652344 L 216.984375 221.78125 C 216.984375 220.65625 217.898438 219.738281 219.027344 219.738281 L 282.523438 219.738281 C 283.652344 219.738281 284.566406 220.65625 284.566406 221.78125 L 284.566406 223.652344 C 284.566406 224.777344 283.652344 225.695312 282.523438 225.695312 " fill-opacity="1" fill-rule="nonzero"/><path fill="#ffffff" d="M 282.039062 251.839844 L 219.507812 251.839844 C 218.113281 251.839844 216.984375 250.707031 216.984375 249.3125 L 216.984375 232.359375 C 216.984375 230.964844 218.113281 229.835938 219.507812 229.835938 L 282.039062 229.835938 C 283.4375 229.835938 284.566406 230.964844 284.566406 232.359375 L 284.566406 249.3125 C 284.566406 250.707031 283.4375 251.839844 282.039062 251.839844 " fill-opacity="1" fill-rule="nonzero"/><path fill="#ffffff" d="M 198.308594 211.585938 L 140.847656 211.585938 C 139.453125 211.585938 138.324219 210.457031 138.324219 209.066406 L 138.324219 166.246094 C 138.324219 164.847656 139.453125 163.71875 140.847656 163.71875 L 198.308594 163.71875 C 199.699219 163.71875 200.832031 164.847656 200.832031 166.246094 L 200.832031 209.066406 C 200.832031 210.457031 199.699219 211.585938 198.308594 211.585938 " fill-opacity="1" fill-rule="nonzero"/><path fill="#ffffff" d="M 198.308594 251.839844 L 140.847656 251.839844 C 139.453125 251.839844 138.324219 250.707031 138.324219 249.3125 L 138.324219 222.265625 C 138.324219 220.867188 139.453125 219.738281 140.847656 219.738281 L 198.308594 219.738281 C 199.699219 219.738281 200.832031 220.867188 200.832031 222.265625 L 200.832031 249.3125 C 200.832031 250.707031 199.699219 251.839844 198.308594 251.839844 " fill-opacity="1" fill-rule="nonzero"/><path fill="#ffffff" d="M 360.703125 251.839844 L 298.167969 251.839844 C 296.777344 251.839844 295.644531 250.707031 295.644531 249.3125 L 295.644531 222.265625 C 295.644531 220.867188 296.777344 219.738281 298.167969 219.738281 L 360.703125 219.738281 C 362.097656 219.738281 363.226562 220.867188 363.226562 222.265625 L 363.226562 249.3125 C 363.226562 250.707031 362.097656 251.839844 360.703125 251.839844 " fill-opacity="1" fill-rule="nonzero"/><path fill="#ffffff" d="M 282.039062 211.585938 L 219.507812 211.585938 C 218.113281 211.585938 216.984375 210.457031 216.984375 209.066406 L 216.984375 166.246094 C 216.984375 164.847656 218.113281 163.71875 219.507812 163.71875 L 282.039062 163.71875 C 283.4375 163.71875 284.566406 164.847656 284.566406 166.246094 L 284.566406 209.066406 C 284.566406 210.457031 283.4375 211.585938 282.039062 211.585938 " fill-opacity="1" fill-rule="nonzero"/><path fill="#346ee3" d="M 216.984375 190.960938 L 235.859375 177.878906 L 256.703125 193.617188 L 271.152344 185.746094 L 284.566406 193.617188 L 284.566406 209.066406 C 284.566406 210.457031 283.4375 211.585938 282.039062 211.585938 L 219.507812 211.585938 C 218.113281 211.585938 216.984375 210.457031 216.984375 209.066406 L 216.984375 190.960938 " fill-opacity="1" fill-rule="nonzero"/><path fill="#346ee3" d="M 262.023438 181.183594 C 262.023438 183.324219 260.289062 185.058594 258.148438 185.058594 C 256.007812 185.058594 254.273438 183.324219 254.273438 181.183594 C 254.273438 179.042969 256.007812 177.308594 258.148438 177.308594 C 260.289062 177.308594 262.023438 179.042969 262.023438 181.183594 " fill-opacity="1" fill-rule="nonzero"/><path fill="#ffffff" d="M 349.117188 211.585938 L 309.757812 211.585938 C 308.464844 211.585938 307.421875 210.542969 307.421875 209.257812 L 307.421875 183.511719 C 307.421875 182.226562 308.464844 181.183594 309.757812 181.183594 L 349.117188 181.183594 C 350.40625 181.183594 351.453125 182.226562 351.453125 183.511719 L 351.453125 209.257812 C 351.453125 210.542969 350.40625 211.585938 349.117188 211.585938 " fill-opacity="1" fill-rule="nonzero"/><path fill="#346ee3" d="M 324.476562 196.332031 L 330.234375 197.1875 L 329.417969 201.539062 L 323.894531 199.433594 Z M 318.691406 195.472656 L 323.015625 196.117188 L 322.492188 198.898438 L 318.691406 197.445312 Z M 325.480469 190.980469 L 331.398438 190.980469 L 330.507812 195.738281 L 324.746094 194.882812 Z M 323.289062 194.664062 L 318.691406 193.980469 L 318.691406 190.980469 L 323.980469 190.980469 Z M 335.164062 203.730469 L 330.816406 202.074219 L 331.691406 197.40625 L 336.472656 198.113281 Z M 336.808594 196.675781 L 331.964844 195.957031 L 332.898438 190.980469 L 338.136719 190.980469 Z M 343.203125 183.488281 C 342.433594 183.488281 341.816406 184.097656 341.785156 184.859375 L 339.238281 186.273438 L 338.484375 189.507812 L 317.953125 189.507812 C 317.546875 189.507812 317.214844 189.835938 317.214844 190.242188 L 317.214844 197.953125 C 317.214844 197.957031 317.214844 197.960938 317.214844 197.964844 C 317.21875 198.023438 317.238281 198.082031 317.253906 198.136719 C 317.261719 198.175781 317.261719 198.210938 317.277344 198.25 C 317.292969 198.289062 317.328125 198.324219 317.355469 198.363281 C 317.378906 198.402344 317.402344 198.445312 317.4375 198.480469 C 317.457031 198.503906 317.492188 198.515625 317.515625 198.535156 C 317.566406 198.570312 317.621094 198.613281 317.679688 198.636719 C 317.683594 198.640625 317.6875 198.644531 317.691406 198.644531 L 333.164062 204.546875 L 316.753906 204.472656 C 316.347656 204.472656 316.019531 204.800781 316.019531 205.207031 C 316.019531 205.617188 316.347656 205.945312 316.753906 205.945312 L 318.277344 205.945312 C 317.980469 206.300781 317.777344 206.746094 317.777344 207.246094 C 317.777344 208.371094 318.691406 209.28125 319.816406 209.28125 C 320.9375 209.28125 321.851562 208.371094 321.851562 207.246094 C 321.851562 206.746094 321.648438 206.300781 321.347656 205.945312 L 330.480469 205.945312 C 330.179688 206.300781 329.980469 206.746094 329.980469 207.246094 C 329.980469 208.371094 330.890625 209.28125 332.019531 209.28125 C 333.140625 209.28125 334.054688 208.371094 334.054688 207.246094 C 334.054688 206.746094 333.851562 206.300781 333.550781 205.945312 L 335.074219 205.945312 C 335.667969 205.945312 336.175781 205.558594 336.359375 205.011719 C 336.363281 205 336.375 204.996094 336.378906 204.984375 C 336.382812 204.96875 336.382812 204.953125 336.386719 204.941406 C 336.390625 204.921875 336.40625 204.90625 336.410156 204.886719 L 340.523438 187.246094 L 342.511719 186.144531 C 342.722656 186.261719 342.949219 186.34375 343.203125 186.34375 C 343.992188 186.34375 344.632812 185.707031 344.632812 184.917969 C 344.632812 184.128906 343.992188 183.488281 343.203125 183.488281 " fill-opacity="1" fill-rule="nonzero"/><path fill="#254799" d="M 423.683594 254.695312 L 423.699219 254.695312 Z M 414.507812 263.902344 Z M 335.578125 319.667969 C 335.578125 318.980469 336.136719 318.421875 336.824219 318.421875 L 399.316406 318.421875 L 412.074219 263.347656 C 412.167969 262.941406 412.371094 262.570312 412.671875 262.269531 L 422.128906 252.851562 C 422.546875 252.433594 423.105469 252.199219 423.699219 252.199219 L 429.28125 252.199219 C 429.964844 252.199219 430.527344 252.761719 430.527344 253.449219 C 430.527344 254.140625 429.964844 254.695312 429.28125 254.695312 L 423.8125 254.695312 L 414.488281 263.972656 L 401.695312 319.195312 C 401.460938 320.210938 400.570312 320.914062 399.527344 320.914062 L 336.824219 320.914062 C 336.136719 320.914062 335.578125 320.355469 335.578125 319.667969 " fill-opacity="1" fill-rule="nonzero"/><path fill="#254799" d="M 323.386719 264.398438 L 413.554688 264.398438 C 414.242188 264.398438 414.800781 263.835938 414.800781 263.152344 C 414.800781 262.460938 414.242188 261.902344 413.554688 261.902344 L 323.386719 261.902344 C 322.699219 261.902344 322.140625 262.460938 322.140625 263.152344 C 322.140625 263.835938 322.699219 264.398438 323.386719 264.398438 " fill-opacity="1" fill-rule="nonzero"/><path fill="#254799" d="M 329.199219 280.71875 L 409.617188 280.71875 C 410.304688 280.71875 410.863281 280.164062 410.863281 279.472656 C 410.863281 278.785156 410.304688 278.222656 409.617188 278.222656 L 329.199219 278.222656 C 328.507812 278.222656 327.953125 278.785156 327.953125 279.472656 C 327.953125 280.164062 328.507812 280.71875 329.199219 280.71875 " fill-opacity="1" fill-rule="nonzero"/><path fill="#254799" d="M 331.503906 295.914062 L 406.097656 295.914062 C 406.785156 295.914062 407.34375 295.351562 407.34375 294.664062 C 407.34375 293.972656 406.785156 293.417969 406.097656 293.417969 L 331.503906 293.417969 C 330.8125 293.417969 330.257812 293.972656 330.257812 294.664062 C 330.257812 295.351562 330.8125 295.914062 331.503906 295.914062 " fill-opacity="1" fill-rule="nonzero"/><path fill="#254799" d="M 334.332031 310.9375 C 334.472656 310.9375 334.613281 310.914062 334.753906 310.867188 C 335.398438 310.632812 335.738281 309.921875 335.507812 309.273438 L 324.5625 262.730469 C 324.332031 262.082031 323.621094 261.738281 322.96875 261.976562 C 322.320312 262.203125 321.980469 262.917969 322.214844 263.566406 L 333.160156 310.105469 C 333.339844 310.617188 333.820312 310.9375 334.332031 310.9375 " fill-opacity="1" fill-rule="nonzero"/><path fill="#254799" d="M 334.402344 311.105469 L 402.578125 311.105469 C 403.265625 311.105469 403.824219 310.542969 403.824219 309.855469 C 403.824219 309.171875 403.265625 308.609375 402.578125 308.609375 L 334.402344 308.609375 C 333.710938 308.609375 333.15625 309.171875 333.15625 309.855469 C 333.15625 310.542969 333.710938 311.105469 334.402344 311.105469 " fill-opacity="1" fill-rule="nonzero"/><path fill="#254799" d="M 382.09375 311.105469 C 382.671875 311.105469 383.1875 310.699219 383.3125 310.109375 L 393.015625 263.402344 C 393.160156 262.726562 392.726562 262.070312 392.050781 261.929688 C 391.382812 261.789062 390.71875 262.222656 390.578125 262.898438 L 380.875 309.605469 C 380.734375 310.277344 381.164062 310.9375 381.839844 311.078125 C 381.925781 311.09375 382.011719 311.105469 382.09375 311.105469 " fill-opacity="1" fill-rule="nonzero"/><path fill="#254799" d="M 355.070312 311.105469 C 355.148438 311.105469 355.222656 311.097656 355.300781 311.082031 C 355.976562 310.957031 356.421875 310.304688 356.296875 309.628906 L 347.574219 262.917969 C 347.445312 262.242188 346.789062 261.796875 346.117188 261.925781 C 345.445312 262.050781 344.996094 262.699219 345.121094 263.375 L 353.847656 310.085938 C 353.960938 310.6875 354.480469 311.105469 355.070312 311.105469 " fill-opacity="1" fill-rule="nonzero"/><g clip-path="url(#ab666e9eef)"><path fill="#254799" d="M 386.90625 328.679688 C 386.90625 330.261719 388.195312 331.554688 389.78125 331.554688 C 391.367188 331.554688 392.652344 330.261719 392.652344 328.679688 C 392.652344 327.09375 391.367188 325.804688 389.78125 325.804688 C 388.195312 325.804688 386.90625 327.09375 386.90625 328.679688 Z M 384.414062 328.679688 C 384.414062 325.722656 386.820312 323.3125 389.78125 323.3125 C 392.738281 323.3125 395.148438 325.722656 395.148438 328.679688 C 395.148438 331.640625 392.738281 334.046875 389.78125 334.046875 C 386.820312 334.046875 384.414062 331.640625 384.414062 328.679688 " fill-opacity="1" fill-rule="nonzero"/></g><path fill="#254799" d="M 425.15625 253.449219 C 425.15625 255.316406 426.671875 256.832031 428.542969 256.832031 C 430.414062 256.832031 431.929688 255.316406 431.929688 253.449219 C 431.929688 251.578125 430.414062 250.066406 428.542969 250.066406 C 426.671875 250.066406 425.15625 251.578125 425.15625 253.449219 " fill-opacity="1" fill-rule="nonzero"/><g clip-path="url(#8064727603)"><path fill="#254799" d="M 345.453125 328.679688 C 345.453125 330.261719 346.742188 331.554688 348.324219 331.554688 C 349.910156 331.554688 351.199219 330.261719 351.199219 328.679688 C 351.199219 327.09375 349.910156 325.804688 348.324219 325.804688 C 346.742188 325.804688 345.453125 327.09375 345.453125 328.679688 Z M 342.960938 328.679688 C 342.960938 325.722656 345.367188 323.3125 348.324219 323.3125 C 351.285156 323.3125 353.691406 325.722656 353.691406 328.679688 C 353.691406 331.640625 351.285156 334.046875 348.324219 334.046875 C 345.367188 334.046875 342.960938 331.640625 342.960938 328.679688 " fill-opacity="1" fill-rule="nonzero"/></g><path fill="#ffcc4d" d="M 391.015625 135.90625 C 391.140625 147.175781 382.113281 156.410156 370.847656 156.535156 C 359.585938 156.664062 350.347656 147.636719 350.222656 136.367188 C 350.09375 125.101562 359.125 115.867188 370.386719 115.738281 C 381.65625 115.613281 390.886719 124.644531 391.015625 135.90625 " fill-opacity="1" fill-rule="nonzero"/><path fill="#ffffff" d="M 359.199219 135.308594 L 358.109375 141.0625 L 371.375 148.667969 L 382.476562 129.730469 L 382.417969 124.546875 L 369.917969 140.136719 L 359.199219 135.308594 " fill-opacity="1" fill-rule="nonzero"/><path fill="#346ee3" d="M 166.746094 253.578125 C 166.347656 253.578125 166.027344 253.257812 166.027344 252.859375 C 166.027344 237.851562 161.445312 227.765625 157.164062 227.765625 C 152.882812 227.765625 148.296875 237.851562 148.296875 252.859375 C 148.296875 253.257812 147.980469 253.578125 147.582031 253.578125 C 147.1875 253.578125 146.867188 253.257812 146.867188 252.859375 C 146.867188 237.980469 151.386719 226.328125 157.164062 226.328125 C 162.9375 226.328125 167.457031 237.980469 167.457031 252.859375 C 167.457031 253.257812 167.140625 253.578125 166.746094 253.578125 " fill-opacity="1" fill-rule="nonzero"/><g clip-path="url(#2b330afd2f)"><path fill="#f7bf41" d="M 189.421875 334.046875 L 127.167969 334.046875 L 127.167969 247.273438 L 189.421875 247.273438 L 189.421875 334.046875 " fill-opacity="1" fill-rule="nonzero"/></g><g clip-path="url(#1910b0df95)"><path fill="#ffcc4d" d="M 173.082031 334.046875 L 127.167969 334.046875 L 127.167969 247.273438 L 173.082031 247.273438 L 173.082031 334.046875 " fill-opacity="1" fill-rule="nonzero"/></g><g clip-path="url(#fb1de3b4db)"><path fill="#ffcc4d" d="M 173.082031 334.046875 L 180.710938 324.417969 L 189.421875 334.046875 Z M 173.082031 334.046875 " fill-opacity="1" fill-rule="nonzero"/></g><path fill="#346ee3" d="M 161.367188 253.578125 C 160.972656 253.578125 160.648438 253.257812 160.648438 252.859375 C 160.648438 237.851562 156.0625 227.765625 151.785156 227.765625 C 147.507812 227.765625 142.925781 237.851562 142.925781 252.859375 C 142.925781 253.257812 142.605469 253.578125 142.207031 253.578125 C 141.8125 253.578125 141.488281 253.257812 141.488281 252.859375 C 141.488281 237.980469 146.011719 226.328125 151.785156 226.328125 C 157.558594 226.328125 162.082031 237.980469 162.082031 252.859375 C 162.082031 253.257812 161.765625 253.578125 161.367188 253.578125 " fill-opacity="1" fill-rule="nonzero"/><path fill="#346ee3" d="M 127.226562 283.378906 C 126.863281 283.378906 126.570312 283.085938 126.570312 282.722656 C 126.570312 274.085938 121.191406 267.058594 114.582031 267.058594 C 107.972656 267.058594 102.59375 274.085938 102.59375 282.722656 C 102.59375 283.085938 102.300781 283.378906 101.9375 283.378906 C 101.574219 283.378906 101.28125 283.085938 101.28125 282.722656 C 101.28125 273.359375 107.25 265.742188 114.582031 265.742188 C 121.914062 265.742188 127.882812 273.359375 127.882812 282.722656 C 127.882812 283.085938 127.589844 283.378906 127.226562 283.378906 " fill-opacity="1" fill-rule="nonzero"/><g clip-path="url(#9d443cc40f)"><path fill="#ef354c" d="M 157.164062 334.046875 L 74.984375 334.046875 L 74.984375 279.191406 L 157.164062 279.191406 L 157.164062 334.046875 " fill-opacity="1" fill-rule="nonzero"/></g><g clip-path="url(#b52ef10d1e)"><path fill="#f54553" d="M 135.59375 334.046875 L 74.984375 334.046875 L 74.984375 279.191406 L 135.59375 279.191406 L 135.59375 334.046875 " fill-opacity="1" fill-rule="nonzero"/></g><g clip-path="url(#86cbf3ee6f)"><path fill="#fa5c69" d="M 135.59375 334.046875 L 145.664062 327.960938 L 157.164062 334.046875 Z M 135.59375 334.046875 " fill-opacity="1" fill-rule="nonzero"/></g><path fill="#346ee3" d="M 120.128906 283.378906 C 119.765625 283.378906 119.476562 283.085938 119.476562 282.722656 C 119.476562 274.085938 114.09375 267.058594 107.484375 267.058594 C 100.875 267.058594 95.496094 274.085938 95.496094 282.722656 C 95.496094 283.085938 95.199219 283.378906 94.835938 283.378906 C 94.476562 283.378906 94.183594 283.085938 94.183594 282.722656 C 94.183594 273.359375 100.148438 265.742188 107.484375 265.742188 C 114.816406 265.742188 120.789062 273.359375 120.789062 282.722656 C 120.789062 283.085938 120.492188 283.378906 120.128906 283.378906 " fill-opacity="1" fill-rule="nonzero"/><g clip-path="url(#8b4a20b596)"><path fill="#ffcc4d" d="M 107.78125 334.039062 C 109.136719 334.039062 109.667969 332.300781 108.554688 331.527344 C 106.816406 330.316406 102.746094 328.382812 96.855469 327.414062 C 95.6875 327.222656 94.363281 326.140625 93.5625 324.988281 C 93.285156 324.589844 92.808594 324.375 92.324219 324.417969 L 88.300781 324.792969 C 87.644531 324.855469 87.128906 325.371094 87.0625 326.027344 C 86.933594 327.464844 86.832031 330.105469 87.421875 332.984375 C 87.554688 333.609375 88.121094 334.046875 88.761719 334.046875 L 90.144531 334.046875 L 107.78125 334.039062 " fill-opacity="1" fill-rule="nonzero"/></g><g clip-path="url(#55adeefc40)"><path fill="#ffcc4d" d="M 47.289062 325.28125 C 47.875 327.117188 48.777344 330.992188 48.164062 333.175781 C 48.015625 333.703125 47.507812 334.039062 46.960938 334.039062 L 39.621094 334.046875 C 38.972656 334.046875 38.429688 333.546875 38.363281 332.898438 C 37.996094 329.539062 39.820312 326.519531 40.625 325.378906 C 40.839844 325.074219 41.171875 324.878906 41.542969 324.84375 L 45.980469 324.429688 C 46.5625 324.378906 47.109375 324.726562 47.289062 325.28125 " fill-opacity="1" fill-rule="nonzero"/></g><path fill="#f54553" d="M 77.859375 158.515625 C 80.542969 161.425781 89.710938 185.425781 90.644531 188.265625 C 91.566406 191.96875 88.609375 194.292969 83.675781 193.050781 C 80.699219 192.296875 71.03125 169.378906 70.828125 162.476562 C 70.605469 154.773438 74.757812 155.15625 77.859375 158.515625 " fill-opacity="1" fill-rule="nonzero"/><path fill="#1f3b80" d="M 59.617188 241.929688 L 74.171875 280.699219 C 74.171875 280.699219 73.589844 285.089844 74.203125 290.007812 C 75.269531 298.632812 86.457031 326.878906 86.457031 326.878906 C 86.457031 326.878906 90.460938 328.550781 95.003906 325.980469 C 95.003906 325.980469 86.402344 278.15625 86.132812 276.808594 C 85.863281 275.46875 73.101562 208.683594 73.101562 208.683594 L 66.472656 206.5 L 59.617188 241.929688 " fill-opacity="1" fill-rule="nonzero"/><path fill="#254799" d="M 48.4375 210.363281 C 44.097656 223.976562 42.675781 271.785156 42.316406 274.535156 C 41.960938 277.285156 40.019531 287.722656 40 292.039062 C 39.972656 299.28125 39.988281 325.824219 39.988281 325.824219 C 39.988281 325.824219 43.339844 327.414062 48.007812 326.050781 C 48.007812 326.050781 53.609375 298.175781 54.613281 278.507812 C 54.726562 276.238281 68.59375 231.867188 68.832031 230.191406 C 69.070312 228.519531 69.390625 212.0625 69.152344 209.550781 C 68.914062 207.042969 48.4375 210.363281 48.4375 210.363281 " fill-opacity="1" fill-rule="nonzero"/><path fill="#f54553" d="M 54.972656 152.992188 C 54.972656 152.992188 45.867188 155.6875 44.671875 157.359375 C 43.476562 159.03125 50.429688 188.960938 49.832031 195.054688 C 49.234375 201.152344 48.808594 207.75 48.4375 210.363281 C 48.199219 212.035156 72.621094 215.851562 73.101562 208.683594 C 73.578125 201.511719 78.542969 177.488281 78.152344 166.730469 C 77.859375 158.515625 77.078125 157.757812 75.523438 156.683594 C 73.972656 155.609375 66.054688 153.046875 66.054688 153.046875 L 54.972656 152.992188 " fill-opacity="1" fill-rule="nonzero"/><path fill="#1f3b80" d="M 66.726562 121.0625 C 66.734375 121.050781 66.742188 121.039062 66.746094 121.03125 C 68.175781 119.296875 68.210938 116.902344 67.101562 115 C 66.304688 113.628906 65.414062 112.414062 64.542969 111.378906 C 64.113281 112.84375 63.292969 114.210938 62.148438 115.289062 C 62.730469 113.539062 62.738281 111.640625 62.222656 109.886719 C 61.925781 108.894531 61.269531 108.027344 60.414062 107.390625 C 60.386719 107.367188 60.378906 107.359375 60.378906 107.359375 C 60.378906 107.359375 49.34375 121.925781 47.152344 127.980469 C 45.359375 132.945312 51.382812 140.378906 56.851562 144.632812 C 56.851562 144.632812 60.277344 147.929688 67.8125 133.246094 C 70.296875 128.40625 70.203125 123.53125 69.15625 119.789062 C 68.496094 120.433594 67.660156 120.933594 66.726562 121.0625 " fill-opacity="1" fill-rule="nonzero"/><path fill="#e3885b" d="M 57.21875 138.421875 C 57.035156 149.671875 53.375 153.492188 53.375 153.492188 C 53.375 153.492188 56.964844 156.601562 62.648438 158.410156 C 64.613281 159.035156 66.679688 158.015625 66.589844 155.953125 C 66.550781 155.03125 66.398438 154.035156 66.054688 153.046875 C 66.054688 153.046875 64.265625 151.386719 64.609375 146.605469 C 64.730469 144.914062 65.605469 137.75 65.605469 137.75 C 65.605469 137.75 57.25 136.59375 57.21875 138.421875 " fill-opacity="1" fill-rule="nonzero"/><path fill="#ed996f" d="M 51.898438 159.015625 C 55.378906 162.972656 53.933594 183.742188 54.523438 188.53125 C 54.542969 188.539062 55.242188 198.136719 49.613281 198.390625 C 46.136719 198.554688 42.945312 169.078125 42.851562 163.15625 C 42.726562 155.277344 47.761719 154.324219 51.898438 159.015625 " fill-opacity="1" fill-rule="nonzero"/><path fill="#ed996f" d="M 58.207031 136.917969 C 60.347656 133.957031 57.757812 127.871094 59.703125 126.0625 C 63.089844 122.914062 67.691406 123.332031 69.6875 130.972656 C 71.417969 137.574219 71.230469 146.832031 68.167969 148.457031 C 65.519531 149.863281 60.128906 145.140625 57.394531 140.492188 C 56.410156 139.835938 54.074219 138.679688 53.582031 137.039062 C 52.570312 133.664062 55.421875 133.773438 58.207031 136.917969 " fill-opacity="1" fill-rule="nonzero"/><path fill="#f54553" d="M 51.898438 159.015625 C 53.816406 161.199219 54.980469 168.796875 55.042969 175.707031 C 55.0625 177.753906 43.722656 177.894531 43.722656 177.894531 C 42.847656 171.859375 42.886719 165.363281 42.851562 163.15625 C 42.726562 155.277344 47.761719 154.324219 51.898438 159.015625 " fill-opacity="1" fill-rule="nonzero"/><path fill="#f7bf41" d="M 123.300781 204.425781 L 60.519531 215.972656 L 49.550781 156.328125 L 112.332031 144.78125 L 123.300781 204.425781 " fill-opacity="1" fill-rule="nonzero"/><path fill="#ffcc4d" d="M 123.300781 204.425781 L 85.769531 211.328125 L 74.800781 151.683594 L 112.332031 144.78125 L 123.300781 204.425781 " fill-opacity="1" fill-rule="nonzero"/><path fill="#ffffff" d="M 100.488281 161.3125 L 91.753906 162.917969 L 89.199219 149.035156 L 97.933594 147.429688 L 100.488281 161.3125 " fill-opacity="1" fill-rule="nonzero"/><path fill="#ffffff" d="M 99.375 204.378906 L 88.320312 206.410156 L 85.769531 192.527344 L 96.824219 190.496094 L 99.375 204.378906 " fill-opacity="1" fill-rule="nonzero"/><path fill="#bcbec0" d="M 90.574219 196.253906 L 87.785156 196.765625 L 87.148438 193.265625 L 89.929688 192.753906 L 90.574219 196.253906 " fill-opacity="1" fill-rule="nonzero"/><path fill="#bcbec0" d="M 92.128906 204.714844 L 89.34375 205.226562 L 87.96875 197.757812 L 90.753906 197.246094 L 92.128906 204.714844 " fill-opacity="1" fill-rule="nonzero"/><path fill="#bcbec0" d="M 95.957031 192.519531 L 91.175781 193.398438 L 91.023438 192.550781 L 95.804688 191.671875 L 95.957031 192.519531 " fill-opacity="1" fill-rule="nonzero"/><path fill="#bcbec0" d="M 96.199219 193.847656 L 91.417969 194.726562 L 91.265625 193.878906 L 96.046875 193 L 96.199219 193.847656 " fill-opacity="1" fill-rule="nonzero"/><path fill="#bcbec0" d="M 96.441406 195.171875 L 91.660156 196.050781 L 91.507812 195.207031 L 96.289062 194.328125 L 96.441406 195.171875 " fill-opacity="1" fill-rule="nonzero"/><path fill="#bcbec0" d="M 95.097656 197.230469 L 91.988281 197.800781 L 91.84375 197.046875 L 94.953125 196.472656 L 95.097656 197.230469 " fill-opacity="1" fill-rule="nonzero"/><path fill="#bcbec0" d="M 95.339844 198.566406 L 92.230469 199.140625 L 92.09375 198.382812 L 95.199219 197.8125 L 95.339844 198.566406 " fill-opacity="1" fill-rule="nonzero"/><path fill="#bcbec0" d="M 95.585938 199.90625 L 92.476562 200.480469 L 92.339844 199.71875 L 95.449219 199.152344 L 95.585938 199.90625 " fill-opacity="1" fill-rule="nonzero"/><path fill="#bcbec0" d="M 95.832031 201.242188 L 92.722656 201.820312 L 92.585938 201.058594 L 95.695312 200.488281 L 95.832031 201.242188 " fill-opacity="1" fill-rule="nonzero"/><path fill="#bcbec0" d="M 96.078125 202.582031 L 92.972656 203.15625 L 92.828125 202.398438 L 95.941406 201.828125 L 96.078125 202.582031 " fill-opacity="1" fill-rule="nonzero"/><path fill="#bcbec0" d="M 96.324219 203.921875 L 93.214844 204.492188 L 93.074219 203.734375 L 96.183594 203.160156 L 96.324219 203.921875 " fill-opacity="1" fill-rule="nonzero"/><path fill="#bcbec0" d="M 98.003906 203.636719 L 97.125 203.796875 L 95.75 196.328125 L 96.625 196.167969 L 98.003906 203.636719 " fill-opacity="1" fill-rule="nonzero"/><path fill="#ed996f" d="M 83.003906 180.867188 C 81.992188 180.296875 80.410156 180.640625 78.84375 181.144531 C 78.683594 181.199219 79.566406 180.386719 79.96875 179.769531 C 80.316406 179.230469 80.199219 178.882812 80.046875 178.941406 C 77.914062 179.800781 76.914062 180.734375 75.589844 182.867188 C 71.015625 185.273438 78.425781 185.945312 78.5 185.828125 C 79.585938 185.980469 82.21875 185.726562 83.175781 184.65625 C 84.761719 182.875 85.027344 182.011719 83.003906 180.867188 " fill-opacity="1" fill-rule="nonzero"/><path fill="#ed996f" d="M 118.691406 168.535156 C 117.601562 164.300781 116.496094 165.648438 115.558594 167.019531 C 114.445312 168.640625 114.8125 171.25 116.507812 170.902344 C 117.421875 170.714844 119.523438 171.761719 118.691406 168.535156 " fill-opacity="1" fill-rule="nonzero"/><path fill="#ed996f" d="M 54.554688 189.402344 C 54.578125 189.414062 62.878906 186.234375 76.070312 182.714844 C 79.550781 181.785156 77.976562 184.902344 77.730469 185.105469 C 72.425781 189.511719 55.367188 199.3125 49.613281 198.390625 C 46.058594 197.824219 51.359375 186.976562 54.554688 189.402344 " fill-opacity="1" fill-rule="nonzero"/><path fill="#ffffff" d="M 151.476562 123.574219 C 148.195312 123.574219 145.535156 120.914062 145.535156 117.628906 C 145.535156 114.347656 148.195312 111.6875 151.476562 111.6875 C 154.757812 111.6875 157.417969 114.347656 157.417969 117.628906 C 157.417969 120.914062 154.757812 123.574219 151.476562 123.574219 Z M 151.476562 109.695312 C 147.097656 109.695312 143.542969 113.246094 143.542969 117.628906 C 143.542969 119.308594 144.070312 120.863281 144.960938 122.148438 C 144.925781 122.175781 144.882812 122.1875 144.851562 122.222656 L 138.625 128.449219 C 138.023438 129.050781 138.023438 130.03125 138.625 130.632812 C 138.921875 130.933594 139.320312 131.085938 139.710938 131.085938 C 140.109375 131.085938 140.507812 130.933594 140.804688 130.632812 L 147.035156 124.402344 C 147.074219 124.363281 147.09375 124.304688 147.128906 124.261719 C 148.375 125.082031 149.871094 125.5625 151.476562 125.5625 C 155.859375 125.5625 159.410156 122.011719 159.410156 117.628906 C 159.410156 113.246094 155.859375 109.695312 151.476562 109.695312 " fill-opacity="1" fill-rule="nonzero"/><g clip-path="url(#207068c9f0)"><path fill="#f7bf41" d="M 397.449219 329.734375 C 395.992188 330.816406 386.359375 334.734375 383.175781 334.527344 C 379.996094 334.328125 391.269531 325.589844 391.5 325.527344 C 391.734375 325.46875 395.671875 323.144531 395.671875 323.144531 C 398.214844 326.78125 398.910156 328.65625 397.449219 329.734375 " fill-opacity="1" fill-rule="nonzero"/></g><g clip-path="url(#8d3bc95c9a)"><path fill="#ffcc4d" d="M 385.246094 334.15625 C 382.226562 333.132812 395.382812 327.636719 395.628906 327.636719 C 395.871094 327.636719 400.273438 327.339844 400.273438 327.339844 C 401.785156 331.511719 401.96875 333.371094 400.273438 334.039062 C 399.785156 334.230469 398.554688 334.40625 396.992188 334.535156 L 387.203125 334.535156 C 386.410156 334.441406 385.730469 334.324219 385.246094 334.15625 " fill-opacity="1" fill-rule="nonzero"/></g><path fill="#965c40" d="M 377.761719 282.890625 C 376.90625 275.671875 390.484375 211.710938 390.484375 211.710938 L 402.164062 222.554688 L 388.660156 283.003906 C 393.273438 290.378906 393.34375 312.5 395.671875 323.144531 C 395.671875 323.144531 385.394531 330.804688 388.613281 327.777344 C 389.871094 326.59375 392.042969 323.394531 391.621094 322.242188 C 391.621094 322.242188 377.894531 284.039062 377.761719 282.890625 " fill-opacity="1" fill-rule="nonzero"/><path fill="#f1f2f2" d="M 383.480469 206.292969 C 386.773438 203.96875 401.175781 188.011719 403.164062 183.96875 C 405.066406 180.109375 400.738281 172.019531 393.960938 180.691406 C 391.320312 184.066406 381.222656 196.40625 377.882812 200.039062 C 373.480469 198.902344 365.617188 196.769531 363.316406 197.230469 C 359.410156 198.015625 361.636719 200.421875 362.882812 201.273438 C 365.820312 203.277344 376.292969 207.804688 379.867188 208.292969 C 381.203125 208.601562 381.136719 207.945312 383.480469 206.292969 " fill-opacity="1" fill-rule="nonzero"/><path fill="#ef354c" d="M 377.761719 282.890625 C 376.90625 275.671875 390.484375 211.710938 390.484375 211.710938 L 402.164062 222.554688 L 388.660156 283.003906 C 393.273438 290.378906 393.203125 311.691406 395.53125 322.335938 C 395.53125 322.335938 391.332031 323.929688 390.910156 322.78125 C 390.910156 322.78125 377.894531 284.039062 377.761719 282.890625 " fill-opacity="1" fill-rule="nonzero"/><g clip-path="url(#b4b38a2aa6)"><path fill="#965c40" d="M 392.253906 329.054688 C 393.777344 328.242188 396.707031 325.71875 396.601562 324.5 L 393.433594 283.117188 C 393.433594 283.117188 391.191406 240.734375 391.855469 227.507812 C 392.050781 223.632812 390.484375 211.710938 390.484375 211.710938 L 405.285156 214.988281 C 415.980469 228.644531 410.609375 240.15625 410.609375 240.15625 C 410.609375 240.15625 406.296875 266.128906 403.316406 285.863281 C 407.195312 292.832031 400.800781 316.457031 400.273438 327.339844 C 400.15625 329.792969 388.363281 331.144531 392.253906 329.054688 " fill-opacity="1" fill-rule="nonzero"/></g><path fill="#f54553" d="M 396.601562 324.5 L 393.433594 283.117188 C 393.433594 283.117188 391.191406 240.734375 391.855469 227.507812 C 392.050781 223.632812 390.484375 211.710938 390.484375 211.710938 L 405.285156 214.988281 C 415.980469 228.644531 410.609375 240.15625 410.609375 240.15625 C 410.609375 240.15625 407.554688 266.3125 404.566406 286.050781 C 407.613281 294.832031 402.09375 314.40625 401.21875 325.265625 C 401.132812 326.367188 396.707031 325.71875 396.601562 324.5 " fill-opacity="1" fill-rule="nonzero"/><g clip-path="url(#c2f8df3417)"><path fill="#1f3b80" d="M 438.832031 180.203125 C 445.144531 202.226562 448.328125 203.824219 445.289062 210.328125 C 442.035156 217.277344 425.585938 218.132812 418.585938 207.554688 C 411.402344 196.699219 416.355469 180.5 417.460938 169.664062 C 419.847656 146.257812 409.835938 145.714844 419.433594 142.210938 C 428.867188 138.765625 436.59375 146.375 437.828125 154.152344 C 438.945312 161.199219 436.523438 172.148438 438.832031 180.203125 " fill-opacity="1" fill-rule="nonzero"/></g><path fill="#e6e7e8" d="M 401.792969 174.457031 C 399.511719 175.203125 388.621094 182.921875 387.210938 186 C 385.207031 190.378906 390.484375 195.996094 390.484375 195.996094 C 390.484375 195.996094 390.546875 207.535156 390.484375 211.710938 C 390.390625 218.03125 405.285156 214.988281 405.285156 214.988281 C 404.453125 206.234375 411.484375 192.261719 414.734375 182.683594 C 414.945312 182.066406 409.695312 171.855469 401.792969 174.457031 " fill-opacity="1" fill-rule="nonzero"/><path fill="#f06570" d="M 415.40625 141.457031 C 412.828125 142.65625 411.945312 146.226562 413.433594 149.433594 C 414.921875 152.640625 418.21875 154.269531 420.800781 153.070312 C 423.378906 151.875 424.261719 148.304688 422.769531 145.097656 C 421.28125 141.890625 417.988281 140.257812 415.40625 141.457031 " fill-opacity="1" fill-rule="nonzero"/><path fill="#8c4f32" d="M 409.375 174.054688 C 409.683594 171.207031 410.996094 165.085938 411.914062 163.34375 C 413.328125 160.667969 410.207031 156.660156 410.207031 156.660156 L 404.953125 160.445312 C 404.144531 166.101562 400.128906 175.28125 400.128906 175.28125 C 400.128906 175.28125 393.511719 180.691406 395.269531 180.691406 C 396.472656 180.691406 403.0625 177.878906 406.496094 176.960938 C 407.8125 176.609375 409.449219 176.851562 409.363281 175.648438 C 409.328125 175.132812 409.320312 174.578125 409.375 174.054688 " fill-opacity="1" fill-rule="nonzero"/><path fill="#254799" d="M 398.898438 150.378906 L 406.570312 159.179688 C 406.570312 159.179688 409.632812 166.230469 411.214844 165.726562 C 419.621094 163.066406 422.324219 154.960938 419.324219 146.59375 C 417.46875 141.414062 405.363281 135.09375 398.898438 150.378906 " fill-opacity="1" fill-rule="nonzero"/><path fill="#965c40" d="M 407.0625 160.054688 C 405.460938 157.011719 408.761719 151.988281 407.183594 150.007812 C 404.4375 146.570312 400.042969 146.128906 397.082031 152.652344 C 394.527344 158.289062 393.402344 166.664062 396.050781 168.671875 C 398.347656 170.414062 404.09375 167.121094 407.324219 163.417969 C 408.34375 163.007812 410.707031 162.382812 411.402344 160.992188 C 412.832031 158.132812 410.128906 157.726562 407.0625 160.054688 " fill-opacity="1" fill-rule="nonzero"/><path fill="#965c40" d="M 396.597656 217.558594 C 396.132812 219.476562 400.140625 216.742188 402.5625 218.234375 C 402.996094 218.503906 405.296875 217.464844 405.417969 216.6875 C 405.507812 216.082031 403.355469 214.914062 402.414062 214.78125 C 399.625 214.394531 397.023438 215.8125 396.597656 217.558594 " fill-opacity="1" fill-rule="nonzero"/><path fill="#f1f2f2" d="M 411.960938 179.246094 C 409.8125 179.007812 405.765625 181.472656 406.515625 186.90625 C 407.601562 194.714844 411.175781 206.148438 411.175781 206.148438 C 406.207031 212.386719 402.035156 215.070312 402.097656 215.722656 C 402.183594 216.625 403.164062 217.558594 403.730469 218.027344 C 403.964844 218.21875 404.273438 218.285156 404.566406 218.199219 C 406.808594 217.546875 417.582031 211.8125 419.507812 208.808594 C 420.507812 207.242188 419.867188 199.246094 416.488281 187.527344 C 415.0625 182.589844 414.839844 179.558594 411.960938 179.246094 " fill-opacity="1" fill-rule="nonzero"/><path fill="#965c40" d="M 358.125 197.308594 C 358.558594 197.960938 361.320312 199.980469 363.1875 199.878906 C 365.542969 199.246094 365.355469 198.074219 364.425781 197.03125 C 363.714844 196.238281 363.21875 194.28125 360.253906 193.90625 C 359.914062 193.867188 360.367188 194.851562 360.367188 194.851562 C 360.367188 194.851562 357.15625 191.730469 356.890625 192.1875 C 356.40625 193.027344 357.664062 196.609375 358.125 197.308594 " fill-opacity="1" fill-rule="nonzero"/><path fill="#1f3b80" d="M 365.765625 203.238281 C 365.554688 203.238281 365.34375 203.140625 365.214844 202.960938 L 352.53125 186 C 352.300781 185.699219 352.363281 185.269531 352.671875 185.039062 C 352.972656 184.808594 353.40625 184.875 353.632812 185.179688 L 366.3125 202.136719 C 366.542969 202.441406 366.480469 202.871094 366.175781 203.097656 C 366.050781 203.191406 365.90625 203.238281 365.765625 203.238281 " fill-opacity="1" fill-rule="nonzero"/><path fill="#f54553" d="M 169.261719 165.675781 C 164.664062 165.675781 160.933594 161.945312 160.933594 157.347656 C 160.933594 152.746094 164.664062 149.019531 169.261719 149.019531 C 173.859375 149.019531 177.589844 152.746094 177.589844 157.347656 C 177.589844 161.945312 173.859375 165.675781 169.261719 165.675781 Z M 169.261719 141.488281 C 160.429688 141.488281 153.273438 148.917969 153.273438 158.082031 C 153.273438 173.183594 165.9375 186.808594 168.722656 189.625 C 169.027344 189.933594 169.5 189.9375 169.8125 189.636719 C 172.621094 186.90625 185.25 173.773438 185.25 158.082031 C 185.25 148.917969 178.089844 141.488281 169.261719 141.488281 " fill-opacity="1" fill-rule="nonzero"/><path fill="#ffcc4d" d="M 276.210938 266.4375 C 276.210938 279.25 265.824219 289.636719 253.011719 289.636719 C 240.199219 289.636719 229.8125 279.25 229.8125 266.4375 C 229.8125 253.621094 240.199219 243.234375 253.011719 243.234375 C 265.824219 243.234375 276.210938 253.621094 276.210938 266.4375 " fill-opacity="1" fill-rule="nonzero"/><path fill="#f0a737" d="M 273.378906 266.4375 C 273.378906 277.683594 264.261719 286.804688 253.011719 286.804688 C 241.761719 286.804688 232.640625 277.683594 232.640625 266.4375 C 232.640625 255.1875 241.761719 246.0625 253.011719 246.0625 C 264.261719 246.0625 273.378906 255.1875 273.378906 266.4375 " fill-opacity="1" fill-rule="nonzero"/><path fill="#f7bf41" d="M 271.996094 266.4375 C 271.996094 276.921875 263.496094 285.425781 253.011719 285.425781 C 242.527344 285.425781 234.023438 276.921875 234.023438 266.4375 C 234.023438 255.949219 242.527344 247.445312 253.011719 247.445312 C 263.496094 247.445312 271.996094 255.949219 271.996094 266.4375 " fill-opacity="1" fill-rule="nonzero"/><path fill="#f0a737" d="M 255.734375 264.261719 C 252.21875 261.574219 251.144531 260.207031 251.144531 258.542969 L 251.144531 257.988281 C 251.144531 256.28125 252.265625 255.46875 253.898438 255.46875 C 255.835938 255.46875 256.753906 256.449219 256.753906 258.542969 L 256.753906 258.855469 L 261.957031 258.800781 L 261.957031 258.203125 C 261.957031 254.449219 259.710938 252.058594 255.9375 251.460938 L 255.9375 248.773438 L 251.65625 248.773438 L 251.65625 251.460938 C 247.929688 252.058594 245.738281 254.359375 245.738281 258.074219 L 245.738281 258.714844 C 245.738281 261.957031 247.421875 264.390625 252.21875 268.101562 C 255.734375 270.785156 256.804688 272.152344 256.804688 273.816406 L 256.804688 274.457031 C 256.804688 276.164062 255.429688 276.976562 253.851562 276.976562 C 251.707031 276.976562 250.683594 275.996094 250.683594 273.902344 L 250.683594 272.507812 L 245.484375 272.539062 L 245.484375 274.242188 C 245.484375 277.953125 247.882812 280.300781 251.65625 280.984375 L 251.65625 284.097656 L 255.9375 284.097656 L 255.9375 280.984375 C 259.765625 280.429688 262.210938 278.128906 262.210938 274.371094 L 262.210938 273.644531 C 262.210938 270.402344 260.527344 267.972656 255.734375 264.261719 " fill-opacity="1" fill-rule="nonzero"/><path fill="#ffffff" d="M 254.898438 264.261719 C 251.378906 261.574219 250.3125 260.207031 250.3125 258.542969 L 250.3125 257.988281 C 250.3125 256.28125 251.429688 255.46875 253.058594 255.46875 C 255 255.46875 255.917969 256.449219 255.917969 258.542969 L 255.917969 258.855469 L 261.117188 258.800781 L 261.117188 258.203125 C 261.117188 254.449219 258.878906 252.058594 255.101562 251.460938 L 255.101562 248.773438 L 250.820312 248.773438 L 250.820312 251.460938 C 247.097656 252.058594 244.902344 254.359375 244.902344 258.074219 L 244.902344 258.714844 C 244.902344 261.957031 246.585938 264.390625 251.378906 268.101562 C 254.898438 270.785156 255.96875 272.152344 255.96875 273.816406 L 255.96875 274.457031 C 255.96875 276.164062 254.589844 276.976562 253.011719 276.976562 C 250.867188 276.976562 249.851562 275.996094 249.851562 273.902344 L 249.851562 272.507812 L 244.648438 272.539062 L 244.648438 274.242188 C 244.648438 277.953125 247.046875 280.300781 250.820312 280.984375 L 250.820312 284.097656 L 255.101562 284.097656 L 255.101562 280.984375 C 258.925781 280.429688 261.371094 278.128906 261.371094 274.371094 L 261.371094 273.644531 C 261.371094 270.402344 259.6875 267.972656 254.898438 264.261719 " fill-opacity="1" fill-rule="nonzero"/><path fill="#346ee3" d="M 247.09375 292.660156 C 247.09375 306.578125 235.816406 317.859375 221.898438 317.859375 C 207.988281 317.859375 196.707031 306.578125 196.707031 292.660156 C 196.707031 278.746094 207.988281 267.46875 221.898438 267.46875 C 235.816406 267.46875 247.09375 278.746094 247.09375 292.660156 " fill-opacity="1" fill-rule="nonzero"/><path fill="#ffffff" d="M 243.910156 292.660156 C 243.910156 304.820312 234.058594 314.675781 221.898438 314.675781 C 209.746094 314.675781 199.890625 304.820312 199.890625 292.660156 C 199.890625 280.507812 209.746094 270.652344 221.898438 270.652344 C 234.058594 270.652344 243.910156 280.507812 243.910156 292.660156 " fill-opacity="1" fill-rule="nonzero"/><path fill="#346ee3" d="M 234.949219 284.34375 C 234.476562 283.597656 233.484375 283.378906 232.738281 283.855469 L 224.253906 289.261719 C 223.582031 288.796875 222.773438 288.523438 221.898438 288.523438 C 221.492188 288.523438 221.101562 288.601562 220.726562 288.714844 L 213.027344 277.085938 C 212.660156 276.535156 211.914062 276.378906 211.359375 276.746094 C 210.808594 277.113281 210.652344 277.863281 211.019531 278.414062 L 218.722656 290.042969 C 218.132812 290.757812 217.761719 291.664062 217.761719 292.660156 C 217.761719 294.949219 219.613281 296.804688 221.898438 296.804688 C 224.183594 296.804688 226.039062 294.949219 226.039062 292.660156 C 226.039062 292.425781 226.007812 292.199219 225.96875 291.972656 L 234.464844 286.558594 C 235.210938 286.085938 235.429688 285.09375 234.949219 284.34375 " fill-opacity="1" fill-rule="nonzero"/><path fill="#346ee3" d="M 271.652344 53.582031 C 271.769531 63.808594 263.574219 72.191406 253.351562 72.304688 C 243.128906 72.421875 234.746094 64.226562 234.632812 54.003906 C 234.515625 43.777344 242.714844 35.398438 252.933594 35.28125 C 263.15625 35.164062 271.539062 43.363281 271.652344 53.582031 " fill-opacity="1" fill-rule="nonzero"/><path fill="#ffffff" d="M 253.980469 40.652344 L 256.675781 48.945312 C 256.75 49.164062 256.953125 49.316406 257.1875 49.316406 L 265.90625 49.316406 C 266.425781 49.316406 266.644531 49.980469 266.21875 50.285156 L 259.164062 55.414062 C 258.976562 55.546875 258.898438 55.789062 258.972656 56.011719 L 261.667969 64.304688 C 261.828125 64.800781 261.261719 65.210938 260.839844 64.90625 L 253.785156 59.777344 C 253.597656 59.644531 253.34375 59.644531 253.152344 59.777344 L 246.101562 64.90625 C 245.679688 65.210938 245.113281 64.800781 245.277344 64.304688 L 247.96875 56.011719 C 248.039062 55.789062 247.960938 55.546875 247.773438 55.414062 L 240.722656 50.285156 C 240.300781 49.980469 240.515625 49.316406 241.039062 49.316406 L 249.757812 49.316406 C 249.988281 49.316406 250.195312 49.164062 250.265625 48.945312 L 252.960938 40.652344 C 253.121094 40.15625 253.820312 40.15625 253.980469 40.652344 " fill-opacity="1" fill-rule="nonzero"/><g clip-path="url(#7bf77a12ed)"><path fill="#ffcc4d" d="M 336.667969 333.191406 L 286.011719 333.191406 C 284.519531 333.191406 283.3125 331.984375 283.3125 330.492188 L 283.3125 287.785156 C 283.3125 286.296875 284.519531 285.089844 286.011719 285.089844 L 336.667969 285.089844 C 338.15625 285.089844 339.367188 286.296875 339.367188 287.785156 L 339.367188 330.492188 C 339.367188 331.984375 338.15625 333.191406 336.667969 333.191406 " fill-opacity="1" fill-rule="nonzero"/></g><g clip-path="url(#60b4db3a4a)"><path fill="#f54553" d="M 319.078125 333.191406 L 303.597656 333.191406 L 303.597656 285.089844 L 319.078125 285.089844 L 319.078125 333.191406 " fill-opacity="1" fill-rule="nonzero"/></g><path fill="#ef354c" d="M 288.535156 269.773438 C 282.804688 278.667969 299.09375 285.089844 299.09375 285.089844 L 305.074219 285.089844 C 305.074219 285.089844 295.382812 279.917969 295.382812 274.613281 C 295.382812 269.308594 303.21875 275.257812 309.195312 285.089844 L 313.007812 285.089844 C 304.457031 260.175781 294.269531 260.875 288.535156 269.773438 " fill-opacity="1" fill-rule="nonzero"/><path fill="#ef354c" d="M 334.144531 269.773438 C 339.878906 278.667969 323.582031 285.089844 323.582031 285.089844 L 317.605469 285.089844 C 317.605469 285.089844 327.292969 279.917969 327.292969 274.613281 C 327.292969 269.308594 319.460938 275.257812 313.480469 285.089844 L 309.671875 285.089844 C 318.226562 260.175781 328.410156 260.875 334.144531 269.773438 " fill-opacity="1" fill-rule="nonzero"/><path fill="#ef354c" d="M 302.535156 285.089844 C 297.367188 290.105469 289.839844 293.894531 289.839844 293.894531 L 296.378906 302.375 L 311.136719 285.027344 L 302.535156 285.089844 " fill-opacity="1" fill-rule="nonzero"/><path fill="#ef354c" d="M 319.972656 284.808594 C 325.382812 289.570312 332.832031 292.71875 332.832031 292.71875 L 326.714844 301.5 L 311.136719 285.027344 L 319.972656 284.808594 " fill-opacity="1" fill-rule="nonzero"/></svg>