<svg xmlns="http://www.w3.org/2000/svg" xmlns:xlink="http://www.w3.org/1999/xlink" width="600" zoomAndPan="magnify" viewBox="0 0 450 337.499995" height="450" preserveAspectRatio="xMidYMid meet" version="1.0"><defs><clipPath id="ef8a32e709"><path d="M 0.332031 0 L 449.667969 0 L 449.667969 337 L 0.332031 337 Z M 0.332031 0 " clip-rule="nonzero"/></clipPath><clipPath id="eacd30fb18"><path d="M 56.5 0 L 393.5 0 L 393.5 337 L 56.5 337 Z M 56.5 0 " clip-rule="nonzero"/></clipPath><clipPath id="3f83b5eebe"><path d="M 181.515625 304.386719 L 183.03125 304.386719 L 184.070312 307.503906 C 189.953125 325.144531 206.398438 337 225 337 C 243.601562 337 260.046875 325.144531 265.929688 307.503906 L 266.96875 304.386719 L 268.484375 304.386719 C 274.480469 304.386719 279.355469 299.511719 279.355469 293.515625 L 279.355469 245.78125 C 279.355469 234.015625 284.882812 222.777344 294.132812 215.730469 C 322.734375 193.933594 339.144531 160.867188 339.144531 125.015625 C 339.144531 106.949219 335.046875 89.664062 326.960938 73.644531 L 317.257812 78.542969 C 324.566406 93.027344 328.273438 108.667969 328.273438 125.015625 C 328.273438 157.445312 313.429688 187.355469 287.546875 207.082031 C 275.609375 216.175781 268.484375 230.640625 268.484375 245.78125 L 268.484375 250.03125 L 252.175781 250.03125 L 252.175781 219.671875 L 263.046875 208.800781 L 263.046875 195.679688 L 273.917969 195.679688 L 273.917969 173.9375 L 284.789062 173.9375 L 284.789062 163.066406 L 273.917969 163.066406 L 273.917969 152.195312 L 284.789062 152.195312 L 284.789062 141.324219 L 273.917969 141.324219 L 273.917969 130.453125 L 284.789062 130.453125 L 284.789062 119.582031 L 273.917969 119.582031 L 273.917969 97.839844 L 252.175781 97.839844 L 252.175781 86.96875 L 241.304688 86.96875 L 241.304688 97.839844 L 230.433594 97.839844 L 230.433594 86.96875 L 219.566406 86.96875 L 219.566406 97.839844 L 208.695312 97.839844 L 208.695312 86.96875 L 197.824219 86.96875 L 197.824219 97.839844 L 176.082031 97.839844 L 176.082031 119.582031 L 165.210938 119.582031 L 165.210938 130.453125 L 176.082031 130.453125 L 176.082031 141.324219 L 165.210938 141.324219 L 165.210938 152.195312 L 176.082031 152.195312 L 176.082031 163.066406 L 165.210938 163.066406 L 165.210938 173.9375 L 176.082031 173.9375 L 176.082031 195.679688 L 186.953125 195.679688 L 186.953125 208.800781 L 197.824219 219.671875 L 197.824219 250.03125 L 181.515625 250.03125 L 181.515625 245.78125 C 181.515625 230.640625 174.382812 216.167969 162.449219 207.074219 C 136.554688 187.34375 121.710938 157.421875 121.726562 124.984375 C 121.730469 108.992188 125.621094 92.941406 132.984375 78.574219 L 123.308594 73.617188 C 115.164062 89.511719 110.859375 107.273438 110.855469 124.976562 C 110.84375 160.839844 127.246094 193.917969 155.859375 215.722656 C 165.117188 222.777344 170.644531 234.015625 170.644531 245.78125 L 170.644531 293.515625 C 170.644531 299.511719 175.519531 304.386719 181.515625 304.386719 Z M 225 326.128906 C 211.203125 326.128906 199.019531 317.398438 194.523438 304.386719 L 255.476562 304.386719 C 250.980469 317.398438 238.796875 326.128906 225 326.128906 Z M 181.515625 293.515625 L 181.515625 282.644531 L 268.484375 282.644531 L 268.484375 293.515625 Z M 186.953125 108.710938 L 263.046875 108.710938 L 263.046875 184.808594 L 186.953125 184.808594 Z M 197.824219 204.296875 L 197.824219 195.679688 L 219.566406 195.679688 L 219.566406 206.550781 L 230.433594 206.550781 L 230.433594 195.679688 L 252.175781 195.679688 L 252.175781 204.296875 L 241.304688 215.167969 L 241.304688 250.03125 L 230.433594 250.03125 L 230.433594 217.417969 L 219.566406 217.417969 L 219.566406 250.03125 L 208.695312 250.03125 L 208.695312 215.167969 Z M 268.484375 260.902344 L 268.484375 271.773438 L 181.515625 271.773438 L 181.515625 260.902344 Z M 197.824219 173.9375 L 252.175781 173.9375 L 252.175781 119.582031 L 197.824219 119.582031 Z M 208.695312 130.453125 L 241.304688 130.453125 L 241.304688 163.066406 L 208.695312 163.066406 Z M 225 0 C 216.007812 0 208.695312 7.316406 208.695312 16.304688 C 208.695312 25.296875 216.007812 32.613281 225 32.613281 C 233.992188 32.613281 241.304688 25.296875 241.304688 16.304688 C 241.304688 7.316406 233.992188 0 225 0 Z M 225 21.742188 C 222.003906 21.742188 219.566406 19.300781 219.566406 16.304688 C 219.566406 13.3125 222.003906 10.871094 225 10.871094 C 227.996094 10.871094 230.433594 13.3125 230.433594 16.304688 C 230.433594 19.300781 227.996094 21.742188 225 21.742188 Z M 219.566406 43.484375 L 230.433594 43.484375 L 230.433594 76.097656 L 219.566406 76.097656 Z M 186.953125 10.871094 L 176.082031 10.871094 L 176.082031 0 L 186.953125 0 Z M 176.082031 21.742188 L 186.953125 21.742188 L 186.953125 29.253906 L 208.695312 40.125 L 208.695312 76.097656 L 197.824219 76.097656 L 197.824219 46.84375 L 176.082031 35.972656 Z M 132.597656 54.355469 L 186.953125 54.355469 L 186.953125 86.96875 L 176.082031 86.96875 L 176.082031 65.226562 L 132.597656 65.226562 Z M 121.726562 54.355469 L 121.726562 65.226562 L 110.855469 65.226562 L 110.855469 54.355469 Z M 159.773438 337 L 148.902344 337 L 148.902344 326.128906 L 159.773438 326.128906 Z M 138.03125 255.46875 C 138.03125 252.472656 135.589844 250.03125 132.597656 250.03125 L 83.675781 250.03125 C 74.6875 250.03125 67.371094 242.714844 67.371094 233.726562 C 67.371094 224.734375 74.6875 217.417969 83.675781 217.417969 L 110.855469 217.417969 C 113.847656 217.417969 116.289062 214.980469 116.289062 211.984375 C 116.289062 208.988281 113.847656 206.550781 110.855469 206.550781 L 72.804688 206.550781 C 63.816406 206.550781 56.5 199.234375 56.5 190.242188 C 56.5 181.253906 63.816406 173.9375 72.804688 173.9375 L 89.113281 173.9375 L 89.113281 184.808594 L 72.804688 184.808594 C 69.8125 184.808594 67.371094 187.246094 67.371094 190.242188 C 67.371094 193.238281 69.8125 195.679688 72.804688 195.679688 L 110.855469 195.679688 C 119.84375 195.679688 127.160156 202.992188 127.160156 211.984375 C 127.160156 220.976562 119.84375 228.289062 110.855469 228.289062 L 83.675781 228.289062 C 80.683594 228.289062 78.242188 230.730469 78.242188 233.726562 C 78.242188 236.722656 80.683594 239.160156 83.675781 239.160156 L 132.597656 239.160156 C 141.585938 239.160156 148.902344 246.476562 148.902344 255.46875 C 148.902344 264.457031 141.585938 271.773438 132.597656 271.773438 L 72.804688 271.773438 C 69.8125 271.773438 67.371094 274.214844 67.371094 277.210938 C 67.371094 280.207031 69.8125 282.644531 72.804688 282.644531 L 143.46875 282.644531 C 152.457031 282.644531 159.773438 289.960938 159.773438 298.953125 C 159.773438 307.941406 152.457031 315.257812 143.46875 315.257812 L 105.417969 315.257812 C 102.425781 315.257812 99.984375 317.699219 99.984375 320.695312 C 99.984375 323.6875 102.425781 326.128906 105.417969 326.128906 L 138.03125 326.128906 L 138.03125 337 L 105.417969 337 C 96.429688 337 89.113281 329.683594 89.113281 320.695312 C 89.113281 311.703125 96.429688 304.386719 105.417969 304.386719 L 143.46875 304.386719 C 146.460938 304.386719 148.902344 301.945312 148.902344 298.953125 C 148.902344 295.957031 146.460938 293.515625 143.46875 293.515625 L 72.804688 293.515625 C 63.816406 293.515625 56.5 286.199219 56.5 277.210938 C 56.5 268.21875 63.816406 260.902344 72.804688 260.902344 L 132.597656 260.902344 C 135.589844 260.902344 138.03125 258.464844 138.03125 255.46875 Z M 263.046875 0 L 273.917969 0 L 273.917969 10.871094 L 263.046875 10.871094 Z M 263.046875 21.742188 L 273.917969 21.742188 L 273.917969 35.972656 L 252.175781 46.84375 L 252.175781 76.097656 L 241.304688 76.097656 L 241.304688 40.125 L 263.046875 29.253906 Z M 263.046875 54.355469 L 317.402344 54.355469 L 317.402344 65.226562 L 273.917969 65.226562 L 273.917969 86.96875 L 263.046875 86.96875 Z M 339.144531 65.226562 L 328.273438 65.226562 L 328.273438 54.355469 L 339.144531 54.355469 Z M 301.097656 337 L 290.226562 337 L 290.226562 326.128906 L 301.097656 326.128906 Z M 333.710938 211.984375 C 333.710938 214.980469 336.152344 217.417969 339.144531 217.417969 L 366.324219 217.417969 C 375.3125 217.417969 382.628906 224.734375 382.628906 233.726562 C 382.628906 242.714844 375.3125 250.03125 366.324219 250.03125 L 317.402344 250.03125 C 314.410156 250.03125 311.96875 252.472656 311.96875 255.46875 C 311.96875 258.464844 314.410156 260.902344 317.402344 260.902344 L 377.195312 260.902344 C 386.183594 260.902344 393.5 268.21875 393.5 277.210938 C 393.5 286.199219 386.183594 293.515625 377.195312 293.515625 L 306.53125 293.515625 C 303.539062 293.515625 301.097656 295.957031 301.097656 298.953125 C 301.097656 301.945312 303.539062 304.386719 306.53125 304.386719 L 344.582031 304.386719 C 353.570312 304.386719 360.886719 311.703125 360.886719 320.695312 C 360.886719 329.683594 353.570312 337 344.582031 337 L 311.96875 337 L 311.96875 326.128906 L 344.582031 326.128906 C 347.574219 326.128906 350.015625 323.6875 350.015625 320.695312 C 350.015625 317.699219 347.574219 315.257812 344.582031 315.257812 L 306.53125 315.257812 C 297.542969 315.257812 290.226562 307.941406 290.226562 298.953125 C 290.226562 289.960938 297.542969 282.644531 306.53125 282.644531 L 377.195312 282.644531 C 380.1875 282.644531 382.628906 280.207031 382.628906 277.210938 C 382.628906 274.214844 380.1875 271.773438 377.195312 271.773438 L 317.402344 271.773438 C 308.414062 271.773438 301.097656 264.457031 301.097656 255.46875 C 301.097656 246.476562 308.414062 239.160156 317.402344 239.160156 L 366.324219 239.160156 C 369.316406 239.160156 371.757812 236.722656 371.757812 233.726562 C 371.757812 230.730469 369.316406 228.289062 366.324219 228.289062 L 339.144531 228.289062 C 330.15625 228.289062 322.839844 220.976562 322.839844 211.984375 C 322.839844 202.992188 330.15625 195.679688 339.144531 195.679688 L 377.195312 195.679688 C 380.1875 195.679688 382.628906 193.238281 382.628906 190.242188 C 382.628906 187.246094 380.1875 184.808594 377.195312 184.808594 L 360.886719 184.808594 L 360.886719 173.9375 L 377.195312 173.9375 C 386.183594 173.9375 393.5 181.253906 393.5 190.242188 C 393.5 199.234375 386.183594 206.550781 377.195312 206.550781 L 339.144531 206.550781 C 336.152344 206.550781 333.710938 208.988281 333.710938 211.984375 Z M 333.710938 211.984375 " clip-rule="nonzero"/></clipPath><linearGradient x1="31" gradientTransform="matrix(5.435496, 0, 0, 5.435496, 56.499633, -0)" y1="62" x2="31" gradientUnits="userSpaceOnUse" y2="0" id="7b3fb6cc1a"><stop stop-opacity="1" stop-color="rgb(62.348938%, 18.429565%, 99.998474%)" offset="0"/><stop stop-opacity="1" stop-color="rgb(62.121582%, 18.62793%, 99.931335%)" offset="0.00390625"/><stop stop-opacity="1" stop-color="rgb(61.895752%, 18.82782%, 99.864197%)" offset="0.0078125"/><stop stop-opacity="1" stop-color="rgb(61.668396%, 19.026184%, 99.797058%)" offset="0.0117187"/><stop stop-opacity="1" stop-color="rgb(61.442566%, 19.226074%, 99.729919%)" offset="0.015625"/><stop stop-opacity="1" stop-color="rgb(61.21521%, 19.424438%, 99.662781%)" offset="0.0195312"/><stop stop-opacity="1" stop-color="rgb(60.98938%, 19.624329%, 99.595642%)" offset="0.0234375"/><stop stop-opacity="1" stop-color="rgb(60.762024%, 19.822693%, 99.526978%)" offset="0.0273438"/><stop stop-opacity="1" stop-color="rgb(60.536194%, 20.022583%, 99.459839%)" offset="0.03125"/><stop stop-opacity="1" stop-color="rgb(60.308838%, 20.220947%, 99.3927%)" offset="0.0351562"/><stop stop-opacity="1" stop-color="rgb(60.081482%, 20.420837%, 99.325562%)" offset="0.0390625"/><stop stop-opacity="1" stop-color="rgb(59.854126%, 20.619202%, 99.258423%)" offset="0.0429688"/><stop stop-opacity="1" stop-color="rgb(59.628296%, 20.819092%, 99.191284%)" offset="0.046875"/><stop stop-opacity="1" stop-color="rgb(59.40094%, 21.017456%, 99.12262%)" offset="0.0507813"/><stop stop-opacity="1" stop-color="rgb(59.17511%, 21.217346%, 99.055481%)" offset="0.0546875"/><stop stop-opacity="1" stop-color="rgb(58.947754%, 21.41571%, 98.988342%)" offset="0.0585938"/><stop stop-opacity="1" stop-color="rgb(58.721924%, 21.615601%, 98.921204%)" offset="0.0625"/><stop stop-opacity="1" stop-color="rgb(58.494568%, 21.813965%, 98.854065%)" offset="0.0664062"/><stop stop-opacity="1" stop-color="rgb(58.268738%, 22.013855%, 98.786926%)" offset="0.0703125"/><stop stop-opacity="1" stop-color="rgb(58.041382%, 22.212219%, 98.718262%)" offset="0.0742188"/><stop stop-opacity="1" stop-color="rgb(57.815552%, 22.412109%, 98.651123%)" offset="0.078125"/><stop stop-opacity="1" stop-color="rgb(57.588196%, 22.610474%, 98.583984%)" offset="0.0820312"/><stop stop-opacity="1" stop-color="rgb(57.36084%, 22.810364%, 98.516846%)" offset="0.0859375"/><stop stop-opacity="1" stop-color="rgb(57.133484%, 23.008728%, 98.449707%)" offset="0.0898437"/><stop stop-opacity="1" stop-color="rgb(56.907654%, 23.208618%, 98.382568%)" offset="0.09375"/><stop stop-opacity="1" stop-color="rgb(56.680298%, 23.406982%, 98.313904%)" offset="0.0976562"/><stop stop-opacity="1" stop-color="rgb(56.454468%, 23.606873%, 98.246765%)" offset="0.101562"/><stop stop-opacity="1" stop-color="rgb(56.227112%, 23.805237%, 98.179626%)" offset="0.105469"/><stop stop-opacity="1" stop-color="rgb(56.001282%, 24.005127%, 98.112488%)" offset="0.109375"/><stop stop-opacity="1" stop-color="rgb(55.773926%, 24.203491%, 98.045349%)" offset="0.113281"/><stop stop-opacity="1" stop-color="rgb(55.548096%, 24.403381%, 97.97821%)" offset="0.117188"/><stop stop-opacity="1" stop-color="rgb(55.32074%, 24.601746%, 97.909546%)" offset="0.121094"/><stop stop-opacity="1" stop-color="rgb(55.09491%, 24.801636%, 97.842407%)" offset="0.125"/><stop stop-opacity="1" stop-color="rgb(54.867554%, 25%, 97.775269%)" offset="0.128906"/><stop stop-opacity="1" stop-color="rgb(54.640198%, 25.19989%, 97.70813%)" offset="0.132812"/><stop stop-opacity="1" stop-color="rgb(54.412842%, 25.398254%, 97.640991%)" offset="0.136719"/><stop stop-opacity="1" stop-color="rgb(54.187012%, 25.598145%, 97.573853%)" offset="0.140625"/><stop stop-opacity="1" stop-color="rgb(53.959656%, 25.796509%, 97.505188%)" offset="0.144531"/><stop stop-opacity="1" stop-color="rgb(53.733826%, 25.996399%, 97.438049%)" offset="0.148438"/><stop stop-opacity="1" stop-color="rgb(53.50647%, 26.194763%, 97.370911%)" offset="0.152344"/><stop stop-opacity="1" stop-color="rgb(53.28064%, 26.394653%, 97.303772%)" offset="0.15625"/><stop stop-opacity="1" stop-color="rgb(53.053284%, 26.593018%, 97.236633%)" offset="0.160156"/><stop stop-opacity="1" stop-color="rgb(52.827454%, 26.792908%, 97.169495%)" offset="0.164062"/><stop stop-opacity="1" stop-color="rgb(52.600098%, 26.991272%, 97.10083%)" offset="0.167969"/><stop stop-opacity="1" stop-color="rgb(52.374268%, 27.191162%, 97.033691%)" offset="0.171875"/><stop stop-opacity="1" stop-color="rgb(52.146912%, 27.389526%, 96.966553%)" offset="0.175781"/><stop stop-opacity="1" stop-color="rgb(51.919556%, 27.589417%, 96.899414%)" offset="0.179688"/><stop stop-opacity="1" stop-color="rgb(51.6922%, 27.787781%, 96.832275%)" offset="0.183594"/><stop stop-opacity="1" stop-color="rgb(51.46637%, 27.987671%, 96.765137%)" offset="0.1875"/><stop stop-opacity="1" stop-color="rgb(51.239014%, 28.186035%, 96.696472%)" offset="0.191406"/><stop stop-opacity="1" stop-color="rgb(51.013184%, 28.385925%, 96.629333%)" offset="0.195312"/><stop stop-opacity="1" stop-color="rgb(50.785828%, 28.58429%, 96.562195%)" offset="0.199219"/><stop stop-opacity="1" stop-color="rgb(50.559998%, 28.78418%, 96.495056%)" offset="0.203125"/><stop stop-opacity="1" stop-color="rgb(50.332642%, 28.982544%, 96.427917%)" offset="0.207031"/><stop stop-opacity="1" stop-color="rgb(50.106812%, 29.182434%, 96.360779%)" offset="0.210938"/><stop stop-opacity="1" stop-color="rgb(49.879456%, 29.380798%, 96.29364%)" offset="0.214844"/><stop stop-opacity="1" stop-color="rgb(49.653625%, 29.580688%, 96.226501%)" offset="0.21875"/><stop stop-opacity="1" stop-color="rgb(49.42627%, 29.779053%, 96.157837%)" offset="0.222656"/><stop stop-opacity="1" stop-color="rgb(49.198914%, 29.978943%, 96.090698%)" offset="0.226562"/><stop stop-opacity="1" stop-color="rgb(48.971558%, 30.177307%, 96.02356%)" offset="0.230469"/><stop stop-opacity="1" stop-color="rgb(48.745728%, 30.377197%, 95.956421%)" offset="0.234375"/><stop stop-opacity="1" stop-color="rgb(48.518372%, 30.575562%, 95.889282%)" offset="0.238281"/><stop stop-opacity="1" stop-color="rgb(48.292542%, 30.775452%, 95.822144%)" offset="0.242188"/><stop stop-opacity="1" stop-color="rgb(48.065186%, 30.973816%, 95.753479%)" offset="0.246094"/><stop stop-opacity="1" stop-color="rgb(47.839355%, 31.173706%, 95.68634%)" offset="0.25"/><stop stop-opacity="1" stop-color="rgb(47.612%, 31.37207%, 95.619202%)" offset="0.253906"/><stop stop-opacity="1" stop-color="rgb(47.386169%, 31.57196%, 95.552063%)" offset="0.257812"/><stop stop-opacity="1" stop-color="rgb(47.158813%, 31.770325%, 95.484924%)" offset="0.261719"/><stop stop-opacity="1" stop-color="rgb(46.932983%, 31.970215%, 95.417786%)" offset="0.265625"/><stop stop-opacity="1" stop-color="rgb(46.705627%, 32.168579%, 95.349121%)" offset="0.269531"/><stop stop-opacity="1" stop-color="rgb(46.478271%, 32.368469%, 95.281982%)" offset="0.273437"/><stop stop-opacity="1" stop-color="rgb(46.250916%, 32.566833%, 95.214844%)" offset="0.277344"/><stop stop-opacity="1" stop-color="rgb(46.025085%, 32.766724%, 95.147705%)" offset="0.28125"/><stop stop-opacity="1" stop-color="rgb(45.797729%, 32.965088%, 95.080566%)" offset="0.285156"/><stop stop-opacity="1" stop-color="rgb(45.571899%, 33.164978%, 95.013428%)" offset="0.289062"/><stop stop-opacity="1" stop-color="rgb(45.344543%, 33.363342%, 94.944763%)" offset="0.292969"/><stop stop-opacity="1" stop-color="rgb(45.118713%, 33.563232%, 94.877625%)" offset="0.296875"/><stop stop-opacity="1" stop-color="rgb(44.891357%, 33.761597%, 94.810486%)" offset="0.300781"/><stop stop-opacity="1" stop-color="rgb(44.665527%, 33.961487%, 94.743347%)" offset="0.304687"/><stop stop-opacity="1" stop-color="rgb(44.438171%, 34.159851%, 94.676208%)" offset="0.308594"/><stop stop-opacity="1" stop-color="rgb(44.212341%, 34.359741%, 94.60907%)" offset="0.3125"/><stop stop-opacity="1" stop-color="rgb(43.984985%, 34.559631%, 94.540405%)" offset="0.316406"/><stop stop-opacity="1" stop-color="rgb(43.757629%, 34.759521%, 94.473267%)" offset="0.320312"/><stop stop-opacity="1" stop-color="rgb(43.530273%, 34.957886%, 94.406128%)" offset="0.324219"/><stop stop-opacity="1" stop-color="rgb(43.304443%, 35.157776%, 94.338989%)" offset="0.328125"/><stop stop-opacity="1" stop-color="rgb(43.077087%, 35.35614%, 94.271851%)" offset="0.332031"/><stop stop-opacity="1" stop-color="rgb(42.851257%, 35.55603%, 94.204712%)" offset="0.335937"/><stop stop-opacity="1" stop-color="rgb(42.623901%, 35.754395%, 94.136047%)" offset="0.339844"/><stop stop-opacity="1" stop-color="rgb(42.398071%, 35.954285%, 94.068909%)" offset="0.34375"/><stop stop-opacity="1" stop-color="rgb(42.170715%, 36.152649%, 94.00177%)" offset="0.347656"/><stop stop-opacity="1" stop-color="rgb(41.944885%, 36.352539%, 93.934631%)" offset="0.351562"/><stop stop-opacity="1" stop-color="rgb(41.717529%, 36.550903%, 93.867493%)" offset="0.355469"/><stop stop-opacity="1" stop-color="rgb(41.491699%, 36.750793%, 93.800354%)" offset="0.359375"/><stop stop-opacity="1" stop-color="rgb(41.264343%, 36.949158%, 93.731689%)" offset="0.363281"/><stop stop-opacity="1" stop-color="rgb(41.036987%, 37.149048%, 93.664551%)" offset="0.367188"/><stop stop-opacity="1" stop-color="rgb(40.809631%, 37.347412%, 93.597412%)" offset="0.371094"/><stop stop-opacity="1" stop-color="rgb(40.583801%, 37.547302%, 93.530273%)" offset="0.375"/><stop stop-opacity="1" stop-color="rgb(40.356445%, 37.745667%, 93.463135%)" offset="0.378906"/><stop stop-opacity="1" stop-color="rgb(40.130615%, 37.945557%, 93.395996%)" offset="0.382812"/><stop stop-opacity="1" stop-color="rgb(39.903259%, 38.143921%, 93.327332%)" offset="0.386719"/><stop stop-opacity="1" stop-color="rgb(39.677429%, 38.343811%, 93.260193%)" offset="0.390625"/><stop stop-opacity="1" stop-color="rgb(39.450073%, 38.542175%, 93.193054%)" offset="0.394531"/><stop stop-opacity="1" stop-color="rgb(39.224243%, 38.742065%, 93.125916%)" offset="0.398438"/><stop stop-opacity="1" stop-color="rgb(38.996887%, 38.94043%, 93.058777%)" offset="0.402344"/><stop stop-opacity="1" stop-color="rgb(38.771057%, 39.14032%, 92.991638%)" offset="0.40625"/><stop stop-opacity="1" stop-color="rgb(38.543701%, 39.338684%, 92.9245%)" offset="0.410156"/><stop stop-opacity="1" stop-color="rgb(38.316345%, 39.538574%, 92.857361%)" offset="0.414062"/><stop stop-opacity="1" stop-color="rgb(38.088989%, 39.736938%, 92.788696%)" offset="0.417969"/><stop stop-opacity="1" stop-color="rgb(37.863159%, 39.936829%, 92.721558%)" offset="0.421875"/><stop stop-opacity="1" stop-color="rgb(37.635803%, 40.135193%, 92.654419%)" offset="0.425781"/><stop stop-opacity="1" stop-color="rgb(37.409973%, 40.335083%, 92.58728%)" offset="0.429687"/><stop stop-opacity="1" stop-color="rgb(37.182617%, 40.533447%, 92.520142%)" offset="0.433594"/><stop stop-opacity="1" stop-color="rgb(36.956787%, 40.733337%, 92.453003%)" offset="0.4375"/><stop stop-opacity="1" stop-color="rgb(36.729431%, 40.931702%, 92.384338%)" offset="0.441406"/><stop stop-opacity="1" stop-color="rgb(36.503601%, 41.131592%, 92.3172%)" offset="0.445312"/><stop stop-opacity="1" stop-color="rgb(36.276245%, 41.329956%, 92.250061%)" offset="0.449219"/><stop stop-opacity="1" stop-color="rgb(36.050415%, 41.529846%, 92.182922%)" offset="0.453125"/><stop stop-opacity="1" stop-color="rgb(35.823059%, 41.72821%, 92.115784%)" offset="0.457031"/><stop stop-opacity="1" stop-color="rgb(35.595703%, 41.928101%, 92.048645%)" offset="0.460937"/><stop stop-opacity="1" stop-color="rgb(35.368347%, 42.126465%, 91.97998%)" offset="0.464844"/><stop stop-opacity="1" stop-color="rgb(35.142517%, 42.326355%, 91.912842%)" offset="0.46875"/><stop stop-opacity="1" stop-color="rgb(34.915161%, 42.524719%, 91.845703%)" offset="0.472656"/><stop stop-opacity="1" stop-color="rgb(34.689331%, 42.724609%, 91.778564%)" offset="0.476562"/><stop stop-opacity="1" stop-color="rgb(34.461975%, 42.922974%, 91.711426%)" offset="0.480469"/><stop stop-opacity="1" stop-color="rgb(34.236145%, 43.122864%, 91.644287%)" offset="0.484375"/><stop stop-opacity="1" stop-color="rgb(34.008789%, 43.321228%, 91.575623%)" offset="0.488281"/><stop stop-opacity="1" stop-color="rgb(33.782959%, 43.521118%, 91.508484%)" offset="0.492187"/><stop stop-opacity="1" stop-color="rgb(33.555603%, 43.719482%, 91.441345%)" offset="0.496094"/><stop stop-opacity="1" stop-color="rgb(33.329773%, 43.919373%, 91.374207%)" offset="0.5"/><stop stop-opacity="1" stop-color="rgb(33.102417%, 44.117737%, 91.307068%)" offset="0.503906"/><stop stop-opacity="1" stop-color="rgb(32.875061%, 44.317627%, 91.239929%)" offset="0.507812"/><stop stop-opacity="1" stop-color="rgb(32.647705%, 44.515991%, 91.171265%)" offset="0.511719"/><stop stop-opacity="1" stop-color="rgb(32.421875%, 44.715881%, 91.104126%)" offset="0.515625"/><stop stop-opacity="1" stop-color="rgb(32.194519%, 44.914246%, 91.036987%)" offset="0.519531"/><stop stop-opacity="1" stop-color="rgb(31.968689%, 45.114136%, 90.969849%)" offset="0.523437"/><stop stop-opacity="1" stop-color="rgb(31.741333%, 45.3125%, 90.90271%)" offset="0.527344"/><stop stop-opacity="1" stop-color="rgb(31.515503%, 45.51239%, 90.835571%)" offset="0.53125"/><stop stop-opacity="1" stop-color="rgb(31.288147%, 45.710754%, 90.766907%)" offset="0.535156"/><stop stop-opacity="1" stop-color="rgb(31.062317%, 45.910645%, 90.699768%)" offset="0.539062"/><stop stop-opacity="1" stop-color="rgb(30.834961%, 46.109009%, 90.632629%)" offset="0.542969"/><stop stop-opacity="1" stop-color="rgb(30.609131%, 46.308899%, 90.565491%)" offset="0.546875"/><stop stop-opacity="1" stop-color="rgb(30.381775%, 46.507263%, 90.498352%)" offset="0.550781"/><stop stop-opacity="1" stop-color="rgb(30.154419%, 46.707153%, 90.431213%)" offset="0.554688"/><stop stop-opacity="1" stop-color="rgb(29.927063%, 46.905518%, 90.362549%)" offset="0.558594"/><stop stop-opacity="1" stop-color="rgb(29.701233%, 47.105408%, 90.29541%)" offset="0.5625"/><stop stop-opacity="1" stop-color="rgb(29.473877%, 47.303772%, 90.228271%)" offset="0.566406"/><stop stop-opacity="1" stop-color="rgb(29.248047%, 47.503662%, 90.161133%)" offset="0.570312"/><stop stop-opacity="1" stop-color="rgb(29.020691%, 47.702026%, 90.093994%)" offset="0.574219"/><stop stop-opacity="1" stop-color="rgb(28.794861%, 47.901917%, 90.026855%)" offset="0.578125"/><stop stop-opacity="1" stop-color="rgb(28.567505%, 48.100281%, 89.958191%)" offset="0.582031"/><stop stop-opacity="1" stop-color="rgb(28.341675%, 48.300171%, 89.891052%)" offset="0.585938"/><stop stop-opacity="1" stop-color="rgb(28.114319%, 48.498535%, 89.823914%)" offset="0.589844"/><stop stop-opacity="1" stop-color="rgb(27.888489%, 48.698425%, 89.756775%)" offset="0.59375"/><stop stop-opacity="1" stop-color="rgb(27.661133%, 48.89679%, 89.689636%)" offset="0.597656"/><stop stop-opacity="1" stop-color="rgb(27.435303%, 49.09668%, 89.622498%)" offset="0.601562"/><stop stop-opacity="1" stop-color="rgb(27.207947%, 49.295044%, 89.555359%)" offset="0.605469"/><stop stop-opacity="1" stop-color="rgb(26.980591%, 49.494934%, 89.48822%)" offset="0.609375"/><stop stop-opacity="1" stop-color="rgb(26.753235%, 49.693298%, 89.419556%)" offset="0.613281"/><stop stop-opacity="1" stop-color="rgb(26.527405%, 49.893188%, 89.352417%)" offset="0.617188"/><stop stop-opacity="1" stop-color="rgb(26.300049%, 50.091553%, 89.285278%)" offset="0.621094"/><stop stop-opacity="1" stop-color="rgb(26.074219%, 50.291443%, 89.21814%)" offset="0.625"/><stop stop-opacity="1" stop-color="rgb(25.846863%, 50.489807%, 89.151001%)" offset="0.628906"/><stop stop-opacity="1" stop-color="rgb(25.621033%, 50.689697%, 89.083862%)" offset="0.632812"/><stop stop-opacity="1" stop-color="rgb(25.393677%, 50.888062%, 89.015198%)" offset="0.636719"/><stop stop-opacity="1" stop-color="rgb(25.167847%, 51.087952%, 88.948059%)" offset="0.640625"/><stop stop-opacity="1" stop-color="rgb(24.940491%, 51.286316%, 88.88092%)" offset="0.644531"/><stop stop-opacity="1" stop-color="rgb(24.714661%, 51.486206%, 88.813782%)" offset="0.648438"/><stop stop-opacity="1" stop-color="rgb(24.487305%, 51.68457%, 88.746643%)" offset="0.652344"/><stop stop-opacity="1" stop-color="rgb(24.259949%, 51.88446%, 88.679504%)" offset="0.65625"/><stop stop-opacity="1" stop-color="rgb(24.032593%, 52.082825%, 88.61084%)" offset="0.660156"/><stop stop-opacity="1" stop-color="rgb(23.806763%, 52.282715%, 88.543701%)" offset="0.664062"/><stop stop-opacity="1" stop-color="rgb(23.579407%, 52.481079%, 88.476562%)" offset="0.667969"/><stop stop-opacity="1" stop-color="rgb(23.353577%, 52.680969%, 88.409424%)" offset="0.671875"/><stop stop-opacity="1" stop-color="rgb(23.126221%, 52.879333%, 88.342285%)" offset="0.675781"/><stop stop-opacity="1" stop-color="rgb(22.900391%, 53.079224%, 88.275146%)" offset="0.679687"/><stop stop-opacity="1" stop-color="rgb(22.673035%, 53.277588%, 88.206482%)" offset="0.683594"/><stop stop-opacity="1" stop-color="rgb(22.447205%, 53.477478%, 88.139343%)" offset="0.6875"/><stop stop-opacity="1" stop-color="rgb(22.219849%, 53.675842%, 88.072205%)" offset="0.691406"/><stop stop-opacity="1" stop-color="rgb(21.994019%, 53.875732%, 88.005066%)" offset="0.695312"/><stop stop-opacity="1" stop-color="rgb(21.766663%, 54.074097%, 87.937927%)" offset="0.699219"/><stop stop-opacity="1" stop-color="rgb(21.539307%, 54.273987%, 87.870789%)" offset="0.703125"/><stop stop-opacity="1" stop-color="rgb(21.311951%, 54.472351%, 87.802124%)" offset="0.707031"/><stop stop-opacity="1" stop-color="rgb(21.086121%, 54.672241%, 87.734985%)" offset="0.710937"/><stop stop-opacity="1" stop-color="rgb(20.858765%, 54.870605%, 87.667847%)" offset="0.714844"/><stop stop-opacity="1" stop-color="rgb(20.632935%, 55.070496%, 87.600708%)" offset="0.71875"/><stop stop-opacity="1" stop-color="rgb(20.405579%, 55.26886%, 87.533569%)" offset="0.722656"/><stop stop-opacity="1" stop-color="rgb(20.179749%, 55.46875%, 87.466431%)" offset="0.726562"/><stop stop-opacity="1" stop-color="rgb(19.952393%, 55.667114%, 87.397766%)" offset="0.730469"/><stop stop-opacity="1" stop-color="rgb(19.726562%, 55.867004%, 87.330627%)" offset="0.734375"/><stop stop-opacity="1" stop-color="rgb(19.499207%, 56.065369%, 87.263489%)" offset="0.738281"/><stop stop-opacity="1" stop-color="rgb(19.273376%, 56.265259%, 87.19635%)" offset="0.742187"/><stop stop-opacity="1" stop-color="rgb(19.046021%, 56.463623%, 87.129211%)" offset="0.746094"/><stop stop-opacity="1" stop-color="rgb(18.818665%, 56.663513%, 87.062073%)" offset="0.75"/><stop stop-opacity="1" stop-color="rgb(18.591309%, 56.861877%, 86.993408%)" offset="0.753906"/><stop stop-opacity="1" stop-color="rgb(18.365479%, 57.061768%, 86.92627%)" offset="0.757812"/><stop stop-opacity="1" stop-color="rgb(18.138123%, 57.261658%, 86.859131%)" offset="0.761719"/><stop stop-opacity="1" stop-color="rgb(17.912292%, 57.461548%, 86.791992%)" offset="0.765625"/><stop stop-opacity="1" stop-color="rgb(17.684937%, 57.659912%, 86.724854%)" offset="0.769531"/><stop stop-opacity="1" stop-color="rgb(17.459106%, 57.859802%, 86.657715%)" offset="0.773437"/><stop stop-opacity="1" stop-color="rgb(17.23175%, 58.058167%, 86.58905%)" offset="0.777344"/><stop stop-opacity="1" stop-color="rgb(17.00592%, 58.258057%, 86.521912%)" offset="0.78125"/><stop stop-opacity="1" stop-color="rgb(16.778564%, 58.456421%, 86.454773%)" offset="0.785156"/><stop stop-opacity="1" stop-color="rgb(16.552734%, 58.656311%, 86.387634%)" offset="0.789062"/><stop stop-opacity="1" stop-color="rgb(16.325378%, 58.854675%, 86.320496%)" offset="0.792969"/><stop stop-opacity="1" stop-color="rgb(16.098022%, 59.054565%, 86.253357%)" offset="0.796875"/><stop stop-opacity="1" stop-color="rgb(15.870667%, 59.25293%, 86.186218%)" offset="0.800781"/><stop stop-opacity="1" stop-color="rgb(15.644836%, 59.45282%, 86.11908%)" offset="0.804687"/><stop stop-opacity="1" stop-color="rgb(15.41748%, 59.651184%, 86.050415%)" offset="0.808594"/><stop stop-opacity="1" stop-color="rgb(15.19165%, 59.851074%, 85.983276%)" offset="0.8125"/><stop stop-opacity="1" stop-color="rgb(14.964294%, 60.049438%, 85.916138%)" offset="0.816406"/><stop stop-opacity="1" stop-color="rgb(14.738464%, 60.249329%, 85.848999%)" offset="0.820312"/><stop stop-opacity="1" stop-color="rgb(14.511108%, 60.447693%, 85.78186%)" offset="0.824219"/><stop stop-opacity="1" stop-color="rgb(14.285278%, 60.647583%, 85.714722%)" offset="0.828125"/><stop stop-opacity="1" stop-color="rgb(14.057922%, 60.845947%, 85.646057%)" offset="0.832031"/><stop stop-opacity="1" stop-color="rgb(13.832092%, 61.045837%, 85.578918%)" offset="0.835938"/><stop stop-opacity="1" stop-color="rgb(13.604736%, 61.244202%, 85.51178%)" offset="0.839844"/><stop stop-opacity="1" stop-color="rgb(13.37738%, 61.444092%, 85.444641%)" offset="0.84375"/><stop stop-opacity="1" stop-color="rgb(13.150024%, 61.642456%, 85.377502%)" offset="0.847656"/><stop stop-opacity="1" stop-color="rgb(12.924194%, 61.842346%, 85.310364%)" offset="0.851562"/><stop stop-opacity="1" stop-color="rgb(12.696838%, 62.04071%, 85.241699%)" offset="0.855469"/><stop stop-opacity="1" stop-color="rgb(12.471008%, 62.240601%, 85.174561%)" offset="0.859375"/><stop stop-opacity="1" stop-color="rgb(12.243652%, 62.438965%, 85.107422%)" offset="0.863281"/><stop stop-opacity="1" stop-color="rgb(12.017822%, 62.638855%, 85.040283%)" offset="0.867187"/><stop stop-opacity="1" stop-color="rgb(11.790466%, 62.837219%, 84.973145%)" offset="0.871094"/><stop stop-opacity="1" stop-color="rgb(11.564636%, 63.037109%, 84.906006%)" offset="0.875"/><stop stop-opacity="1" stop-color="rgb(11.33728%, 63.235474%, 84.837341%)" offset="0.878906"/><stop stop-opacity="1" stop-color="rgb(11.11145%, 63.435364%, 84.770203%)" offset="0.882812"/><stop stop-opacity="1" stop-color="rgb(10.884094%, 63.633728%, 84.703064%)" offset="0.886719"/><stop stop-opacity="1" stop-color="rgb(10.656738%, 63.833618%, 84.635925%)" offset="0.890625"/><stop stop-opacity="1" stop-color="rgb(10.429382%, 64.031982%, 84.568787%)" offset="0.894531"/><stop stop-opacity="1" stop-color="rgb(10.203552%, 64.231873%, 84.501648%)" offset="0.898437"/><stop stop-opacity="1" stop-color="rgb(9.976196%, 64.430237%, 84.432983%)" offset="0.902344"/><stop stop-opacity="1" stop-color="rgb(9.750366%, 64.630127%, 84.365845%)" offset="0.90625"/><stop stop-opacity="1" stop-color="rgb(9.52301%, 64.828491%, 84.298706%)" offset="0.910156"/><stop stop-opacity="1" stop-color="rgb(9.29718%, 65.028381%, 84.231567%)" offset="0.914062"/><stop stop-opacity="1" stop-color="rgb(9.069824%, 65.226746%, 84.164429%)" offset="0.917969"/><stop stop-opacity="1" stop-color="rgb(8.843994%, 65.426636%, 84.09729%)" offset="0.921875"/><stop stop-opacity="1" stop-color="rgb(8.616638%, 65.625%, 84.028625%)" offset="0.925781"/><stop stop-opacity="1" stop-color="rgb(8.390808%, 65.82489%, 83.961487%)" offset="0.929688"/><stop stop-opacity="1" stop-color="rgb(8.163452%, 66.023254%, 83.894348%)" offset="0.933594"/><stop stop-opacity="1" stop-color="rgb(7.936096%, 66.223145%, 83.827209%)" offset="0.9375"/><stop stop-opacity="1" stop-color="rgb(7.70874%, 66.421509%, 83.760071%)" offset="0.941406"/><stop stop-opacity="1" stop-color="rgb(7.48291%, 66.621399%, 83.692932%)" offset="0.945313"/><stop stop-opacity="1" stop-color="rgb(7.255554%, 66.819763%, 83.624268%)" offset="0.949219"/><stop stop-opacity="1" stop-color="rgb(7.029724%, 67.019653%, 83.557129%)" offset="0.953125"/><stop stop-opacity="1" stop-color="rgb(6.802368%, 67.218018%, 83.48999%)" offset="0.957031"/><stop stop-opacity="1" stop-color="rgb(6.576538%, 67.417908%, 83.422852%)" offset="0.960938"/><stop stop-opacity="1" stop-color="rgb(6.349182%, 67.616272%, 83.355713%)" offset="0.964844"/><stop stop-opacity="1" stop-color="rgb(6.123352%, 67.816162%, 83.288574%)" offset="0.96875"/><stop stop-opacity="1" stop-color="rgb(5.895996%, 68.014526%, 83.21991%)" offset="0.972656"/><stop stop-opacity="1" stop-color="rgb(5.670166%, 68.214417%, 83.152771%)" offset="0.976562"/><stop stop-opacity="1" stop-color="rgb(5.44281%, 68.412781%, 83.085632%)" offset="0.980469"/><stop stop-opacity="1" stop-color="rgb(5.215454%, 68.612671%, 83.018494%)" offset="0.984375"/><stop stop-opacity="1" stop-color="rgb(4.988098%, 68.811035%, 82.951355%)" offset="0.988281"/><stop stop-opacity="1" stop-color="rgb(4.762268%, 69.010925%, 82.884216%)" offset="0.992188"/><stop stop-opacity="1" stop-color="rgb(4.534912%, 69.20929%, 82.817078%)" offset="0.996094"/><stop stop-opacity="1" stop-color="rgb(4.309082%, 69.40918%, 82.749939%)" offset="1"/></linearGradient></defs><g clip-path="url(#ef8a32e709)"><path fill="#ffffff" d="M 0.332031 0 L 449.667969 0 L 449.667969 337 L 0.332031 337 Z M 0.332031 0 " fill-opacity="1" fill-rule="nonzero"/><path fill="#ffffff" d="M 0.332031 0 L 449.667969 0 L 449.667969 337 L 0.332031 337 Z M 0.332031 0 " fill-opacity="1" fill-rule="nonzero"/></g><g clip-path="url(#eacd30fb18)"><g clip-path="url(#3f83b5eebe)"><path fill="url(#7b3fb6cc1a)" d="M 56.5 0 L 56.5 337 L 393.5 337 L 393.5 0 Z M 56.5 0 " fill-rule="nonzero"/></g></g></svg>